<svg xmlns="http://www.w3.org/2000/svg" width="2689.348" height="512" viewBox="0 0 711.557 135.467"><g transform="translate(-562.558 -3315.43)"><text style="line-height:1.25;-inkscape-font-specification:'Microgramma D Extended'" x="-43.405" y="128.366" font-weight="400" font-size="6.605" font-family="Microgramma D Extended" letter-spacing="4.691" word-spacing=".018" stroke-width=".265"><tspan x="-43.405" y="128.366" style="-inkscape-font-specification:'Microgramma D Extended'">WEB DEVELOPMENT</tspan></text><g font-family="Microgramma D Extended"><g style="line-height:1.25;-inkscape-font-specification:'Microgramma D Extended Bold'" aria-label="RQ" font-weight="700" font-size="192" letter-spacing="-42.34" word-spacing=".11" stroke-width=".547"><path d="M171.387 363.507h18.86v-15.7h26.662c7.804 0 9.197.186 10.498 1.672 1.486 1.58 1.858 3.809 1.858 10.777v3.251h18.58v-5.76c.372-14.307-1.3-17.094-10.87-18.208 3.717-.558 5.482-1.208 7.247-2.602 3.345-2.508 4.274-6.038 4.274-15.236 0-10.776-1.394-14.864-6.132-17.744-3.995-2.415-3.995-2.415-25.362-2.415h-45.615zm18.86-31.215v-15.236h26.57c8.546.093 8.825.093 10.125.65 1.951.837 2.695 2.602 2.695 6.782 0 3.902-.558 5.76-2.044 6.69-1.3.928-1.3.928-10.777 1.114z"/><path d="M325.778 350.965l-7.99-4.087c.372-3.066.558-8.083.558-13.935 0-18.21-1.3-24.34-6.132-28.057-4.738-3.623-10.497-4.273-36.417-4.273s-31.68.65-36.418 4.273c-4.738 3.623-6.131 9.848-6.131 27.592 0 17.837 1.393 24.062 6.131 27.685 4.738 3.53 10.591 4.273 35.768 4.273 27.034 0 32.33-.65 37.44-4.645l6.038 4.367zm-45.615-26.941l-7.525 13.1 19.974 10.59c-3.251.557-6.689.65-15.979.65-16.35 0-19.23-.278-21.739-2.23-2.137-1.672-2.787-4.366-2.787-11.984 0-7.804.372-11.427 1.486-13.563 1.951-3.624 3.624-3.902 22.204-3.902 17.28 0 19.324.278 21.46 2.787 1.672 2.044 2.23 5.574 2.23 14.771 0 .372 0 1.022-.093 1.951z"/></g><g style="line-height:1.25;-inkscape-font-specification:'Microgramma D Extended'" aria-label="WEB DEVELOPMENT" font-weight="400" font-size="6.605" letter-spacing="4.691" word-spacing=".018" stroke-width=".265"><path style="-inkscape-font-specification:'Microgramma D Extended'" d="M171.387 369.536l2.021 4.405h1.004l1.671-3.764 1.599 3.764h.997l2.074-4.405h-.64l-1.83 3.91h-.178l-1.658-3.91h-.733l-1.724 3.91h-.185l-1.784-3.91zM185.693 373.942h4.32v-.516h-3.732v-1.512h3.566v-.516h-3.566v-1.347h3.725v-.515h-4.313zM195.118 373.942h2.92c1.202 0 1.664-.08 1.915-.344.166-.172.245-.456.245-.905 0-.693-.192-.977-.714-1.063.41-.152.542-.39.542-.965 0-.29-.033-.449-.125-.614-.152-.284-.456-.456-.86-.489-.197-.013-.197-.013-1.003-.026h-2.92zm.588-2.51v-1.381h2.332c1.037.02 1.07.026 1.215.139.113.086.172.284.172.548 0 .297-.073.476-.231.575-.159.099-.35.119-1.156.119zm0 1.994v-1.48h2.332c1.189.02 1.189.02 1.367.146.132.093.192.284.192.588 0 .66-.179.746-1.56.746zM211.808 373.942h3.084c1.242 0 1.579-.067 1.896-.364.33-.31.469-.865.469-1.843 0-1.037-.093-1.466-.383-1.776-.33-.35-.667-.423-2.028-.423h-3.038zm.587-.516v-3.375h2.438c.495 0 .687 0 .806.013.403.027.607.106.753.278.171.218.264.687.264 1.367 0 1.07-.192 1.546-.667 1.658-.245.06-.271.06-1.123.06zM222.51 373.942h4.32v-.516h-3.732v-1.512h3.567v-.516h-3.567v-1.347h3.726v-.515h-4.314zM231.52 369.536l2.484 4.405h.905l2.43-4.405h-.654l-2.127 3.864h-.21l-2.18-3.864zM242.278 373.942h4.32v-.516h-3.732v-1.512h3.567v-.516h-3.567v-1.347h3.725v-.515h-4.313zM251.704 369.536v4.405h4.062v-.515h-3.475v-3.89zM263.607 369.523c-.383 0-1.142.02-1.407.033-.6.04-.825.099-1.05.264-.323.25-.43.72-.43 1.902 0 .713.027 1.123.1 1.414.08.356.363.634.72.713.33.073 1.083.106 2.259.106 1.347 0 1.836-.086 2.094-.357.244-.264.337-.76.337-1.843 0-.337-.02-.78-.047-1.004-.046-.469-.125-.693-.31-.872-.284-.284-.76-.356-2.266-.356zm-.343.528c1.13 0 1.466.013 1.803.066.297.046.456.178.495.43.04.198.067.726.067 1.221 0 .41-.033.885-.073 1.123-.053.264-.192.403-.45.45-.297.052-.904.085-1.552.085-.284 0-1.023-.02-1.261-.033-.489-.033-.667-.079-.786-.204-.139-.152-.185-.536-.185-1.513 0-.846.066-1.262.224-1.407.172-.159.621-.218 1.718-.218zM271.497 373.942h.588v-1.658h2.2c.435 0 .693 0 .772-.007.581-.014.773-.067 1.01-.271.238-.198.33-.515.33-1.11 0-.601-.105-.931-.356-1.123-.27-.205-.27-.205-1.757-.238h-2.787zm.588-2.174v-1.717h2.2c1.102.02 1.168.033 1.347.165.132.1.165.245.165.7 0 .416-.047.582-.179.694-.178.145-.264.158-1.334.158zM281.503 369.536v4.405h.588v-3.857h.257l2.484 3.858h.475l2.458-3.858h.244v3.858h.588v-4.406h-1.182l-2.345 3.738-2.391-3.738zM293.947 373.942h4.32v-.516h-3.732v-1.512h3.567v-.516h-3.567v-1.347h3.726v-.515h-4.314zM303.373 369.536v4.405h.588v-3.857h.132l3.838 3.858h.997v-4.406h-.588v3.864h-.139l-3.85-3.864zM313.952 369.536v.515h2.213v3.89h.588v-3.89h2.2v-.515z"/></g></g><text y="128.366" x="-43.405" style="line-height:1.25;-inkscape-font-specification:'Microgramma D Extended'" font-weight="400" font-size="6.605" font-family="Microgramma D Extended" letter-spacing="4.691" word-spacing=".018" stroke-width=".265"><tspan style="-inkscape-font-specification:'Microgramma D Extended'" y="128.366" x="-43.405">WEB DEVELOPMENT</tspan></text><text style="line-height:1.25;-inkscape-font-specification:'Microgramma D Extended Medium'" x="-51.584" y="235.323" font-weight="500" font-size="6.605" font-family="Microgramma D Extended" letter-spacing="5.821" word-spacing=".018" stroke-width=".265"><tspan x="-51.584" y="235.323" style="-inkscape-font-specification:'Microgramma D Extended Medium'">WEB DEVELOPMENT</tspan></text><path style="line-height:1.25;-inkscape-font-specification:'Microgramma D Extended Bold'" d="M-212.136 148.467c-22.144 0-29.571.477-34.22 2.875-3.31-1.942-4.706-1.945-24.575-1.945h-45.615v60.962h18.86v-14.697h26.662c7.804 0 9.197.186 10.498 1.672 1.486 1.58 1.858 3.81 1.858 10.777v2.248h78.245c2.066-.663 3.581-1.544 5.076-2.713l6.038 4.366 7.154-13.192-7.99-4.087c.372-3.066.558-8.082.558-13.935 0-18.209-1.3-24.34-6.131-28.057-4.738-3.623-10.498-4.274-36.418-4.274zm0 16.073c17.28 0 19.324.278 21.46 2.787 1.673 2.044 2.23 5.574 2.23 14.77 0 .373 0 1.023-.093 1.952l-19.23-12.17-7.526 13.099 19.974 10.59c-3.251.558-6.689.651-15.979.651-16.35 0-19.23-.278-21.739-2.23-2.137-1.672-2.787-4.366-2.787-11.984 0-7.803.371-11.427 1.486-13.564 1.951-3.623 3.624-3.901 22.204-3.901zm-85.55.371h26.57c8.546.093 8.825.093 10.126.65 1.95.837 2.694 2.602 2.694 6.782 0 3.902-.558 5.76-2.044 6.69-1.3.929-1.3.928-10.777 1.114h-26.57z" font-weight="700" font-size="192" font-family="Microgramma D Extended" letter-spacing="-42.34" word-spacing=".11"/><text y="219.958" x="-316.46" style="line-height:1.25;-inkscape-font-specification:'Microgramma D Extended'" font-weight="400" font-size="6.605" font-family="Microgramma D Extended" letter-spacing="4.691" word-spacing=".018" stroke-width=".265"><tspan style="-inkscape-font-specification:'Microgramma D Extended'" y="219.958" x="-316.46">WEB DEVELOPMENT</tspan></text><path d="M-682.969-393.902a111.406 111.406 0 0 0-111.405 111.405A111.406 111.406 0 0 0-682.97-171.09a111.406 111.406 0 0 0 111.406-111.406 111.406 111.406 0 0 0-111.406-111.405zm28.347 78.166c26.997 0 32.997.678 37.932 4.452 5.032 3.87 6.387 10.257 6.387 29.223 0 6.096-.194 11.322-.581 14.515l8.322 4.258-7.451 13.74-6.29-4.548c-5.322 4.16-10.838 4.838-38.997 4.838-14.674 0-23.044-.242-28.436-1.1v.133h-19.353v-3.387c0-7.258-.388-9.58-1.936-11.225-1.355-1.548-2.806-1.742-10.935-1.742h-27.771v16.354h-19.644v-64.543h47.512c20.695 0 22.15.003 25.596 2.026 4.843-2.498 12.579-2.994 35.645-2.994zm0 16.74c-19.354 0-21.095.291-23.127 4.065-1.161 2.226-1.549 6-1.549 14.128 0 7.934.678 10.74 2.904 12.482 2.612 2.033 5.612 2.323 22.642 2.323 9.677 0 13.258-.097 16.644-.677l-20.804-11.032 7.838-13.644 20.03 12.676c.097-.967.097-1.644.097-2.031 0-9.58-.58-13.257-2.323-15.386-2.225-2.613-4.354-2.903-22.353-2.903zm-89.11.388v15.87h27.676c9.87-.194 9.87-.194 11.225-1.162 1.548-.968 2.129-2.902 2.129-6.967 0-4.354-.775-6.193-2.807-7.064-1.355-.58-1.645-.58-10.547-.677z" opacity=".57" fill="#0000d4"/><path d="M-435.614-390.343A111.406 111.406 0 0 0-547.02-278.938a111.406 111.406 0 0 0 111.406 111.406 111.406 111.406 0 0 0 111.406-111.406 111.406 111.406 0 0 0-111.406-111.405zm28.346 78.166c26.998 0 32.997.678 37.932 4.452 5.032 3.87 6.387 10.257 6.387 29.223 0 6.096-.193 11.322-.58 14.515l8.322 4.258-7.452 13.74-6.29-4.548c-5.321 4.161-10.837 4.838-38.996 4.838-14.675 0-23.044-.242-28.437-1.1v.133h-19.353v-3.387c0-7.257-.387-9.58-1.935-11.225-1.355-1.548-2.807-1.742-10.935-1.742h-27.772v16.354h-19.643v-64.543h47.512c20.695 0 22.149.003 25.596 2.026 4.843-2.498 12.579-2.994 35.644-2.994zm0 16.74c-19.353 0-21.095.291-23.127 4.065-1.16 2.226-1.548 6-1.548 14.128 0 7.935.677 10.74 2.903 12.482 2.613 2.033 5.612 2.323 22.643 2.323 9.677 0 13.257-.096 16.644-.677l-20.805-11.032 7.838-13.643 20.03 12.676c.097-.968.097-1.645.097-2.032 0-9.58-.58-13.257-2.322-15.386-2.226-2.613-4.354-2.903-22.353-2.903zm-89.109.388v15.87h27.675c9.87-.194 9.87-.194 11.225-1.162 1.549-.968 2.13-2.902 2.13-6.967 0-4.354-.775-6.193-2.807-7.064-1.355-.58-1.645-.58-10.548-.677z" fill="#806600"/><path d="M-129.3-436.309a111.406 111.406 0 0 0-111.406 111.406 111.406 111.406 0 0 0 111.405 111.406A111.406 111.406 0 0 0-17.895-324.903 111.406 111.406 0 0 0-129.3-436.31zm28.346 78.167c26.997 0 32.997.677 37.932 4.451 5.032 3.87 6.387 10.257 6.387 29.223 0 6.096-.194 11.322-.581 14.515l8.322 4.258-7.451 13.74-6.29-4.548c-5.322 4.161-10.838 4.839-38.997 4.839-14.674 0-23.044-.243-28.436-1.1v.133h-19.353v-3.388c0-7.257-.388-9.58-1.936-11.224-1.355-1.549-2.806-1.742-10.935-1.742h-27.771v16.354h-19.644v-64.544h47.512c20.695 0 22.15.003 25.596 2.026 4.843-2.497 12.579-2.993 35.645-2.993zm0 16.74c-19.354 0-21.095.29-23.127 4.064-1.161 2.226-1.549 6-1.549 14.128 0 7.935.678 10.741 2.904 12.483 2.612 2.032 5.612 2.322 22.642 2.322 9.677 0 13.258-.096 16.644-.677l-20.804-11.031 7.838-13.644 20.03 12.676c.097-.968.097-1.645.097-2.032 0-9.58-.58-13.257-2.323-15.386-2.225-2.612-4.354-2.903-22.353-2.903zm-89.11.387v15.87h27.676c9.87-.193 9.87-.194 11.225-1.162 1.548-.967 2.129-2.902 2.129-6.966 0-4.355-.775-6.193-2.807-7.064-1.355-.58-1.645-.581-10.547-.678z" fill="#165016"/><path d="M-563.74-153.666A111.406 111.406 0 0 0-675.146-42.26 111.406 111.406 0 0 0-563.74 69.146 111.406 111.406 0 0 0-452.334-42.26 111.406 111.406 0 0 0-563.74-153.666zm28.346 78.167c26.998 0 32.997.677 37.932 4.451 5.032 3.87 6.387 10.257 6.387 29.223 0 6.096-.194 11.322-.58 14.515l8.321 4.258-7.45 13.74-6.29-4.548c-5.322 4.161-10.838 4.839-38.997 4.839-14.675 0-23.044-.243-28.437-1.1v.133h-19.353v-3.388c0-7.257-.387-9.58-1.936-11.224-1.354-1.549-2.806-1.742-10.934-1.742h-27.772v16.354h-19.644v-64.544h47.513c20.695 0 22.149.003 25.596 2.026 4.842-2.497 12.578-2.993 35.644-2.993zm0 16.74c-19.353 0-21.095.29-23.127 4.064-1.161 2.226-1.548 6-1.548 14.128 0 7.935.677 10.741 2.903 12.483 2.613 2.032 5.612 2.322 22.643 2.322 9.677 0 13.257-.096 16.644-.677l-20.805-11.031 7.838-13.644 20.03 12.676c.097-.968.097-1.645.097-2.032 0-9.58-.58-13.257-2.322-15.386-2.226-2.612-4.355-2.903-22.353-2.903zm-89.109.387v15.87h27.675c9.87-.193 9.87-.194 11.225-1.162 1.548-.967 2.129-2.902 2.129-6.966 0-4.355-.774-6.193-2.806-7.064-1.355-.58-1.645-.581-10.548-.678z" fill="#0a4"/><path d="M-580.646-627.91A111.406 111.406 0 0 0-692.05-516.505a111.406 111.406 0 0 0 111.405 111.406A111.406 111.406 0 0 0-469.24-516.505 111.406 111.406 0 0 0-580.646-627.91zm28.346 78.166c26.998 0 32.998.678 37.933 4.451 5.031 3.871 6.387 10.257 6.387 29.224 0 6.096-.194 11.322-.581 14.515l8.322 4.258-7.451 13.74-6.29-4.548c-5.322 4.16-10.838 4.838-38.997 4.838-14.674 0-23.044-.243-28.436-1.1v.133h-19.354v-3.387c0-7.258-.387-9.58-1.935-11.225-1.355-1.548-2.806-1.742-10.935-1.742h-27.771v16.354h-19.644v-64.543h47.512c20.695 0 22.15.003 25.596 2.025 4.843-2.497 12.579-2.993 35.644-2.993zm0 16.74c-19.353 0-21.094.291-23.126 4.065-1.162 2.225-1.549 6-1.549 14.128 0 7.934.678 10.74 2.903 12.482 2.613 2.032 5.613 2.323 22.643 2.323 9.677 0 13.258-.097 16.644-.677l-20.804-11.032 7.838-13.644 20.03 12.676c.097-.967.097-1.644.097-2.032 0-9.58-.581-13.256-2.323-15.385-2.225-2.613-4.354-2.904-22.353-2.904zm-89.108.387v15.87h27.675c9.87-.193 9.87-.193 11.225-1.161 1.548-.968 2.128-2.903 2.128-6.967 0-4.354-.774-6.193-2.806-7.064-1.355-.58-1.645-.58-10.547-.678z" fill="#00aad4"/><path d="M-316.386-157.225A111.406 111.406 0 0 0-427.79-45.819 111.406 111.406 0 0 0-316.386 65.587 111.406 111.406 0 0 0-204.98-45.82a111.406 111.406 0 0 0-111.406-111.406zm28.347 78.167c26.997 0 32.997.677 37.932 4.451 5.032 3.87 6.387 10.257 6.387 29.223 0 6.096-.194 11.322-.581 14.515l8.322 4.258-7.451 13.74-6.29-4.548c-5.322 4.161-10.838 4.839-38.997 4.839-14.674 0-23.044-.243-28.436-1.101v.134h-19.353v-3.388c0-7.257-.388-9.58-1.936-11.225-1.355-1.548-2.806-1.741-10.935-1.741h-27.771v16.354h-19.644v-64.544h47.512c20.695 0 22.15.003 25.596 2.026 4.843-2.498 12.579-2.993 35.645-2.993zm0 16.74c-19.354 0-21.095.29-23.127 4.064-1.161 2.226-1.549 6-1.549 14.128 0 7.935.678 10.741 2.904 12.483 2.612 2.032 5.612 2.322 22.642 2.322 9.677 0 13.258-.096 16.645-.677l-20.805-11.031 7.838-13.644 20.03 12.676c.097-.968.097-1.645.097-2.032 0-9.58-.58-13.257-2.323-15.386-2.225-2.612-4.354-2.903-22.353-2.903zm-89.11.387v15.87h27.676c9.87-.194 9.87-.194 11.225-1.162 1.548-.967 2.129-2.902 2.129-6.966 0-4.355-.775-6.193-2.807-7.064-1.355-.581-1.645-.581-10.547-.678z" fill="#165044"/><path d="M-299.48-630.58a111.406 111.406 0 0 0-111.406 111.406A111.406 111.406 0 0 0-299.48-407.768a111.406 111.406 0 0 0 111.406-111.406A111.406 111.406 0 0 0-299.48-630.58zm28.346 78.167c26.998 0 32.997.677 37.932 4.451 5.032 3.87 6.387 10.257 6.387 29.223 0 6.097-.193 11.322-.58 14.516l8.322 4.257-7.452 13.74-6.29-4.547c-5.321 4.16-10.837 4.838-38.996 4.838-14.675 0-23.044-.243-28.437-1.1v.133H-319.6v-3.387c0-7.258-.387-9.58-1.935-11.225-1.355-1.549-2.807-1.742-10.935-1.742h-27.772v16.354h-19.643v-64.543h47.512c20.695 0 22.149.003 25.596 2.025 4.843-2.497 12.579-2.993 35.644-2.993zm0 16.74c-19.353 0-21.095.29-23.127 4.065-1.16 2.225-1.548 5.999-1.548 14.127 0 7.935.677 10.741 2.903 12.483 2.613 2.032 5.612 2.323 22.643 2.323 9.677 0 13.257-.097 16.644-.678l-20.805-11.031 7.838-13.644 20.03 12.676c.097-.968.097-1.645.097-2.032 0-9.58-.58-13.257-2.322-15.385-2.226-2.613-4.354-2.904-22.353-2.904zm-89.109.387v15.87h27.675c9.87-.193 9.87-.194 11.225-1.161 1.549-.968 2.13-2.903 2.13-6.967 0-4.355-.775-6.193-2.807-7.064-1.355-.58-1.645-.581-10.548-.678z" fill="#374548"/><path d="M22.77-664.848a111.406 111.406 0 0 0-87.105 131.281A111.406 111.406 0 0 0 66.947-446.46a111.406 111.406 0 0 0 87.106-131.282 111.406 111.406 0 0 0-131.282-87.106zm43.282 70.994c26.462-5.352 32.477-5.878 38.062-3.157 5.7 2.796 8.294 8.787 12.054 27.376 1.209 5.976 2.055 11.136 2.309 14.343l9 2.523-4.578 14.945-7.067-3.211c-4.391 5.133-9.663 6.891-37.263 12.474-14.384 2.91-22.635 4.33-28.09 4.56l.026.13-18.97 3.837-.67-3.32c-1.44-7.113-2.28-9.313-4.123-10.618-1.635-1.25-3.096-1.151-11.063.46l-27.22 5.507 3.242 16.029-19.254 3.895-12.797-63.262 46.57-9.42c20.284-4.103 21.71-4.389 25.49-3.09 4.25-3.408 11.734-5.428 34.342-10zm3.32 16.408c-18.97 3.837-20.62 4.467-21.863 8.57-.697 2.41-.328 6.187 1.283 14.154 1.574 7.777 2.794 10.393 5.321 11.659 2.964 1.474 5.961 1.164 22.654-2.213 9.484-1.919 12.975-2.723 16.18-3.964l-22.58-6.687 4.978-14.927 22.146 8.453a19.06 19.06 0 0 0-.308-2.011c-1.9-9.39-3.198-12.878-5.327-14.62-2.7-2.12-4.844-1.982-22.485 1.586zm-87.264 18.047l3.147 15.555 27.125-5.487c9.636-2.147 9.636-2.147 10.772-3.364 1.326-1.256 1.511-3.267.705-7.25-.863-4.269-1.987-5.917-4.151-6.368-1.443-.3-1.727-.243-10.472 1.427zM83.119-235.97A111.406 111.406 0 0 0-28.287-124.562 111.406 111.406 0 0 0 83.119-13.157a111.406 111.406 0 0 0 111.406-111.406A111.406 111.406 0 0 0 83.119-235.97zm28.346 78.167c26.998 0 32.997.678 37.932 4.452 5.032 3.87 6.387 10.257 6.387 29.223 0 6.096-.194 11.322-.58 14.515l8.321 4.258-7.45 13.74-6.29-4.548c-5.323 4.161-10.838 4.839-38.997 4.839-14.675 0-23.044-.243-28.437-1.101v.133H62.998v-3.387c0-7.257-.387-9.58-1.936-11.225-1.354-1.548-2.806-1.741-10.934-1.741H22.356v16.353H2.712v-64.543h47.512c20.696 0 22.15.003 25.597 2.026 4.842-2.498 12.578-2.994 35.644-2.994zm0 16.74c-19.353 0-21.095.291-23.127 4.065-1.161 2.226-1.549 6-1.549 14.128 0 7.935.678 10.74 2.904 12.483 2.613 2.032 5.612 2.322 22.643 2.322 9.676 0 13.257-.096 16.644-.677l-20.805-11.032 7.838-13.643 20.03 12.676c.097-.968.097-1.645.097-2.032 0-9.58-.58-13.257-2.322-15.386-2.226-2.613-4.355-2.903-22.353-2.903zm-89.109.388v15.87h27.675c9.87-.194 9.87-.194 11.225-1.162 1.548-.967 2.129-2.902 2.129-6.966 0-4.355-.774-6.194-2.807-7.065-1.354-.58-1.644-.58-10.547-.677z" fill="#003380"/><circle r="111.406" cy="-448.722" cx="526.775" fill="#003380" transform="translate(-6.84)"/><path d="M551.874-106.163A111.406 111.406 0 0 1 440.468 5.243a111.406 111.406 0 0 1-111.406-111.406 111.406 111.406 0 0 1 111.406-111.406 111.406 111.406 0 0 1 111.406 111.406z" fill="#003380"/><g aria-label="RQ" style="line-height:1.25;-inkscape-font-specification:'Microgramma D Extended Bold'" font-weight="700" font-size="192" font-family="Microgramma D Extended" letter-spacing="-42.34" word-spacing=".11" fill="#fff" stroke-width=".547"><path d="M363.272-75.18h18.86v-15.7h26.662c7.804 0 9.197.185 10.498 1.672 1.487 1.58 1.858 3.809 1.858 10.777v3.251h18.58v-5.76c.372-14.307-1.3-17.094-10.869-18.209 3.716-.557 5.481-1.207 7.246-2.6 3.345-2.51 4.274-6.04 4.274-15.237 0-10.776-1.394-14.864-6.132-17.744-3.994-2.416-3.994-2.416-25.362-2.416h-45.615zm18.86-31.215v-15.236h26.57c8.546.093 8.825.093 10.126.65 1.95.837 2.694 2.602 2.694 6.782 0 3.902-.558 5.76-2.044 6.69-1.3.928-1.3.928-10.777 1.114z"/><path d="M517.663-87.722l-7.99-4.087c.372-3.066.558-8.083.558-13.936 0-18.208-1.3-24.34-6.131-28.056-4.738-3.623-10.498-4.274-36.418-4.274s-31.68.65-36.418 4.274c-4.738 3.623-6.131 9.848-6.131 27.592 0 17.837 1.393 24.061 6.131 27.685 4.738 3.53 10.591 4.273 35.768 4.273 27.034 0 32.33-.65 37.44-4.645l6.038 4.366zm-45.615-26.941l-7.525 13.099 19.974 10.59c-3.251.558-6.689.651-15.979.651-16.35 0-19.23-.279-21.739-2.23-2.137-1.672-2.787-4.366-2.787-11.984 0-7.804.372-11.427 1.486-13.564 1.951-3.623 3.624-3.901 22.204-3.901 17.28 0 19.324.278 21.46 2.787 1.673 2.043 2.23 5.574 2.23 14.771 0 .372 0 1.022-.093 1.95z"/></g><path d="M525.634-106.163a50.688 50.688 0 0 1-50.688 50.688 50.688 50.688 0 0 1-50.688-50.688 50.688 50.688 0 0 1 50.688-50.687 50.688 50.688 0 0 1 50.688 50.687z" opacity=".171" fill="#fff"/><g fill="#fff"><circle r="50.688" cy="-448.722" cx="561.253" opacity=".171"/><circle cx="478.616" cy="-448.722" r="50.688" opacity=".171"/></g><path d="M899.766-315.243a111.406 111.406 0 0 0-111.405 111.406A111.406 111.406 0 0 0 899.766-92.431a111.406 111.406 0 0 0 111.407-111.406 111.406 111.406 0 0 0-111.407-111.406zm28.347 78.166c26.998 0 32.997.678 37.932 4.452 5.032 3.87 6.387 10.257 6.387 29.223 0 6.096-.194 11.322-.58 14.515l8.321 4.258-7.45 13.74-6.29-4.548c-5.323 4.161-10.838 4.839-38.997 4.839-14.675 0-23.045-.243-28.437-1.101v.133h-19.353v-3.387c0-7.257-.388-9.58-1.936-11.225-1.355-1.548-2.806-1.741-10.935-1.741h-27.771v16.353H819.36v-64.543h47.512c20.696 0 22.15.003 25.597 2.026 4.842-2.498 12.578-2.994 35.644-2.994zm0 16.74c-19.353 0-21.095.291-23.127 4.065-1.161 2.226-1.549 6-1.549 14.128 0 7.935.678 10.74 2.904 12.483 2.612 2.032 5.612 2.322 22.643 2.322 9.676 0 13.257-.096 16.644-.677l-20.805-11.031 7.838-13.644 20.03 12.676c.097-.968.097-1.645.097-2.032 0-9.58-.58-13.257-2.322-15.386-2.226-2.612-4.355-2.903-22.353-2.903zm-89.109.388v15.87h27.675c9.87-.194 9.87-.194 11.225-1.162 1.548-.967 2.129-2.902 2.129-6.966 0-4.355-.775-6.194-2.807-7.065-1.354-.58-1.644-.58-10.547-.677z" fill="#8c4b1a"/><path opacity=".171" fill="#fff" d="M1202.347-1125.51h653.067v105.699h-653.067z"/><path d="M937.516-1024.877A111.406 111.406 0 0 0 826.11-913.47a111.406 111.406 0 0 0 111.406 111.406 111.406 111.406 0 0 0 111.406-111.406 111.406 111.406 0 0 0-111.406-111.406zm28.346 78.167c26.998 0 32.997.677 37.932 4.451 5.032 3.87 6.387 10.257 6.387 29.223 0 6.097-.193 11.322-.58 14.516l8.322 4.257-7.452 13.74-6.289-4.547c-5.322 4.16-10.838 4.838-38.997 4.838-14.675 0-23.044-.243-28.437-1.1v.133h-19.353v-3.388c0-7.257-.387-9.58-1.935-11.224-1.355-1.549-2.807-1.742-10.935-1.742h-27.771v16.354H857.11v-64.543h47.512c20.695 0 22.149.003 25.596 2.025 4.843-2.497 12.579-2.993 35.644-2.993zm0 16.74c-19.353 0-21.095.29-23.127 4.065-1.16 2.225-1.548 5.999-1.548 14.127 0 7.935.678 10.741 2.903 12.483 2.613 2.032 5.612 2.323 22.643 2.323 9.677 0 13.257-.097 16.644-.678l-20.805-11.031 7.839-13.644 20.03 12.676c.097-.968.097-1.645.097-2.032 0-9.58-.581-13.257-2.323-15.386-2.225-2.612-4.354-2.903-22.353-2.903zm-89.108.387v15.87h27.675c9.87-.193 9.87-.194 11.224-1.161 1.549-.968 2.13-2.903 2.13-6.967 0-4.355-.775-6.193-2.807-7.064-1.355-.58-1.645-.581-10.547-.678z" fill="#003380"/><text y="-813.689" x="1141.463" style="line-height:1.25;-inkscape-font-specification:'Microgramma D Extended'" font-weight="400" font-size="46.039" font-family="Microgramma D Extended" letter-spacing="1.679" word-spacing=".127" stroke-width=".265" transform="translate(-66.69 -108.215)"><tspan style="-inkscape-font-specification:'Microgramma D Extended'" y="-813.689" x="1141.463">RAFAEL</tspan></text><text style="line-height:1.25;-inkscape-font-specification:'Microgramma D Extended'" x="1139.866" y="-766.574" font-weight="400" font-size="46.039" font-family="Microgramma D Extended" letter-spacing="1.679" word-spacing=".127" stroke-width=".265" transform="translate(-66.69 -108.215)"><tspan x="1139.866" y="-766.574" style="-inkscape-font-specification:'Microgramma D Extended Bold'" font-weight="700">QUINTANILHA</tspan></text><path d="M937.516-1024.877A111.406 111.406 0 0 0 826.11-913.47a111.406 111.406 0 0 0 111.406 111.406 111.406 111.406 0 0 0 111.406-111.406 111.406 111.406 0 0 0-111.406-111.406zm28.346 78.167c26.998 0 32.997.677 37.932 4.451 5.032 3.87 6.387 10.257 6.387 29.223 0 6.097-.193 11.322-.58 14.516l8.322 4.257-7.452 13.74-6.289-4.547c-5.322 4.16-10.838 4.838-38.997 4.838-14.675 0-23.044-.243-28.437-1.1v.133h-19.353v-3.388c0-7.257-.387-9.58-1.935-11.224-1.355-1.549-2.807-1.742-10.935-1.742h-27.771v16.354H857.11v-64.543h47.512c20.695 0 22.149.003 25.596 2.025 4.843-2.497 12.579-2.993 35.644-2.993zm0 16.74c-19.353 0-21.095.29-23.127 4.065-1.16 2.225-1.548 5.999-1.548 14.127 0 7.935.678 10.741 2.903 12.483 2.613 2.032 5.612 2.323 22.643 2.323 9.677 0 13.257-.097 16.644-.678l-20.805-11.031 7.839-13.644 20.03 12.676c.097-.968.097-1.645.097-2.032 0-9.58-.581-13.257-2.323-15.386-2.225-2.612-4.354-2.903-22.353-2.903zm-89.108.387v15.87h27.675c9.87-.193 9.87-.194 11.224-1.161 1.549-.968 2.13-2.903 2.13-6.967 0-4.355-.775-6.193-2.807-7.064-1.355-.58-1.645-.581-10.547-.678z" fill="#003380"/><text style="line-height:1.25;-inkscape-font-specification:'Microgramma D Extended'" x="1141.463" y="-813.689" font-weight="400" font-size="46.039" font-family="Microgramma D Extended" letter-spacing="1.679" word-spacing=".127" stroke-width=".265" transform="translate(-66.69 -108.215)"><tspan x="1141.463" y="-813.689" style="-inkscape-font-specification:'Microgramma D Extended'">RAFAEL</tspan></text><text y="-766.574" x="1139.866" style="line-height:1.25;-inkscape-font-specification:'Microgramma D Extended'" font-weight="400" font-size="46.039" font-family="Microgramma D Extended" letter-spacing="1.679" word-spacing=".127" fill="#003380" stroke-width=".265" transform="translate(-66.69 -108.215)"><tspan style="-inkscape-font-specification:'Microgramma D Extended Bold'" y="-766.574" x="1139.866" font-weight="700">QUINTANILHA</tspan></text><path d="M1287.913-320.187h724.915V-33.29h-724.915z" fill="#fff"/><path d="M1412.114-290.032a111.406 111.406 0 0 0-111.405 111.406A111.406 111.406 0 0 0 1412.114-67.22a111.406 111.406 0 0 0 111.407-111.406 111.406 111.406 0 0 0-111.407-111.406zm28.347 78.167c26.998 0 32.997.677 37.932 4.451 5.032 3.87 6.387 10.257 6.387 29.223 0 6.096-.194 11.322-.58 14.515l8.321 4.258-7.451 13.74-6.29-4.548c-5.322 4.161-10.837 4.839-38.996 4.839-14.675 0-23.045-.243-28.437-1.101v.134h-19.353v-3.388c0-7.257-.387-9.58-1.936-11.225-1.354-1.548-2.806-1.741-10.934-1.741h-27.772v16.354h-19.644v-64.544h47.512c20.696 0 22.15.003 25.597 2.026 4.842-2.498 12.578-2.993 35.644-2.993zm0 16.74c-19.353 0-21.095.29-23.127 4.064-1.161 2.226-1.549 6-1.549 14.128 0 7.935.678 10.741 2.904 12.483 2.612 2.032 5.612 2.322 22.643 2.322 9.676 0 13.257-.096 16.644-.677l-20.805-11.031 7.838-13.644 20.03 12.676c.097-.968.097-1.645.097-2.032 0-9.58-.58-13.257-2.322-15.386-2.226-2.612-4.355-2.903-22.353-2.903zm-89.109.387v15.87h27.675c9.87-.194 9.87-.194 11.225-1.162 1.548-.967 2.129-2.902 2.129-6.966 0-4.355-.775-6.193-2.807-7.064-1.354-.581-1.644-.581-10.547-.678z" fill="#003380"/><g style="line-height:1.25;-inkscape-font-specification:'Microgramma D Extended'" aria-label="RAFAEL" font-weight="400" font-size="46.039" font-family="Microgramma D Extended" letter-spacing="1.679" word-spacing=".127" stroke-width=".265"><path style="-inkscape-font-specification:'Microgramma D Extended'" d="M1551.673-187.06h4.097v-11.832h15.055c6.63.046 6.63.046 8.057.277 1.934.276 3.039 1.427 3.269 3.407.184 1.197.184 1.243.184 5.202v2.946h4.097v-4.373c0-5.249-.184-6.17-1.38-7.413-.783-.828-1.658-1.289-3.131-1.565 4.051-.829 5.064-2.44 5.064-8.103 0-2.532-.276-4.051-.967-5.479-.967-1.887-2.808-3.084-5.294-3.406-2.118-.277-2.164-.277-9.899-.369h-19.152zm4.097-15.423v-11.694h15.055c7.412 0 9.254.184 10.497 1.105.92.645 1.473 2.348 1.473 4.512 0 1.565-.276 3.315-.644 4.006-.829 1.565-2.717 2.071-7.643 2.071h-3.683zM1626.444-187.06h4.558l-17.357-30.708h-6.537l-17.403 30.708h4.65l3.637-6.491h24.815zm-5.57-10.082h-20.902l9.668-17.035h1.657zM1634.52-187.06h4.098v-13.765h23.618v-3.591h-23.618v-9.76h24.723v-3.592h-28.82zM1698.862-187.06h4.557l-17.356-30.708h-6.538l-17.403 30.708h4.65l3.637-6.491h24.815zm-5.571-10.082h-20.902l9.668-17.035h1.658zM1706.938-187.06h30.11v-3.59h-26.012v-10.544h24.86v-3.59h-24.86v-9.393h25.966v-3.59h-30.064zM1741.618-217.768v30.708h28.314v-3.59h-24.217v-27.118z"/></g><g style="line-height:1.25;-inkscape-font-specification:'Microgramma D Extended'" aria-label="QUINTANILHA" font-weight="700" font-size="46.039" font-family="Microgramma D Extended" letter-spacing="1.679" word-spacing=".127" stroke-width=".265"><path style="-inkscape-font-specification:'Microgramma D Extended Bold'" d="M1595.148-146.16l-3.96-2.026c.185-1.52.277-4.005.277-6.906 0-9.023-.644-12.062-3.039-13.904-2.348-1.795-5.202-2.117-18.047-2.117s-15.7.322-18.047 2.117c-2.348 1.796-3.039 4.88-3.039 13.674 0 8.84.69 11.924 3.039 13.72 2.348 1.75 5.248 2.118 17.725 2.118 13.397 0 16.021-.323 18.554-2.302l2.992 2.163zm-22.605-13.352l-3.73 6.492 9.9 5.249c-1.612.276-3.316.322-7.92.322-8.103 0-9.53-.138-10.773-1.105-1.059-.829-1.381-2.164-1.381-5.94 0-3.867.184-5.662.737-6.721.966-1.795 1.795-1.934 11.003-1.934 8.563 0 9.576.139 10.635 1.382.829 1.012 1.105 2.762 1.105 7.32 0 .184 0 .506-.046.967zM1597.202-170.653v14.134c.046 4.972.046 4.972.092 5.985.23 4.512.737 6.4 2.256 7.965 2.302 2.44 5.985 3.085 17.725 3.085 7.136 0 10.221-.185 12.983-.737 3.5-.737 5.847-3.177 6.354-6.676.276-2.164.322-2.67.46-9.622v-14.134h-9.346v14.134c0 .645-.046 2.118-.092 3.177-.138 2.9-.368 3.729-1.105 4.512-1.013 1.105-2.946 1.38-9.392 1.38-7.965 0-9.76-.506-10.267-2.946-.23-1.243-.23-1.289-.322-6.123v-14.134zM1642.947-170.653v30.708h9.806v-30.708zM1658.743-170.653v30.708h9.53l-.23-22.927h1.013l16.16 22.927h16.252v-30.708h-9.53l.23 22.882h-.967l-16.068-22.882zM1705.287-170.653v7.827h13.674v22.881h9.806v-22.881h13.674v-7.827zM1775.417-139.945h10.635l-16.067-30.708h-14.549l-16.252 30.708h10.681l2.625-5.202h20.303zm-5.893-11.924h-13.72l5.94-11.648h1.841zM1789.13-170.653v30.708h9.53l-.23-22.927h1.013l16.16 22.927h16.251v-30.708h-9.53l.23 22.882h-.966l-16.068-22.882zM1837.838-170.653v30.708h9.806v-30.708zM1853.634-170.653v30.708h31.63v-7.826h-21.823v-22.882zM1889.123-170.653v30.708h9.807v-11.095h21.132v11.095h9.806v-30.708h-9.806v11.003h-21.132v-11.003zM1969.14-139.945h10.634l-16.067-30.708h-14.549l-16.252 30.708h10.681l2.625-5.202h20.303zm-5.894-11.924h-13.72l5.94-11.648h1.841z"/></g><path d="M1412.114-290.032a111.406 111.406 0 0 0-111.405 111.406A111.406 111.406 0 0 0 1412.114-67.22a111.406 111.406 0 0 0 111.407-111.406 111.406 111.406 0 0 0-111.407-111.406zm28.347 78.167c26.998 0 32.997.677 37.932 4.451 5.032 3.87 6.387 10.257 6.387 29.223 0 6.096-.194 11.322-.58 14.515l8.321 4.258-7.451 13.74-6.29-4.548c-5.322 4.161-10.837 4.839-38.996 4.839-14.675 0-23.045-.243-28.437-1.101v.134h-19.353v-3.388c0-7.257-.387-9.58-1.936-11.225-1.354-1.548-2.806-1.741-10.934-1.741h-27.772v16.354h-19.644v-64.544h47.512c20.696 0 22.15.003 25.597 2.026 4.842-2.498 12.578-2.993 35.644-2.993zm0 16.74c-19.353 0-21.095.29-23.127 4.064-1.161 2.226-1.549 6-1.549 14.128 0 7.935.678 10.741 2.904 12.483 2.612 2.032 5.612 2.322 22.643 2.322 9.676 0 13.257-.096 16.644-.677l-20.805-11.031 7.838-13.644 20.03 12.676c.097-.968.097-1.645.097-2.032 0-9.58-.58-13.257-2.322-15.386-2.226-2.612-4.355-2.903-22.353-2.903zm-89.109.387v15.87h27.675c9.87-.194 9.87-.194 11.225-1.162 1.548-.967 2.129-2.902 2.129-6.966 0-4.355-.775-6.193-2.807-7.064-1.354-.581-1.644-.581-10.547-.678z" fill="#003380"/><g style="line-height:1.25;-inkscape-font-specification:'Microgramma D Extended'" aria-label="RAFAEL" font-weight="400" font-size="46.039" font-family="Microgramma D Extended" letter-spacing="1.679" word-spacing=".127" stroke-width=".265"><path style="-inkscape-font-specification:'Microgramma D Extended'" d="M1551.673-187.06h4.097v-11.832h15.055c6.63.046 6.63.046 8.057.277 1.934.276 3.039 1.427 3.269 3.407.184 1.197.184 1.243.184 5.202v2.946h4.097v-4.373c0-5.249-.184-6.17-1.38-7.413-.783-.828-1.658-1.289-3.131-1.565 4.051-.829 5.064-2.44 5.064-8.103 0-2.532-.276-4.051-.967-5.479-.967-1.887-2.808-3.084-5.294-3.406-2.118-.277-2.164-.277-9.899-.369h-19.152zm4.097-15.423v-11.694h15.055c7.412 0 9.254.184 10.497 1.105.92.645 1.473 2.348 1.473 4.512 0 1.565-.276 3.315-.644 4.006-.829 1.565-2.717 2.071-7.643 2.071h-3.683zM1626.444-187.06h4.558l-17.357-30.708h-6.537l-17.403 30.708h4.65l3.637-6.491h24.815zm-5.57-10.082h-20.902l9.668-17.035h1.657zM1634.52-187.06h4.098v-13.765h23.618v-3.591h-23.618v-9.76h24.723v-3.592h-28.82zM1698.862-187.06h4.557l-17.356-30.708h-6.538l-17.403 30.708h4.65l3.637-6.491h24.815zm-5.571-10.082h-20.902l9.668-17.035h1.658zM1706.938-187.06h30.11v-3.59h-26.012v-10.544h24.86v-3.59h-24.86v-9.393h25.966v-3.59h-30.064zM1741.618-217.768v30.708h28.314v-3.59h-24.217v-27.118z"/></g><g style="line-height:1.25;-inkscape-font-specification:'Microgramma D Extended'" aria-label="QUINTANILHA" font-weight="700" font-size="46.039" font-family="Microgramma D Extended" letter-spacing="1.679" word-spacing=".127" fill="#003380" stroke-width=".265"><path style="-inkscape-font-specification:'Microgramma D Extended Bold'" d="M1595.148-146.16l-3.96-2.026c.185-1.52.277-4.005.277-6.906 0-9.023-.644-12.062-3.039-13.904-2.348-1.795-5.202-2.117-18.047-2.117s-15.7.322-18.047 2.117c-2.348 1.796-3.039 4.88-3.039 13.674 0 8.84.69 11.924 3.039 13.72 2.348 1.75 5.248 2.118 17.725 2.118 13.397 0 16.021-.323 18.554-2.302l2.992 2.163zm-22.605-13.352l-3.73 6.492 9.9 5.249c-1.612.276-3.316.322-7.92.322-8.103 0-9.53-.138-10.773-1.105-1.059-.829-1.381-2.164-1.381-5.94 0-3.867.184-5.662.737-6.721.966-1.795 1.795-1.934 11.003-1.934 8.563 0 9.576.139 10.635 1.382.829 1.012 1.105 2.762 1.105 7.32 0 .184 0 .506-.046.967zM1597.202-170.653v14.134c.046 4.972.046 4.972.092 5.985.23 4.512.737 6.4 2.256 7.965 2.302 2.44 5.985 3.085 17.725 3.085 7.136 0 10.221-.185 12.983-.737 3.5-.737 5.847-3.177 6.354-6.676.276-2.164.322-2.67.46-9.622v-14.134h-9.346v14.134c0 .645-.046 2.118-.092 3.177-.138 2.9-.368 3.729-1.105 4.512-1.013 1.105-2.946 1.38-9.392 1.38-7.965 0-9.76-.506-10.267-2.946-.23-1.243-.23-1.289-.322-6.123v-14.134zM1642.947-170.653v30.708h9.806v-30.708zM1658.743-170.653v30.708h9.53l-.23-22.927h1.013l16.16 22.927h16.252v-30.708h-9.53l.23 22.882h-.967l-16.068-22.882zM1705.287-170.653v7.827h13.674v22.881h9.806v-22.881h13.674v-7.827zM1775.417-139.945h10.635l-16.067-30.708h-14.549l-16.252 30.708h10.681l2.625-5.202h20.303zm-5.893-11.924h-13.72l5.94-11.648h1.841zM1789.13-170.653v30.708h9.53l-.23-22.927h1.013l16.16 22.927h16.251v-30.708h-9.53l.23 22.882h-.966l-16.068-22.882zM1837.838-170.653v30.708h9.806v-30.708zM1853.634-170.653v30.708h31.63v-7.826h-21.823v-22.882zM1889.123-170.653v30.708h9.807v-11.095h21.132v11.095h9.806v-30.708h-9.806v11.003h-21.132v-11.003zM1969.14-139.945h10.634l-16.067-30.708h-14.549l-16.252 30.708h10.681l2.625-5.202h20.303zm-5.894-11.924h-13.72l5.94-11.648h1.841z"/></g><path d="M1287.913-320.187h724.915V-33.29h-724.915z" fill="#fff"/><path d="M1412.114-290.032a111.406 111.406 0 0 0-111.405 111.406A111.406 111.406 0 0 0 1412.114-67.22a111.406 111.406 0 0 0 111.407-111.406 111.406 111.406 0 0 0-111.407-111.406zm28.347 78.167c26.998 0 32.997.677 37.932 4.451 5.032 3.87 6.387 10.257 6.387 29.223 0 6.096-.194 11.322-.58 14.515l8.321 4.258-7.451 13.74-6.29-4.548c-5.322 4.161-10.837 4.839-38.996 4.839-14.675 0-23.045-.243-28.437-1.101v.134h-19.353v-3.388c0-7.257-.387-9.58-1.936-11.225-1.354-1.548-2.806-1.741-10.934-1.741h-27.772v16.354h-19.644v-64.544h47.512c20.696 0 22.15.003 25.597 2.026 4.842-2.498 12.578-2.993 35.644-2.993zm0 16.74c-19.353 0-21.095.29-23.127 4.064-1.161 2.226-1.549 6-1.549 14.128 0 7.935.678 10.741 2.904 12.483 2.612 2.032 5.612 2.322 22.643 2.322 9.676 0 13.257-.096 16.644-.677l-20.805-11.031 7.838-13.644 20.03 12.676c.097-.968.097-1.645.097-2.032 0-9.58-.58-13.257-2.322-15.386-2.226-2.612-4.355-2.903-22.353-2.903zm-89.109.387v15.87h27.675c9.87-.194 9.87-.194 11.225-1.162 1.548-.967 2.129-2.902 2.129-6.966 0-4.355-.775-6.193-2.807-7.064-1.354-.581-1.644-.581-10.547-.678z" fill="#003380"/><g style="line-height:1.25;-inkscape-font-specification:'Microgramma D Extended'" aria-label="RAFAEL" font-weight="400" font-size="46.039" font-family="Microgramma D Extended" letter-spacing="1.679" word-spacing=".127" stroke-width=".265"><path style="-inkscape-font-specification:'Microgramma D Extended'" d="M1551.673-187.06h4.097v-11.832h15.055c6.63.046 6.63.046 8.057.277 1.934.276 3.039 1.427 3.269 3.407.184 1.197.184 1.243.184 5.202v2.946h4.097v-4.373c0-5.249-.184-6.17-1.38-7.413-.783-.828-1.658-1.289-3.131-1.565 4.051-.829 5.064-2.44 5.064-8.103 0-2.532-.276-4.051-.967-5.479-.967-1.887-2.808-3.084-5.294-3.406-2.118-.277-2.164-.277-9.899-.369h-19.152zm4.097-15.423v-11.694h15.055c7.412 0 9.254.184 10.497 1.105.92.645 1.473 2.348 1.473 4.512 0 1.565-.276 3.315-.644 4.006-.829 1.565-2.717 2.071-7.643 2.071h-3.683zM1626.444-187.06h4.558l-17.357-30.708h-6.537l-17.403 30.708h4.65l3.637-6.491h24.815zm-5.57-10.082h-20.902l9.668-17.035h1.657zM1634.52-187.06h4.098v-13.765h23.618v-3.591h-23.618v-9.76h24.723v-3.592h-28.82zM1698.862-187.06h4.557l-17.356-30.708h-6.538l-17.403 30.708h4.65l3.637-6.491h24.815zm-5.571-10.082h-20.902l9.668-17.035h1.658zM1706.938-187.06h30.11v-3.59h-26.012v-10.544h24.86v-3.59h-24.86v-9.393h25.966v-3.59h-30.064zM1741.618-217.768v30.708h28.314v-3.59h-24.217v-27.118z"/></g><g style="line-height:1.25;-inkscape-font-specification:'Microgramma D Extended'" aria-label="QUINTANILHA" font-weight="700" font-size="46.039" font-family="Microgramma D Extended" letter-spacing="1.679" word-spacing=".127" stroke-width=".265"><path style="-inkscape-font-specification:'Microgramma D Extended Bold'" d="M1595.148-146.16l-3.96-2.026c.185-1.52.277-4.005.277-6.906 0-9.023-.644-12.062-3.039-13.904-2.348-1.795-5.202-2.117-18.047-2.117s-15.7.322-18.047 2.117c-2.348 1.796-3.039 4.88-3.039 13.674 0 8.84.69 11.924 3.039 13.72 2.348 1.75 5.248 2.118 17.725 2.118 13.397 0 16.021-.323 18.554-2.302l2.992 2.163zm-22.605-13.352l-3.73 6.492 9.9 5.249c-1.612.276-3.316.322-7.92.322-8.103 0-9.53-.138-10.773-1.105-1.059-.829-1.381-2.164-1.381-5.94 0-3.867.184-5.662.737-6.721.966-1.795 1.795-1.934 11.003-1.934 8.563 0 9.576.139 10.635 1.382.829 1.012 1.105 2.762 1.105 7.32 0 .184 0 .506-.046.967zM1597.202-170.653v14.134c.046 4.972.046 4.972.092 5.985.23 4.512.737 6.4 2.256 7.965 2.302 2.44 5.985 3.085 17.725 3.085 7.136 0 10.221-.185 12.983-.737 3.5-.737 5.847-3.177 6.354-6.676.276-2.164.322-2.67.46-9.622v-14.134h-9.346v14.134c0 .645-.046 2.118-.092 3.177-.138 2.9-.368 3.729-1.105 4.512-1.013 1.105-2.946 1.38-9.392 1.38-7.965 0-9.76-.506-10.267-2.946-.23-1.243-.23-1.289-.322-6.123v-14.134zM1642.947-170.653v30.708h9.806v-30.708zM1658.743-170.653v30.708h9.53l-.23-22.927h1.013l16.16 22.927h16.252v-30.708h-9.53l.23 22.882h-.967l-16.068-22.882zM1705.287-170.653v7.827h13.674v22.881h9.806v-22.881h13.674v-7.827zM1775.417-139.945h10.635l-16.067-30.708h-14.549l-16.252 30.708h10.681l2.625-5.202h20.303zm-5.893-11.924h-13.72l5.94-11.648h1.841zM1789.13-170.653v30.708h9.53l-.23-22.927h1.013l16.16 22.927h16.251v-30.708h-9.53l.23 22.882h-.966l-16.068-22.882zM1837.838-170.653v30.708h9.806v-30.708zM1853.634-170.653v30.708h31.63v-7.826h-21.823v-22.882zM1889.123-170.653v30.708h9.807v-11.095h21.132v11.095h9.806v-30.708h-9.806v11.003h-21.132v-11.003zM1969.14-139.945h10.634l-16.067-30.708h-14.549l-16.252 30.708h10.681l2.625-5.202h20.303zm-5.894-11.924h-13.72l5.94-11.648h1.841z"/></g><path d="M1412.114-290.032a111.406 111.406 0 0 0-111.405 111.406A111.406 111.406 0 0 0 1412.114-67.22a111.406 111.406 0 0 0 111.407-111.406 111.406 111.406 0 0 0-111.407-111.406zm28.347 78.167c26.998 0 32.997.677 37.932 4.451 5.032 3.87 6.387 10.257 6.387 29.223 0 6.096-.194 11.322-.58 14.515l8.321 4.258-7.451 13.74-6.29-4.548c-5.322 4.161-10.837 4.839-38.996 4.839-14.675 0-23.045-.243-28.437-1.101v.134h-19.353v-3.388c0-7.257-.387-9.58-1.936-11.225-1.354-1.548-2.806-1.741-10.934-1.741h-27.772v16.354h-19.644v-64.544h47.512c20.696 0 22.15.003 25.597 2.026 4.842-2.498 12.578-2.993 35.644-2.993zm0 16.74c-19.353 0-21.095.29-23.127 4.064-1.161 2.226-1.549 6-1.549 14.128 0 7.935.678 10.741 2.904 12.483 2.612 2.032 5.612 2.322 22.643 2.322 9.676 0 13.257-.096 16.644-.677l-20.805-11.031 7.838-13.644 20.03 12.676c.097-.968.097-1.645.097-2.032 0-9.58-.58-13.257-2.322-15.386-2.226-2.612-4.355-2.903-22.353-2.903zm-89.109.387v15.87h27.675c9.87-.194 9.87-.194 11.225-1.162 1.548-.967 2.129-2.902 2.129-6.966 0-4.355-.775-6.193-2.807-7.064-1.354-.581-1.644-.581-10.547-.678z" fill="#003380"/><g style="line-height:1.25;-inkscape-font-specification:'Microgramma D Extended'" aria-label="RAFAEL" font-weight="400" font-size="46.039" font-family="Microgramma D Extended" letter-spacing="1.679" word-spacing=".127" stroke-width=".265"><path style="-inkscape-font-specification:'Microgramma D Extended'" d="M1551.673-187.06h4.097v-11.832h15.055c6.63.046 6.63.046 8.057.277 1.934.276 3.039 1.427 3.269 3.407.184 1.197.184 1.243.184 5.202v2.946h4.097v-4.373c0-5.249-.184-6.17-1.38-7.413-.783-.828-1.658-1.289-3.131-1.565 4.051-.829 5.064-2.44 5.064-8.103 0-2.532-.276-4.051-.967-5.479-.967-1.887-2.808-3.084-5.294-3.406-2.118-.277-2.164-.277-9.899-.369h-19.152zm4.097-15.423v-11.694h15.055c7.412 0 9.254.184 10.497 1.105.92.645 1.473 2.348 1.473 4.512 0 1.565-.276 3.315-.644 4.006-.829 1.565-2.717 2.071-7.643 2.071h-3.683zM1626.444-187.06h4.558l-17.357-30.708h-6.537l-17.403 30.708h4.65l3.637-6.491h24.815zm-5.57-10.082h-20.902l9.668-17.035h1.657zM1634.52-187.06h4.098v-13.765h23.618v-3.591h-23.618v-9.76h24.723v-3.592h-28.82zM1698.862-187.06h4.557l-17.356-30.708h-6.538l-17.403 30.708h4.65l3.637-6.491h24.815zm-5.571-10.082h-20.902l9.668-17.035h1.658zM1706.938-187.06h30.11v-3.59h-26.012v-10.544h24.86v-3.59h-24.86v-9.393h25.966v-3.59h-30.064zM1741.618-217.768v30.708h28.314v-3.59h-24.217v-27.118z"/></g><g style="line-height:1.25;-inkscape-font-specification:'Microgramma D Extended'" aria-label="QUINTANILHA" font-weight="700" font-size="46.039" font-family="Microgramma D Extended" letter-spacing="1.679" word-spacing=".127" fill="#003380" stroke-width=".265"><path style="-inkscape-font-specification:'Microgramma D Extended Bold'" d="M1595.148-146.16l-3.96-2.026c.185-1.52.277-4.005.277-6.906 0-9.023-.644-12.062-3.039-13.904-2.348-1.795-5.202-2.117-18.047-2.117s-15.7.322-18.047 2.117c-2.348 1.796-3.039 4.88-3.039 13.674 0 8.84.69 11.924 3.039 13.72 2.348 1.75 5.248 2.118 17.725 2.118 13.397 0 16.021-.323 18.554-2.302l2.992 2.163zm-22.605-13.352l-3.73 6.492 9.9 5.249c-1.612.276-3.316.322-7.92.322-8.103 0-9.53-.138-10.773-1.105-1.059-.829-1.381-2.164-1.381-5.94 0-3.867.184-5.662.737-6.721.966-1.795 1.795-1.934 11.003-1.934 8.563 0 9.576.139 10.635 1.382.829 1.012 1.105 2.762 1.105 7.32 0 .184 0 .506-.046.967zM1597.202-170.653v14.134c.046 4.972.046 4.972.092 5.985.23 4.512.737 6.4 2.256 7.965 2.302 2.44 5.985 3.085 17.725 3.085 7.136 0 10.221-.185 12.983-.737 3.5-.737 5.847-3.177 6.354-6.676.276-2.164.322-2.67.46-9.622v-14.134h-9.346v14.134c0 .645-.046 2.118-.092 3.177-.138 2.9-.368 3.729-1.105 4.512-1.013 1.105-2.946 1.38-9.392 1.38-7.965 0-9.76-.506-10.267-2.946-.23-1.243-.23-1.289-.322-6.123v-14.134zM1642.947-170.653v30.708h9.806v-30.708zM1658.743-170.653v30.708h9.53l-.23-22.927h1.013l16.16 22.927h16.252v-30.708h-9.53l.23 22.882h-.967l-16.068-22.882zM1705.287-170.653v7.827h13.674v22.881h9.806v-22.881h13.674v-7.827zM1775.417-139.945h10.635l-16.067-30.708h-14.549l-16.252 30.708h10.681l2.625-5.202h20.303zm-5.893-11.924h-13.72l5.94-11.648h1.841zM1789.13-170.653v30.708h9.53l-.23-22.927h1.013l16.16 22.927h16.251v-30.708h-9.53l.23 22.882h-.966l-16.068-22.882zM1837.838-170.653v30.708h9.806v-30.708zM1853.634-170.653v30.708h31.63v-7.826h-21.823v-22.882zM1889.123-170.653v30.708h9.807v-11.095h21.132v11.095h9.806v-30.708h-9.806v11.003h-21.132v-11.003zM1969.14-139.945h10.634l-16.067-30.708h-14.549l-16.252 30.708h10.681l2.625-5.202h20.303zm-5.894-11.924h-13.72l5.94-11.648h1.841z"/></g><g stroke-width="5.819"><path d="M2279.06-874.733a19.144 19.144 0 0 0-19.145 19.145 19.144 19.144 0 0 0 19.145 19.144 19.144 19.144 0 0 0 19.144-19.144 19.144 19.144 0 0 0-19.144-19.145zm4.87 13.433c4.64 0 5.671.116 6.52.765.864.665 1.097 1.762 1.097 5.021 0 1.048-.034 1.946-.1 2.495l1.43.731-1.28 2.362-1.081-.782c-.915.715-1.863.832-6.702.832-2.521 0-3.96-.042-4.886-.19v.023h-3.326v-.582c0-1.247-.067-1.646-.333-1.929-.232-.266-.482-.299-1.879-.299h-4.772v2.81h-3.376v-11.09h8.165c3.556 0 3.806 0 4.399.347.832-.429 2.161-.514 6.125-.514zm0 2.876c-3.325 0-3.624.05-3.974.699-.199.382-.266 1.03-.266 2.428 0 1.363.117 1.845.5 2.145.448.349.964.399 3.89.399 1.663 0 2.279-.017 2.86-.117l-3.575-1.895 1.347-2.345 3.442 2.178c.017-.166.017-.282.017-.349 0-1.646-.1-2.278-.4-2.644-.382-.449-.747-.499-3.84-.499zm-15.312.067v2.727h4.756c1.696-.033 1.696-.033 1.929-.2.266-.166.365-.498.365-1.197 0-.748-.133-1.064-.482-1.214-.233-.1-.282-.1-1.812-.116z" fill="#003380"/><g aria-label="RAFAEL" style="line-height:1.25;-inkscape-font-specification:'Microgramma D Extended'" font-weight="400" font-size="46.039" font-family="Microgramma D Extended" letter-spacing="1.679" word-spacing=".127" stroke-width="1.54"><path d="M2303.042-857.038h.704v-2.033h2.587c1.14.008 1.14.008 1.384.048.333.047.523.245.562.585.032.206.032.214.032.894v.506h.704v-.751c0-.902-.032-1.06-.237-1.274-.135-.142-.285-.221-.538-.269.696-.142.87-.42.87-1.392 0-.435-.048-.697-.166-.942-.166-.324-.483-.53-.91-.585-.364-.048-.372-.048-1.701-.064h-3.291zm.704-2.65v-2.01h2.587c1.274 0 1.59.032 1.804.19.158.111.253.404.253.776 0 .269-.048.57-.11.688-.143.27-.468.356-1.314.356h-.633zM2315.89-857.038h.784l-2.983-5.277h-1.123l-2.99 5.277h.798l.625-1.115h4.265zm-.957-1.732h-3.591l1.661-2.927h.285zM2317.279-857.038h.704v-2.365h4.058v-.617h-4.058v-1.677h4.248v-.618h-4.952zM2328.335-857.038h.783l-2.982-5.277h-1.124l-2.99 5.277h.799l.625-1.115h4.264zm-.957-1.732h-3.592l1.661-2.927h.285zM2329.723-857.038h5.174v-.617h-4.47v-1.811h4.272v-.617h-4.272v-1.614h4.462v-.618h-5.166zM2335.682-862.315v5.277h4.866v-.617h-4.161v-4.66z" style="-inkscape-font-specification:'Microgramma D Extended'"/></g><g aria-label="QUINTANILHA" style="line-height:1.25;-inkscape-font-specification:'Microgramma D Extended'" font-weight="700" font-size="46.039" font-family="Microgramma D Extended" letter-spacing="1.679" word-spacing=".127" stroke-width="1.54"><path d="M2310.513-850.01l-.68-.347c.03-.261.047-.689.047-1.187 0-1.55-.111-2.073-.522-2.39-.404-.308-.894-.363-3.102-.363-2.207 0-2.698.055-3.101.364-.404.308-.522.838-.522 2.35 0 1.518.118 2.048.522 2.357.403.3.902.364 3.046.364 2.302 0 2.753-.055 3.188-.396l.514.372zm-3.885-2.294l-.64 1.116 1.7.902c-.277.047-.57.055-1.36.055-1.393 0-1.638-.024-1.852-.19-.182-.142-.237-.371-.237-1.02 0-.665.031-.973.126-1.155.167-.309.309-.333 1.891-.333 1.472 0 1.646.024 1.828.238.142.174.19.474.19 1.258 0 .031 0 .087-.008.166zM2310.866-854.218v2.429c.008.854.008.854.015 1.028.04.775.127 1.1.388 1.369.396.42 1.029.53 3.046.53 1.226 0 1.756-.032 2.231-.127.601-.126 1.005-.546 1.092-1.147.047-.372.055-.459.079-1.653v-2.43h-1.606v2.43c0 .11-.008.364-.016.546-.024.498-.063.64-.19.775-.174.19-.506.237-1.614.237-1.368 0-1.677-.087-1.764-.506-.04-.214-.04-.222-.055-1.052v-2.43zM2318.726-854.218v5.277h1.686v-5.277zM2321.441-854.218v5.277h1.638l-.04-3.94h.174l2.777 3.94h2.793v-5.277h-1.638l.04 3.932h-.166l-2.761-3.932zM2329.44-854.218v1.345h2.349v3.932h1.685v-3.932h2.35v-1.345zM2341.49-848.941h1.828l-2.76-5.277h-2.501l-2.793 5.277h1.836l.45-.894h3.49zm-1.012-2.05h-2.358l1.02-2h.317zM2343.847-854.218v5.277h1.638l-.04-3.94h.174l2.777 3.94h2.793v-5.277h-1.638l.04 3.932h-.166l-2.761-3.932zM2352.217-854.218v5.277h1.685v-5.277zM2354.932-854.218v5.277h5.435v-1.345h-3.75v-3.932zM2361.03-854.218v5.277h1.685v-1.907h3.632v1.907h1.685v-5.277h-1.685v1.89h-3.632v-1.89zM2374.78-848.941h1.828l-2.761-5.277h-2.5l-2.793 5.277h1.835l.451-.894h3.49zm-1.012-2.05h-2.358l1.02-2h.317z" style="-inkscape-font-specification:'Microgramma D Extended Bold'"/></g><path d="M2279.06-874.733a19.144 19.144 0 0 0-19.145 19.145 19.144 19.144 0 0 0 19.145 19.144 19.144 19.144 0 0 0 19.144-19.144 19.144 19.144 0 0 0-19.144-19.145zm4.87 13.433c4.64 0 5.671.116 6.52.765.864.665 1.097 1.762 1.097 5.021 0 1.048-.034 1.946-.1 2.495l1.43.731-1.28 2.362-1.081-.782c-.915.715-1.863.832-6.702.832-2.521 0-3.96-.042-4.886-.19v.023h-3.326v-.582c0-1.247-.067-1.646-.333-1.929-.232-.266-.482-.299-1.879-.299h-4.772v2.81h-3.376v-11.09h8.165c3.556 0 3.806 0 4.399.347.832-.429 2.161-.514 6.125-.514zm0 2.876c-3.325 0-3.624.05-3.974.699-.199.382-.266 1.03-.266 2.428 0 1.363.117 1.845.5 2.145.448.349.964.399 3.89.399 1.663 0 2.279-.017 2.86-.117l-3.575-1.895 1.347-2.345 3.442 2.178c.017-.166.017-.282.017-.349 0-1.646-.1-2.278-.4-2.644-.382-.449-.747-.499-3.84-.499zm-15.312.067v2.727h4.756c1.696-.033 1.696-.033 1.929-.2.266-.166.365-.498.365-1.197 0-.748-.133-1.064-.482-1.214-.233-.1-.282-.1-1.812-.116z" fill="#003380"/><g aria-label="RAFAEL" style="line-height:1.25;-inkscape-font-specification:'Microgramma D Extended'" font-weight="400" font-size="46.039" font-family="Microgramma D Extended" letter-spacing="1.679" word-spacing=".127" stroke-width="1.54"><path d="M2303.042-857.038h.704v-2.033h2.587c1.14.008 1.14.008 1.384.048.333.047.523.245.562.585.032.206.032.214.032.894v.506h.704v-.751c0-.902-.032-1.06-.237-1.274-.135-.142-.285-.221-.538-.269.696-.142.87-.42.87-1.392 0-.435-.048-.697-.166-.942-.166-.324-.483-.53-.91-.585-.364-.048-.372-.048-1.701-.064h-3.291zm.704-2.65v-2.01h2.587c1.274 0 1.59.032 1.804.19.158.111.253.404.253.776 0 .269-.048.57-.11.688-.143.27-.468.356-1.314.356h-.633zM2315.89-857.038h.784l-2.983-5.277h-1.123l-2.99 5.277h.798l.625-1.115h4.265zm-.957-1.732h-3.591l1.661-2.927h.285zM2317.279-857.038h.704v-2.365h4.058v-.617h-4.058v-1.677h4.248v-.618h-4.952zM2328.335-857.038h.783l-2.982-5.277h-1.124l-2.99 5.277h.799l.625-1.115h4.264zm-.957-1.732h-3.592l1.661-2.927h.285zM2329.723-857.038h5.174v-.617h-4.47v-1.811h4.272v-.617h-4.272v-1.614h4.462v-.618h-5.166zM2335.682-862.315v5.277h4.866v-.617h-4.161v-4.66z" style="-inkscape-font-specification:'Microgramma D Extended'"/></g><g aria-label="QUINTANILHA" style="line-height:1.25;-inkscape-font-specification:'Microgramma D Extended'" font-weight="700" font-size="46.039" font-family="Microgramma D Extended" letter-spacing="1.679" word-spacing=".127" fill="#003380" stroke-width="1.54"><path d="M2310.513-850.01l-.68-.347c.03-.261.047-.689.047-1.187 0-1.55-.111-2.073-.522-2.39-.404-.308-.894-.363-3.102-.363-2.207 0-2.698.055-3.101.364-.404.308-.522.838-.522 2.35 0 1.518.118 2.048.522 2.357.403.3.902.364 3.046.364 2.302 0 2.753-.055 3.188-.396l.514.372zm-3.885-2.294l-.64 1.116 1.7.902c-.277.047-.57.055-1.36.055-1.393 0-1.638-.024-1.852-.19-.182-.142-.237-.371-.237-1.02 0-.665.031-.973.126-1.155.167-.309.309-.333 1.891-.333 1.472 0 1.646.024 1.828.238.142.174.19.474.19 1.258 0 .031 0 .087-.008.166zM2310.866-854.218v2.429c.008.854.008.854.015 1.028.04.775.127 1.1.388 1.369.396.42 1.029.53 3.046.53 1.226 0 1.756-.032 2.231-.127.601-.126 1.005-.546 1.092-1.147.047-.372.055-.459.079-1.653v-2.43h-1.606v2.43c0 .11-.008.364-.016.546-.024.498-.063.64-.19.775-.174.19-.506.237-1.614.237-1.368 0-1.677-.087-1.764-.506-.04-.214-.04-.222-.055-1.052v-2.43zM2318.726-854.218v5.277h1.686v-5.277zM2321.441-854.218v5.277h1.638l-.04-3.94h.174l2.777 3.94h2.793v-5.277h-1.638l.04 3.932h-.166l-2.761-3.932zM2329.44-854.218v1.345h2.349v3.932h1.685v-3.932h2.35v-1.345zM2341.49-848.941h1.828l-2.76-5.277h-2.501l-2.793 5.277h1.836l.45-.894h3.49zm-1.012-2.05h-2.358l1.02-2h.317zM2343.847-854.218v5.277h1.638l-.04-3.94h.174l2.777 3.94h2.793v-5.277h-1.638l.04 3.932h-.166l-2.761-3.932zM2352.217-854.218v5.277h1.685v-5.277zM2354.932-854.218v5.277h5.435v-1.345h-3.75v-3.932zM2361.03-854.218v5.277h1.685v-1.907h3.632v1.907h1.685v-5.277h-1.685v1.89h-3.632v-1.89zM2374.78-848.941h1.828l-2.761-5.277h-2.5l-2.793 5.277h1.835l.451-.894h3.49zm-1.012-2.05h-2.358l1.02-2h.317z" style="-inkscape-font-specification:'Microgramma D Extended Bold'"/></g></g><path d="M1256.455 208.306h724.915v286.897h-724.915z"/><path d="M1004.788 377.397a67.733 67.733 0 0 0-67.733 67.734 67.733 67.733 0 0 0 67.733 67.733 67.733 67.733 0 0 0 67.734-67.733 67.733 67.733 0 0 0-67.734-67.734zm17.235 47.525c16.414 0 20.061.412 23.062 2.706 3.06 2.353 3.883 6.236 3.883 17.767 0 3.707-.118 6.884-.353 8.825l5.06 2.589-4.53 8.354-3.825-2.765c-3.235 2.53-6.589 2.941-23.71 2.941-8.921 0-14.01-.147-17.288-.669v.081h-11.767v-2.059c0-4.412-.235-5.824-1.177-6.825-.823-.94-1.706-1.059-6.648-1.059h-16.884v9.943h-11.944V425.51h28.887c12.583 0 13.467.002 15.562 1.232 2.945-1.519 7.648-1.82 21.672-1.82zm0 10.178c-11.767 0-12.826.176-14.061 2.47-.706 1.354-.942 3.648-.942 8.59 0 4.824.412 6.53 1.765 7.59 1.589 1.235 3.413 1.412 13.767 1.412 5.883 0 8.06-.06 10.12-.412l-12.65-6.707 4.766-8.295 12.178 7.706c.059-.588.059-1 .059-1.235 0-5.824-.353-8.06-1.412-9.354-1.353-1.589-2.647-1.765-13.59-1.765zm-54.177.235v9.649h16.826c6-.118 6-.118 6.824-.707.942-.588 1.295-1.764 1.295-4.235 0-2.648-.471-3.766-1.707-4.295-.823-.353-1-.353-6.412-.412z" fill="#003380" stroke-width="1.645"/><path d="M1157.417 1229.362h135.467v135.467h-135.467zM1632.058 2572.895h135.467v135.467h-135.467z" fill="#fff"/><path d="M1699.791 2574.483a66.146 66.146 0 0 0-66.146 66.146 66.146 66.146 0 0 0 66.146 66.146 66.146 66.146 0 0 0 66.146-66.146 66.146 66.146 0 0 0-66.146-66.146zm16.83 46.41c16.03 0 19.592.403 22.522 2.643 2.988 2.298 3.792 6.09 3.792 17.351 0 3.62-.115 6.722-.345 8.618l4.942 2.528-4.424 8.159-3.735-2.7c-3.16 2.47-6.435 2.872-23.154 2.872-8.713 0-13.682-.144-16.884-.654v.08h-11.49v-2.012c0-4.309-.23-5.687-1.15-6.664-.804-.92-1.666-1.034-6.492-1.034h-16.489v9.71h-11.663v-38.322h28.21c12.287 0 13.15.002 15.197 1.203 2.875-1.483 7.468-1.778 21.163-1.778zm0 9.94c-11.49 0-12.524.172-13.73 2.413-.69 1.321-.92 3.562-.92 8.388 0 4.711.402 6.377 1.723 7.411 1.552 1.207 3.333 1.38 13.444 1.38 5.746 0 7.872-.058 9.883-.403l-12.353-6.55 4.654-8.1 11.893 7.526c.057-.575.057-.977.057-1.207 0-5.687-.345-7.87-1.379-9.135-1.321-1.55-2.585-1.723-13.272-1.723zm-52.907.23v9.422h16.432c5.86-.115 5.86-.115 6.665-.69.919-.574 1.263-1.723 1.263-4.136 0-2.585-.46-3.677-1.666-4.194-.804-.345-.976-.345-6.262-.403z" fill="#003380" stroke-width="1.684"/><g fill="#003380"><path d="M1504.618 2329.947v135.467h135.467v-135.467zm12.896 39.79h105.244v57.406h-105.244z"/><path d="M1572.352 2331.535a66.146 66.146 0 0 0-66.146 66.145 66.146 66.146 0 0 0 66.146 66.146 66.146 66.146 0 0 0 66.146-66.146 66.146 66.146 0 0 0-66.146-66.145zm16.83 46.41c16.03 0 19.592.402 22.522 2.643 2.987 2.298 3.792 6.09 3.792 17.35 0 3.62-.115 6.723-.345 8.62l4.941 2.527-4.424 8.158-3.734-2.7c-3.16 2.47-6.435 2.873-23.154 2.873-8.713 0-13.682-.145-16.884-.654v.08h-11.49v-2.012c0-4.31-.23-5.688-1.15-6.665-.804-.919-1.666-1.034-6.492-1.034h-16.49v9.71h-11.662v-38.322h28.21c12.287 0 13.15 0 15.197 1.203 2.875-1.483 7.468-1.777 21.163-1.777zm0 9.94c-11.49 0-12.525.172-13.731 2.413-.69 1.321-.92 3.562-.92 8.388 0 4.71.403 6.377 1.724 7.411 1.551 1.207 3.332 1.38 13.444 1.38 5.745 0 7.871-.058 9.882-.403l-12.352-6.55 4.653-8.1 11.893 7.526c.058-.575.058-.977.058-1.207 0-5.688-.345-7.87-1.379-9.135-1.321-1.551-2.585-1.724-13.272-1.724zm-52.907.23v9.422h16.431c5.86-.115 5.86-.115 6.665-.69.92-.574 1.264-1.723 1.264-4.136 0-2.586-.46-3.677-1.666-4.194-.805-.345-.977-.345-6.263-.403z"/></g><path d="M1595.66 2966.41a66.146 66.146 0 0 0-66.147 66.146 66.146 66.146 0 0 0 66.146 66.146 66.146 66.146 0 0 0 66.146-66.146 66.146 66.146 0 0 0-66.146-66.146zm16.83 46.41c16.029 0 19.591.403 22.521 2.643 2.988 2.298 3.792 6.09 3.792 17.351 0 3.62-.115 6.722-.345 8.618l4.942 2.528-4.424 8.159-3.735-2.7c-3.16 2.47-6.435 2.872-23.154 2.872-8.713 0-13.682-.144-16.884-.654v.08h-11.49v-2.011c0-4.31-.23-5.688-1.15-6.665-.804-.92-1.666-1.034-6.492-1.034h-16.489v9.71h-11.663v-38.322h28.21c12.287 0 13.15.002 15.197 1.203 2.875-1.483 7.468-1.778 21.163-1.778zm0 9.94c-11.491 0-12.525.172-13.732 2.413-.69 1.321-.92 3.562-.92 8.388 0 4.711.403 6.377 1.724 7.412 1.552 1.206 3.333 1.379 13.444 1.379 5.746 0 7.872-.058 9.883-.403l-12.353-6.55 4.654-8.1 11.893 7.526c.057-.575.057-.977.057-1.206 0-5.688-.345-7.871-1.379-9.135-1.321-1.552-2.585-1.724-13.272-1.724zm-52.908.23v9.422h16.432c5.86-.115 5.86-.115 6.665-.69.919-.574 1.263-1.723 1.263-4.136 0-2.585-.46-3.677-1.666-4.194-.804-.345-.976-.345-6.262-.403z" fill="#003380" stroke-width="1.684"/><g font-size="45.956" style="line-height:1.25;-inkscape-font-specification:'Microgramma D Extended'" aria-label="RAFAEL QUINTANILHA" font-weight="400" font-family="Microgramma D Extended" letter-spacing="2.037" word-spacing=".026" fill="#003380" stroke-width=".265"><path d="M1683.214 3047.882h4.09v-11.81h15.028c6.618.045 6.618.045 8.042.275 1.93.276 3.033 1.425 3.263 3.4.184 1.196.184 1.242.184 5.194v2.941h4.09v-4.366c0-5.239-.184-6.158-1.379-7.399-.78-.827-1.654-1.286-3.125-1.562 4.044-.827 5.056-2.436 5.056-8.088 0-2.528-.276-4.044-.966-5.47-.965-1.883-2.803-3.078-5.284-3.4-2.114-.276-2.16-.276-9.881-.367h-19.118zm4.09-15.395v-11.673h15.028c7.399 0 9.237.184 10.478 1.103.919.643 1.47 2.344 1.47 4.504 0 1.562-.275 3.309-.643 3.998-.827 1.562-2.711 2.068-7.629 2.068h-3.676zM1758.211 3047.882h4.55l-17.325-30.653h-6.526l-17.372 30.653h4.642l3.63-6.48h24.77zm-5.56-10.064h-20.864l9.65-17.004h1.655zM1766.634 3047.882h4.09v-13.74h23.575v-3.585h-23.575v-9.743h24.678v-3.584h-28.768zM1831.219 3047.882h4.55l-17.326-30.653h-6.526l-17.37 30.653h4.64l3.631-6.48h24.77zm-5.56-10.064h-20.865l9.651-17.004h1.654zM1839.642 3047.882h30.055v-3.585h-25.965v-10.523h24.816v-3.585h-24.816v-9.375h25.919v-3.585h-30.01zM1874.62 3017.23v30.652h28.262v-3.585h-24.172v-27.068z" style="-inkscape-font-specification:'Microgramma D Extended'"/><path d="M1965.717 3041.678l-3.952-2.022c.184-1.517.276-3.998.276-6.893 0-9.008-.644-12.04-3.034-13.88-2.343-1.791-5.193-2.113-18.014-2.113-12.822 0-15.671.322-18.015 2.114-2.344 1.792-3.033 4.871-3.033 13.649 0 8.823.69 11.902 3.033 13.695 2.344 1.746 5.239 2.114 17.693 2.114 13.373 0 15.993-.322 18.52-2.298l2.987 2.16zm-22.564-13.327l-3.723 6.48 9.88 5.239c-1.608.275-3.308.321-7.904.321-8.088 0-9.513-.138-10.753-1.103-1.057-.827-1.38-2.16-1.38-5.928 0-3.86.185-5.653.736-6.71.965-1.792 1.793-1.93 10.984-1.93 8.548 0 9.559.138 10.616 1.379.827 1.011 1.103 2.757 1.103 7.307 0 .184 0 .505-.046.965zM1968.128 3017.23v14.108c.046 4.963.046 4.963.092 5.974.23 4.504.735 6.388 2.252 7.95 2.298 2.436 5.974 3.08 17.693 3.08 7.123 0 10.202-.184 12.96-.736 3.492-.735 5.836-3.17 6.341-6.663.276-2.16.322-2.666.46-9.605v-14.108h-9.33v14.108c0 .643-.045 2.114-.091 3.17-.138 2.896-.368 3.723-1.103 4.505-1.011 1.103-2.941 1.378-9.375 1.378-7.95 0-9.743-.505-10.248-2.94-.23-1.242-.23-1.288-.322-6.113v-14.108zM2014.15 3017.23v30.652h9.79v-30.653zM2030.28 3017.23v30.652h9.512l-.23-22.886h1.011l16.13 22.886h16.223v-30.653h-9.512l.23 22.84h-.966l-16.038-22.84zM2077.1 3017.23v7.812h13.648v22.84h9.789v-22.84h13.649v-7.813zM2147.464 3047.882h10.615l-16.038-30.653h-14.522l-16.223 30.653h10.662l2.62-5.193h20.266zm-5.883-11.903h-13.695l5.929-11.626h1.838zM2161.512 3017.23v30.652h9.513l-.23-22.886h1.011l16.13 22.886h16.223v-30.653h-9.513l.23 22.84h-.965l-16.039-22.84zM2210.492 3017.23v30.652h9.789v-30.653zM2226.621 3017.23v30.652h31.572v-7.812h-21.783v-22.84zM2262.407 3017.23v30.652h9.789v-11.075h21.093v11.075h9.789v-30.653h-9.789v10.984h-21.093v-10.984zM2342.639 3047.882h10.615l-16.038-30.653h-14.522l-16.223 30.653h10.662l2.62-5.193h20.266zm-5.883-11.903h-13.695l5.929-11.626h1.838z" font-weight="700"/></g><path fill="#fff" d="M1387.042 3517.455h865.251v161.403h-865.251z"/><path d="M1473.943 3532.01a66.146 66.146 0 0 0-66.146 66.146 66.146 66.146 0 0 0 66.146 66.146 66.146 66.146 0 0 0 66.146-66.146 66.146 66.146 0 0 0-66.146-66.146zm16.83 46.41c16.03 0 19.592.403 22.522 2.644 2.987 2.298 3.792 6.09 3.792 17.35 0 3.62-.115 6.723-.345 8.619l4.941 2.528-4.424 8.158-3.734-2.7c-3.16 2.47-6.435 2.872-23.154 2.872-8.713 0-13.682-.144-16.884-.653v.079h-11.49v-2.011c0-4.31-.23-5.688-1.15-6.665-.804-.92-1.666-1.034-6.492-1.034h-16.49v9.71h-11.662v-38.322h28.21c12.287 0 13.15.002 15.197 1.203 2.875-1.483 7.468-1.777 21.163-1.777zm0 9.94c-11.49 0-12.525.172-13.731 2.413-.69 1.322-.92 3.562-.92 8.388 0 4.712.403 6.378 1.724 7.412 1.551 1.206 3.332 1.379 13.444 1.379 5.745 0 7.871-.057 9.882-.402l-12.352-6.55 4.654-8.1 11.892 7.525c.058-.574.058-.976.058-1.206 0-5.688-.345-7.871-1.38-9.135-1.32-1.551-2.585-1.724-13.27-1.724zm-52.907.23v9.422h16.432c5.86-.114 5.86-.115 6.664-.69.92-.574 1.264-1.723 1.264-4.136 0-2.585-.46-3.677-1.666-4.194-.805-.345-.977-.345-6.262-.402z" fill="#003380" stroke-width="1.684"/><path style="line-height:1.25;-inkscape-font-specification:'Microgramma D Extended'" d="M1561.498 3613.482h4.09v-11.81h15.028c6.617.046 6.617.046 8.042.275 1.93.276 3.033 1.425 3.263 3.401.184 1.195.184 1.241.184 5.193v2.941h4.09v-4.365c0-5.24-.184-6.158-1.379-7.4-.781-.826-1.654-1.286-3.125-1.562 4.044-.827 5.055-2.436 5.055-8.088 0-2.528-.276-4.044-.965-5.469-.965-1.884-2.803-3.079-5.285-3.4-2.114-.276-2.16-.276-9.88-.368h-19.118zm4.09-15.395v-11.673h15.028c7.398 0 9.237.184 10.478 1.103.919.644 1.47 2.344 1.47 4.504 0 1.563-.276 3.309-.643 3.998-.827 1.563-2.712 2.068-7.629 2.068h-3.676zM1636.495 3613.482h4.55l-17.326-30.652h-6.526l-17.37 30.652h4.64l3.631-6.48h24.77zm-5.56-10.064h-20.865l9.651-17.004h1.654zM1644.918 3613.482h4.09v-13.74h23.575v-3.585h-23.575v-9.743h24.678v-3.584h-28.768zM1709.503 3613.482h4.55l-17.326-30.652h-6.526l-17.371 30.652h4.641l3.63-6.48h24.771zm-5.561-10.064h-20.864l9.65-17.004h1.655zM1717.925 3613.482h30.055v-3.584h-25.965v-10.524h24.816v-3.585h-24.816v-9.375h25.92v-3.584h-30.01zM1752.903 3582.83v30.652h28.263v-3.584h-24.173v-27.068z" font-weight="400" font-size="45.956" font-family="Microgramma D Extended" letter-spacing="2.037" word-spacing=".026" fill="#003380"/><path style="line-height:1.25;-inkscape-font-specification:'Microgramma D Extended'" d="M1844 3607.278l-3.951-2.022c.183-1.516.275-3.998.275-6.893 0-9.007-.643-12.04-3.033-13.879-2.344-1.792-5.193-2.114-18.015-2.114-12.821 0-15.67.322-18.014 2.114-2.344 1.792-3.033 4.871-3.033 13.65 0 8.823.689 11.902 3.033 13.694 2.343 1.746 5.239 2.114 17.693 2.114 13.373 0 15.992-.322 18.52-2.298l2.987 2.16zm-22.564-13.327l-3.722 6.48 9.88 5.239c-1.608.276-3.308.322-7.904.322-8.088 0-9.513-.138-10.754-1.103-1.057-.828-1.378-2.16-1.378-5.929 0-3.86.184-5.652.735-6.71.965-1.792 1.792-1.93 10.983-1.93 8.548 0 9.56.138 10.616 1.38.827 1.01 1.103 2.757 1.103 7.306 0 .184 0 .506-.046.965zM1846.412 3582.83v14.108c.046 4.963.046 4.963.092 5.974.23 4.504.735 6.388 2.252 7.95 2.297 2.437 5.974 3.08 17.693 3.08 7.123 0 10.202-.184 12.96-.735 3.492-.736 5.835-3.171 6.341-6.664.276-2.16.322-2.665.46-9.605v-14.108h-9.33v14.108c0 .644-.045 2.114-.091 3.171-.138 2.895-.368 3.723-1.103 4.504-1.011 1.103-2.942 1.379-9.375 1.379-7.95 0-9.743-.506-10.249-2.942-.23-1.24-.23-1.286-.321-6.112v-14.108zM1892.434 3582.83v30.652h9.789v-30.652zM1908.563 3582.83v30.652h9.513l-.23-22.886h1.011l16.13 22.886h16.223v-30.652h-9.513l.23 22.84h-.965l-16.039-22.84zM1955.383 3582.83v7.812h13.65v22.84h9.788v-22.84h13.649v-7.812zM2025.747 3613.482h10.616l-16.039-30.652h-14.522l-16.222 30.652h10.662l2.62-5.193h20.266zm-5.882-11.902h-13.695l5.928-11.627h1.839zM2039.796 3582.83v30.652h9.513l-.23-22.886h1.011l16.13 22.886h16.223v-30.652h-9.513l.23 22.84h-.965l-16.039-22.84zM2088.776 3582.83v30.652h9.789v-30.652zM2104.905 3582.83v30.652h31.572v-7.812h-21.783v-22.84zM2140.69 3582.83v30.652h9.79v-11.075h21.093v11.075h9.789v-30.652h-9.789v10.983h-21.094v-10.983zM2220.922 3613.482h10.616l-16.039-30.652h-14.522l-16.222 30.652h10.662l2.62-5.193h20.266zm-5.882-11.902h-13.695l5.928-11.627h1.838z" font-weight="700" font-size="45.956" font-family="Microgramma D Extended" letter-spacing="2.037" word-spacing=".026" fill="#003380"/><path fill="none" d="M1387.042 3733.768h865.251v161.403h-865.251z"/><g><path d="M1473.943 3748.323a66.146 66.146 0 0 0-66.146 66.146 66.146 66.146 0 0 0 66.146 66.146 66.146 66.146 0 0 0 66.146-66.146 66.146 66.146 0 0 0-66.146-66.146zm16.83 46.41c16.03 0 19.592.403 22.522 2.643 2.987 2.299 3.792 6.09 3.792 17.351 0 3.62-.115 6.723-.345 8.619l4.941 2.527-4.424 8.159-3.734-2.7c-3.16 2.47-6.435 2.872-23.154 2.872-8.713 0-13.682-.144-16.884-.654v.08h-11.49v-2.011c0-4.31-.23-5.688-1.15-6.665-.804-.92-1.666-1.034-6.492-1.034h-16.49v9.71h-11.662v-38.322h28.21c12.287 0 13.15.002 15.197 1.203 2.875-1.483 7.468-1.778 21.163-1.778zm0 9.94c-11.49 0-12.525.172-13.731 2.413-.69 1.321-.92 3.562-.92 8.388 0 4.711.403 6.377 1.724 7.412 1.551 1.206 3.332 1.379 13.444 1.379 5.745 0 7.871-.058 9.882-.402l-12.352-6.55 4.654-8.101 11.892 7.526c.058-.574.058-.977.058-1.206 0-5.688-.345-7.871-1.38-9.135-1.32-1.552-2.585-1.724-13.27-1.724zm-52.907.23v9.422h16.432c5.86-.115 5.86-.115 6.664-.69.92-.574 1.264-1.723 1.264-4.136 0-2.585-.46-3.677-1.666-4.194-.805-.345-.977-.345-6.262-.402z" fill="#003380" stroke-width="1.684"/><g aria-label="RAFAEL QUINTANILHA" style="line-height:1.25;-inkscape-font-specification:'Microgramma D Extended'" font-weight="400" font-size="45.956" font-family="Microgramma D Extended" letter-spacing="2.037" word-spacing=".026" fill="#003380" stroke-width=".265"><path d="M1561.498 3829.795h4.09v-11.81h15.028c6.617.046 6.617.046 8.042.275 1.93.276 3.033 1.425 3.263 3.401.184 1.195.184 1.24.184 5.193v2.941h4.09v-4.366c0-5.239-.184-6.158-1.379-7.398-.781-.828-1.654-1.287-3.125-1.563 4.044-.827 5.055-2.436 5.055-8.088 0-2.528-.276-4.044-.965-5.469-.965-1.884-2.803-3.08-5.285-3.4-2.114-.276-2.16-.276-9.88-.368h-19.118zm4.09-15.395v-11.673h15.028c7.398 0 9.237.184 10.478 1.103.919.644 1.47 2.344 1.47 4.504 0 1.562-.276 3.309-.643 3.998-.827 1.562-2.712 2.068-7.629 2.068h-3.676zM1636.495 3829.795h4.55l-17.326-30.652h-6.526l-17.37 30.652h4.64l3.631-6.48h24.77zm-5.56-10.064h-20.865l9.651-17.004h1.654zM1644.917 3829.795h4.09v-13.74h23.576v-3.585h-23.575v-9.743h24.678v-3.584h-28.769zM1709.503 3829.795h4.55l-17.326-30.652h-6.526l-17.371 30.652h4.641l3.63-6.48h24.771zm-5.561-10.064h-20.864l9.65-17.004h1.655zM1717.925 3829.795h30.055v-3.584h-25.965v-10.524h24.816v-3.585h-24.816v-9.375h25.92v-3.584h-30.01zM1752.903 3799.143v30.652h28.263v-3.584h-24.173v-27.068z" style="-inkscape-font-specification:'Microgramma D Extended'"/><path d="M1844 3823.591l-3.952-2.022c.184-1.516.276-3.998.276-6.893 0-9.008-.643-12.04-3.033-13.879-2.344-1.792-5.193-2.114-18.015-2.114-12.821 0-15.67.322-18.014 2.114-2.344 1.792-3.033 4.871-3.033 13.649 0 8.823.689 11.903 3.033 13.695 2.343 1.746 5.239 2.114 17.693 2.114 13.373 0 15.992-.322 18.52-2.298l2.987 2.16zm-22.564-13.327l-3.722 6.48 9.88 5.239c-1.608.275-3.308.321-7.904.321-8.088 0-9.513-.137-10.754-1.103-1.057-.827-1.378-2.16-1.378-5.928 0-3.86.183-5.652.735-6.71.965-1.792 1.792-1.93 10.983-1.93 8.548 0 9.56.138 10.616 1.38.827 1.01 1.103 2.756 1.103 7.306 0 .184 0 .506-.046.965zM1846.412 3799.143v14.108c.046 4.963.046 4.963.092 5.974.23 4.504.735 6.388 2.251 7.95 2.298 2.436 5.975 3.08 17.694 3.08 7.123 0 10.202-.184 12.96-.736 3.492-.735 5.835-3.17 6.341-6.663.276-2.16.322-2.666.46-9.605v-14.108h-9.33v14.108c0 .643-.045 2.114-.091 3.171-.138 2.895-.368 3.722-1.103 4.504-1.011 1.103-2.942 1.378-9.375 1.378-7.95 0-9.743-.505-10.249-2.94-.23-1.242-.23-1.288-.321-6.113v-14.108zM1892.434 3799.143v30.652h9.789v-30.652zM1908.563 3799.143v30.652h9.513l-.23-22.886h1.011l16.13 22.886h16.223v-30.652h-9.513l.23 22.84h-.965l-16.039-22.84zM1955.383 3799.143v7.812h13.65v22.84h9.788v-22.84h13.649v-7.812zM2025.747 3829.795h10.616l-16.039-30.652h-14.522l-16.222 30.652h10.662l2.62-5.193h20.266zm-5.882-11.902h-13.695l5.928-11.627h1.838zM2039.796 3799.143v30.652h9.513l-.23-22.886h1.011l16.13 22.886h16.223v-30.652h-9.513l.23 22.84h-.965l-16.039-22.84zM2088.776 3799.143v30.652h9.789v-30.652zM2104.905 3799.143v30.652h31.572v-7.812h-21.784v-22.84zM2140.69 3799.143v30.652h9.79v-11.075h21.093v11.075h9.789v-30.652h-9.789v10.983h-21.094v-10.983zM2220.922 3829.795h10.616l-16.039-30.652h-14.522l-16.222 30.652h10.662l2.62-5.193h20.266zm-5.882-11.902h-13.695l5.928-11.627h1.838z" font-weight="700"/></g></g><flowRoot xml:space="preserve" style="line-height:1.25" transform="matrix(.23782 0 0 .23782 1634.164 2138.825)" font-style="normal" font-weight="400" font-size="192" font-family="sans-serif" letter-spacing="8.51" word-spacing=".11" fill="#003380" fill-opacity="1" stroke="none" stroke-width="1.113"><flowRegion font-size="192" fill="#003380" fill-opacity="1" stroke-width="1.238"><path d="M613.17 2898.647h2858.316v273.568H613.17z"/></flowRegion><flowPara style="-inkscape-font-specification:'Microgramma D Extended'" font-style="normal" font-variant="normal" font-weight="400" font-stretch="normal" font-size="192" font-family="Microgramma D Extended" fill="#003380" fill-opacity="1" stroke-width="1.238">RAFAEL<flowSpan font-weight="700" fill="#003380" fill-opacity="1" stroke-width="1.113">QUINTANILHA</flowSpan></flowPara></flowRoot><g stroke-width="1.684"><path d="M1595.66 3205.03a66.146 66.146 0 0 0-66.147 66.145 66.146 66.146 0 0 0 66.146 66.146 66.146 66.146 0 0 0 66.146-66.146 66.146 66.146 0 0 0-66.146-66.146zm16.83 46.41c16.029 0 19.591.402 22.521 2.643 2.988 2.298 3.792 6.09 3.792 17.35 0 3.62-.115 6.723-.345 8.619l4.942 2.528-4.424 8.158-3.735-2.7c-3.16 2.47-6.435 2.872-23.154 2.872-8.713 0-13.682-.144-16.884-.653v.08h-11.49v-2.012c0-4.31-.23-5.688-1.15-6.665-.804-.919-1.666-1.034-6.492-1.034h-16.489v9.71h-11.663v-38.322h28.21c12.287 0 13.15.002 15.197 1.203 2.875-1.483 7.468-1.777 21.163-1.777zm0 9.94c-11.491 0-12.525.172-13.732 2.412-.69 1.322-.92 3.562-.92 8.388 0 4.712.403 6.378 1.724 7.412 1.552 1.206 3.333 1.379 13.444 1.379 5.746 0 7.872-.057 9.883-.402l-12.353-6.55 4.654-8.1 11.893 7.525c.057-.574.057-.976.057-1.206 0-5.688-.345-7.871-1.379-9.135-1.321-1.551-2.585-1.724-13.272-1.724zm-52.908.229v9.423h16.432c5.86-.115 5.86-.116 6.665-.69.919-.575 1.263-1.723 1.263-4.137 0-2.585-.46-3.677-1.666-4.194-.804-.344-.976-.345-6.262-.402z" fill="#003380"/></g><g stroke-width="1.167"><path d="M562.558 3127.405h711.556v135.467H562.558z" fill="#fff"/><g style="line-height:1.25" aria-label="RAFAELQUINTANILHA" font-weight="400" font-size="192" font-family="sans-serif" letter-spacing="8.51" word-spacing=".11" fill="#003380" stroke-width="1.298"><path style="-inkscape-font-specification:'Microgramma D Extended'" d="M704.696 3208.189h3.482v-10.057h12.796c5.635.039 5.635.039 6.848.235 1.644.234 2.583 1.213 2.779 2.895.156 1.018.156 1.057.156 4.422v2.505h3.483v-3.718c0-4.461-.157-5.244-1.174-6.3-.665-.705-1.409-1.096-2.661-1.33 3.443-.705 4.304-2.075 4.304-6.888 0-2.152-.234-3.443-.821-4.656-.822-1.605-2.387-2.622-4.5-2.896-1.8-.235-1.84-.235-8.414-.313h-16.278zm3.482-13.11v-9.939h12.796c6.3 0 7.866.157 8.922.94.783.547 1.252 1.995 1.252 3.834 0 1.33-.234 2.818-.547 3.405-.705 1.33-2.31 1.76-6.496 1.76h-3.13zM768.555 3208.189h3.874l-14.752-26.101h-5.557l-14.791 26.1h3.952l3.091-5.517h21.092zm-4.734-8.57h-17.766l8.217-14.479h1.41zM775.727 3208.189h3.483v-11.7h20.074v-3.053H779.21v-8.296h21.014v-3.052h-24.497zM830.721 3208.189h3.874l-14.752-26.101h-5.557l-14.792 26.1h3.953l3.091-5.517h21.092zm-4.735-8.57h-17.765l8.217-14.479h1.41zM837.893 3208.189h25.592v-3.053h-22.11v-8.96h21.132v-3.053h-21.131v-7.983h22.07v-3.052h-25.553zM867.677 3182.088v26.1h24.066v-3.052H871.16v-23.048z" font-family="Microgramma D Extended"/><path d="M933.707 3202.906l-3.366-1.722c.157-1.291.235-3.404.235-5.87 0-7.67-.548-10.252-2.582-11.817-1.996-1.527-4.422-1.8-15.34-1.8s-13.344.273-15.34 1.8c-1.995 1.526-2.582 4.148-2.582 11.622 0 7.513.587 10.135 2.582 11.66 1.996 1.488 4.461 1.8 15.066 1.8 11.387 0 13.618-.273 15.77-1.956l2.544 1.84zm-19.214-11.348l-3.17 5.517 8.414 4.461c-1.37.235-2.818.274-6.73.274-6.888 0-8.101-.117-9.158-.94-.9-.703-1.174-1.838-1.174-5.047 0-3.287.157-4.813.627-5.713.821-1.526 1.526-1.644 9.352-1.644 7.278 0 8.14.118 9.04 1.174.704.861.939 2.348.939 6.222 0 .157 0 .43-.04.822zM935.76 3182.088v12.013c.039 4.226.039 4.226.078 5.087.196 3.835.626 5.44 1.917 6.77 1.957 2.074 5.087 2.622 15.066 2.622 6.065 0 8.687-.157 11.035-.626 2.974-.626 4.97-2.7 5.4-5.674.235-1.84.274-2.27.392-8.179v-12.013h-7.944v12.013c0 .548-.04 1.8-.078 2.7-.118 2.466-.313 3.17-.94 3.835-.86.94-2.504 1.174-7.982 1.174-6.77 0-8.296-.43-8.727-2.504-.195-1.057-.195-1.096-.274-5.205v-12.013zM974.948 3182.088v26.1h8.335v-26.1zM988.681 3182.088v26.1h8.1l-.195-19.487h.86l13.736 19.488h13.813v-26.101h-8.1l.196 19.448h-.822l-13.657-19.448zM1028.549 3182.088v6.652h11.622v19.449h8.335v-19.449h11.622v-6.652zM1088.464 3208.189h9.04l-13.658-26.101h-12.365l-13.814 26.1h9.079l2.23-4.421h17.257zm-5.01-10.136h-11.66l5.048-9.9h1.565zM1100.426 3182.088v26.1h8.1l-.195-19.487h.86l13.736 19.488h13.813v-26.101h-8.1l.196 19.448h-.822l-13.657-19.448zM1142.133 3182.088v26.1h8.335v-26.1zM1155.866 3182.088v26.1h26.884v-6.652H1164.2v-19.448zM1186.338 3182.088v26.1h8.335v-9.43h17.961v9.43h8.335v-26.1h-8.335v9.352h-17.961v-9.352zM1254.655 3208.189h9.04l-13.657-26.101h-12.366l-13.813 26.1h9.078l2.23-4.421h17.258zm-5.009-10.136h-11.66l5.047-9.9h1.565z" font-weight="700"/></g><path d="M629.663 3138.453a56.686 56.686 0 0 0-56.686 56.685 56.686 56.686 0 0 0 56.686 56.686 56.686 56.686 0 0 0 56.685-56.686 56.686 56.686 0 0 0-56.685-56.685zm14.423 39.772c13.737 0 16.79.345 19.3 2.265 2.56 1.97 3.25 5.22 3.25 14.87 0 3.102-.098 5.76-.295 7.385l4.234 2.167-3.791 6.991-3.2-2.314c-2.708 2.117-5.515 2.462-19.843 2.462-7.466 0-11.725-.124-14.469-.56v.068h-9.847v-1.724c0-3.693-.197-4.874-.985-5.711-.69-.788-1.428-.887-5.564-.887h-14.13v8.322h-9.996v-32.841h24.175c10.53 0 11.27.001 13.024 1.03 2.464-1.27 6.4-1.523 18.137-1.523zm0 8.518c-9.847 0-10.734.148-11.768 2.068-.59 1.133-.788 3.053-.788 7.189 0 4.037.345 5.465 1.478 6.351 1.33 1.034 2.855 1.182 11.521 1.182 4.924 0 6.745-.05 8.469-.345l-10.586-5.613 3.988-6.942 10.192 6.45c.05-.492.05-.837.05-1.034 0-4.874-.296-6.745-1.183-7.828-1.132-1.33-2.215-1.478-11.373-1.478zm-45.34.197v8.075h14.081c5.022-.098 5.022-.099 5.712-.59.787-.493 1.083-1.478 1.083-3.546 0-2.215-.394-3.15-1.428-3.594-.69-.295-.837-.296-5.367-.345z" fill="#003380" stroke-width="1.965"/></g><g stroke-width="1.167"><path d="M562.558 3315.43h711.556v135.467H562.558z" fill="none"/><g style="line-height:1.25" aria-label="RAFAELQUINTANILHA" font-weight="400" font-size="192" font-family="sans-serif" letter-spacing="8.51" word-spacing=".11" fill="#003380" stroke-width="1.298"><path style="-inkscape-font-specification:'Microgramma D Extended'" d="M704.696 3396.214h3.482v-10.057h12.796c5.635.04 5.635.04 6.848.235 1.644.235 2.583 1.213 2.779 2.896.156 1.017.156 1.057.156 4.422v2.504h3.483v-3.717c0-4.461-.157-5.244-1.174-6.3-.665-.705-1.409-1.096-2.661-1.33 3.443-.705 4.304-2.075 4.304-6.888 0-2.152-.234-3.444-.821-4.657-.822-1.604-2.387-2.621-4.5-2.895-1.8-.235-1.84-.235-8.414-.313h-16.278zm3.482-13.109v-9.94h12.796c6.3 0 7.866.157 8.922.94.783.548 1.252 1.996 1.252 3.835 0 1.33-.234 2.817-.547 3.404-.705 1.33-2.31 1.761-6.496 1.761h-3.13zM768.555 3396.214h3.874l-14.752-26.1h-5.557l-14.791 26.1h3.952l3.091-5.517h21.092zm-4.734-8.57h-17.766l8.217-14.478h1.41zM775.727 3396.214h3.483v-11.7h20.074v-3.052H779.21v-8.296h21.014v-3.052h-24.497zM830.721 3396.214h3.874l-14.752-26.1h-5.557l-14.792 26.1h3.953l3.091-5.517h21.092zm-4.735-8.57h-17.765l8.217-14.478h1.41zM837.893 3396.214h25.592v-3.052h-22.11v-8.961h21.132v-3.052h-21.131v-7.983h22.07v-3.052h-25.553zM867.677 3370.114v26.1h24.066v-3.052H871.16v-23.048z" font-family="Microgramma D Extended"/><path d="M933.707 3390.931l-3.366-1.721c.157-1.292.235-3.405.235-5.87 0-7.67-.548-10.252-2.582-11.818-1.996-1.526-4.422-1.8-15.34-1.8s-13.344.274-15.34 1.8c-1.995 1.526-2.582 4.148-2.582 11.622 0 7.514.587 10.135 2.582 11.661 1.996 1.487 4.461 1.8 15.066 1.8 11.387 0 13.618-.273 15.77-1.956l2.544 1.84zm-19.214-11.348l-3.17 5.518 8.414 4.46c-1.37.236-2.818.275-6.73.275-6.888 0-8.101-.118-9.158-.94-.9-.704-1.174-1.839-1.174-5.047 0-3.287.157-4.813.627-5.713.821-1.527 1.526-1.644 9.352-1.644 7.278 0 8.14.117 9.04 1.174.704.86.939 2.348.939 6.222 0 .156 0 .43-.04.822zM935.76 3370.114v12.013c.039 4.226.039 4.226.078 5.087.196 3.835.626 5.44 1.917 6.77 1.957 2.074 5.087 2.622 15.066 2.622 6.065 0 8.687-.157 11.035-.627 2.974-.626 4.97-2.7 5.4-5.674.235-1.839.274-2.27.392-8.178v-12.013h-7.944v12.013c0 .548-.04 1.8-.078 2.7-.118 2.465-.313 3.17-.94 3.835-.86.939-2.504 1.174-7.982 1.174-6.77 0-8.296-.43-8.727-2.505-.195-1.056-.195-1.095-.274-5.204v-12.013zM974.948 3370.114v26.1h8.335v-26.1zM988.681 3370.114v26.1h8.1l-.195-19.487h.86l13.736 19.487h13.813v-26.1h-8.1l.196 19.448h-.822l-13.657-19.448zM1028.549 3370.114v6.652h11.622v19.448h8.335v-19.448h11.622v-6.652zM1088.464 3396.214h9.04l-13.658-26.1h-12.365l-13.814 26.1h9.079l2.23-4.422h17.257zm-5.01-10.135h-11.66l5.048-9.9h1.565zM1100.426 3370.114v26.1h8.1l-.195-19.487h.86l13.736 19.487h13.813v-26.1h-8.1l.196 19.448h-.822l-13.657-19.448zM1142.133 3370.114v26.1h8.335v-26.1zM1155.866 3370.114v26.1h26.884v-6.652H1164.2v-19.448zM1186.338 3370.114v26.1h8.335v-9.43h17.961v9.43h8.335v-26.1h-8.335v9.352h-17.961v-9.352zM1254.655 3396.214h9.04l-13.657-26.1h-12.366l-13.813 26.1h9.078l2.23-4.422h17.258zm-5.009-10.135h-11.66l5.047-9.9h1.565z" font-weight="700"/></g><path d="M629.663 3326.478a56.686 56.686 0 0 0-56.686 56.686 56.686 56.686 0 0 0 56.686 56.686 56.686 56.686 0 0 0 56.685-56.686 56.686 56.686 0 0 0-56.685-56.686zm14.423 39.773c13.737 0 16.79.345 19.3 2.265 2.56 1.97 3.25 5.219 3.25 14.87 0 3.101-.098 5.76-.295 7.385l4.234 2.166-3.791 6.992-3.2-2.314c-2.708 2.117-5.515 2.462-19.843 2.462-7.466 0-11.725-.124-14.469-.56v.067h-9.847v-1.723c0-3.693-.197-4.874-.985-5.712-.69-.787-1.428-.886-5.564-.886h-14.13v8.321h-9.996v-32.84h24.175c10.53 0 11.27.001 13.024 1.03 2.464-1.27 6.4-1.523 18.137-1.523zm0 8.518c-9.847 0-10.734.148-11.768 2.068-.59 1.132-.788 3.053-.788 7.188 0 4.038.345 5.466 1.478 6.352 1.33 1.034 2.855 1.182 11.521 1.182 4.924 0 6.745-.05 8.469-.345l-10.586-5.613 3.988-6.942 10.192 6.45c.05-.493.05-.837.05-1.034 0-4.875-.296-6.746-1.183-7.829-1.132-1.33-2.215-1.477-11.373-1.477zm-45.34.197v8.075h14.081c5.022-.099 5.022-.099 5.712-.591.787-.493 1.083-1.477 1.083-3.545 0-2.216-.394-3.151-1.428-3.594-.69-.296-.837-.296-5.367-.345z" fill="#003380" stroke-width="1.965"/></g><g stroke-width="1.167"><path d="M561.825 2936.051H697.29v135.467H561.825z" fill="none"/><path d="M629.558 2947.099a56.686 56.686 0 0 0-56.686 56.685 56.686 56.686 0 0 0 56.686 56.686 56.686 56.686 0 0 0 56.686-56.686 56.686 56.686 0 0 0-56.686-56.685zm14.423 39.773c13.737 0 16.79.344 19.3 2.265 2.561 1.97 3.25 5.219 3.25 14.869 0 3.102-.098 5.76-.295 7.386l4.234 2.166-3.79 6.992-3.201-2.315c-2.708 2.117-5.515 2.462-19.843 2.462-7.466 0-11.725-.123-14.469-.56v.068h-9.847v-1.723c0-3.693-.197-4.875-.985-5.712-.69-.788-1.428-.886-5.564-.886h-14.13v8.321h-9.995v-32.84h24.175c10.53 0 11.27 0 13.024 1.03 2.464-1.271 6.4-1.523 18.136-1.523zm0 8.518c-9.847 0-10.733.147-11.767 2.068-.591 1.132-.788 3.052-.788 7.188 0 4.037.345 5.465 1.477 6.352 1.33 1.034 2.855 1.181 11.521 1.181 4.924 0 6.746-.049 8.469-.344l-10.586-5.613 3.988-6.943 10.192 6.45c.05-.492.05-.837.05-1.034 0-4.874-.296-6.745-1.182-7.828-1.133-1.33-2.216-1.477-11.374-1.477zm-45.34.196v8.075h14.081c5.022-.098 5.022-.098 5.712-.59.788-.493 1.083-1.477 1.083-3.545 0-2.216-.394-3.152-1.428-3.595-.69-.295-.837-.295-5.367-.345z" fill="#003380" stroke-width="1.965"/></g><g stroke-width="1.167"><path d="M561.825 2759.673H697.29v135.467H561.825z" fill="#fff"/><path d="M629.558 2770.72a56.686 56.686 0 0 0-56.686 56.686 56.686 56.686 0 0 0 56.686 56.686 56.686 56.686 0 0 0 56.686-56.686 56.686 56.686 0 0 0-56.686-56.685zm14.423 39.774c13.737 0 16.79.344 19.3 2.265 2.561 1.969 3.25 5.219 3.25 14.869 0 3.102-.098 5.76-.295 7.386l4.234 2.166-3.79 6.991-3.201-2.314c-2.708 2.117-5.515 2.462-19.843 2.462-7.466 0-11.725-.124-14.469-.56v.068h-9.847v-1.724c0-3.692-.197-4.874-.985-5.711-.69-.788-1.428-.886-5.564-.886h-14.13v8.32h-9.995v-32.84h24.175c10.53 0 11.27.002 13.024 1.03 2.464-1.27 6.4-1.522 18.136-1.522zm0 8.517c-9.847 0-10.733.148-11.767 2.068-.591 1.133-.788 3.053-.788 7.189 0 4.037.345 5.465 1.477 6.351 1.33 1.034 2.855 1.182 11.521 1.182 4.924 0 6.746-.049 8.469-.344l-10.586-5.613 3.988-6.943 10.192 6.45c.05-.492.05-.837.05-1.034 0-4.874-.296-6.745-1.182-7.828-1.133-1.33-2.216-1.478-11.374-1.478zm-45.34.197v8.075h14.081c5.022-.098 5.022-.098 5.712-.59.788-.493 1.083-1.478 1.083-3.545 0-2.216-.394-3.152-1.428-3.595-.69-.295-.837-.295-5.367-.345z" fill="#003380" stroke-width="1.965"/></g></g></svg>