<svg xmlns="http://www.w3.org/2000/svg" width="512" height="512" viewBox="0 0 135.467 135.467"><text style="line-height:1.25;-inkscape-font-specification:'Microgramma D Extended'" x="-43.405" y="128.366" font-weight="400" font-size="6.605" font-family="Microgramma D Extended" letter-spacing="4.691" word-spacing=".018" stroke-width=".265" transform="translate(-1519.326 -2322.888)"><tspan x="-43.405" y="128.366" style="-inkscape-font-specification:'Microgramma D Extended'">WEB DEVELOPMENT</tspan></text><g font-family="Microgramma D Extended"><g style="line-height:1.25;-inkscape-font-specification:'Microgramma D Extended Bold'" aria-label="RQ" font-weight="700" font-size="192" letter-spacing="-42.34" word-spacing=".11" stroke-width=".547"><path d="M-1347.938-1959.38h18.859v-15.7h26.662c7.804 0 9.198.185 10.498 1.671 1.487 1.58 1.858 3.81 1.858 10.777v3.252h18.58v-5.76c.372-14.307-1.3-17.094-10.869-18.21 3.716-.556 5.482-1.207 7.247-2.6 3.344-2.509 4.273-6.039 4.273-15.236 0-10.777-1.393-14.865-6.131-17.744-3.995-2.416-3.995-2.416-25.363-2.416h-45.614zm18.859-31.215v-15.236h26.57c8.547.093 8.825.093 10.126.65 1.95.836 2.694 2.601 2.694 6.782 0 3.902-.557 5.76-2.044 6.689-1.3.929-1.3.929-10.776 1.115z"/><path d="M-1193.547-1971.922l-7.99-4.088c.372-3.066.557-8.082.557-13.935 0-18.209-1.3-24.34-6.131-28.056-4.738-3.624-10.498-4.274-36.418-4.274s-31.68.65-36.417 4.274c-4.738 3.623-6.132 9.847-6.132 27.591 0 17.838 1.394 24.062 6.132 27.685 4.738 3.53 10.59 4.274 35.767 4.274 27.034 0 32.33-.65 37.44-4.645l6.038 4.366zm-45.615-26.942l-7.525 13.1 19.974 10.59c-3.252.558-6.69.65-15.98.65-16.35 0-19.23-.278-21.739-2.229-2.136-1.672-2.787-4.366-2.787-11.984 0-7.804.372-11.427 1.487-13.564 1.95-3.623 3.623-3.902 22.203-3.902 17.28 0 19.324.279 21.46 2.787 1.673 2.044 2.23 5.574 2.23 14.772 0 .371 0 1.021-.093 1.95z"/></g><g style="line-height:1.25;-inkscape-font-specification:'Microgramma D Extended'" aria-label="WEB DEVELOPMENT" font-weight="400" font-size="6.605" letter-spacing="4.691" word-spacing=".018" stroke-width=".265"><path style="-inkscape-font-specification:'Microgramma D Extended'" d="M-1347.938-1953.352l2.02 4.406h1.005l1.67-3.765 1.6 3.765h.997l2.074-4.406h-.64l-1.83 3.91h-.179l-1.658-3.91h-.733l-1.724 3.91h-.185l-1.783-3.91zM-1333.633-1948.946h4.32v-.515h-3.732v-1.513h3.567v-.515h-3.567v-1.348h3.725v-.515h-4.313zM-1324.207-1948.946h2.92c1.201 0 1.664-.08 1.915-.344.165-.171.244-.455.244-.904 0-.694-.191-.978-.713-1.064.41-.152.541-.39.541-.964 0-.29-.033-.45-.125-.615-.152-.284-.456-.455-.859-.488-.198-.014-.198-.014-1.004-.027h-2.92zm.588-2.51v-1.38h2.331c1.037.02 1.07.026 1.216.138.112.086.171.284.171.548 0 .298-.072.476-.23.575-.16.1-.35.119-1.157.119zm0 1.995v-1.48h2.331c1.19.02 1.19.02 1.368.145.132.093.191.284.191.588 0 .66-.178.747-1.559.747zM-1307.518-1948.946h3.085c1.241 0 1.578-.066 1.895-.363.33-.31.47-.866.47-1.843 0-1.037-.093-1.467-.384-1.777-.33-.35-.667-.423-2.028-.423h-3.038zm.588-.515v-3.376h2.437c.496 0 .687 0 .806.014.403.026.608.105.753.277.172.218.264.687.264 1.367 0 1.07-.191 1.546-.667 1.658-.244.06-.27.06-1.123.06zM-1296.815-1948.946h4.32v-.515h-3.732v-1.513h3.567v-.515h-3.567v-1.348h3.725v-.515h-4.313zM-1287.806-1953.352l2.484 4.406h.905l2.43-4.406h-.653l-2.127 3.864h-.211l-2.18-3.864zM-1277.048-1948.946h4.32v-.515h-3.732v-1.513h3.567v-.515h-3.567v-1.348h3.725v-.515h-4.313zM-1267.622-1953.352v4.406h4.062v-.515h-3.474v-3.89zM-1255.718-1953.365c-.383 0-1.143.02-1.407.033-.601.04-.826.1-1.05.264-.324.251-.43.72-.43 1.903 0 .713.027 1.122.1 1.413.079.357.363.634.72.713.33.073 1.083.106 2.258.106 1.348 0 1.837-.086 2.094-.357.245-.264.337-.76.337-1.842 0-.337-.02-.78-.046-1.004-.046-.47-.126-.694-.31-.872-.285-.284-.76-.357-2.266-.357zm-.344.528c1.13 0 1.467.014 1.803.066.298.047.456.179.496.43.04.198.066.726.066 1.222 0 .41-.033.885-.073 1.123-.053.264-.191.403-.449.449-.297.053-.905.086-1.552.086-.284 0-1.024-.02-1.262-.033-.489-.033-.667-.08-.786-.205-.138-.152-.185-.535-.185-1.513 0-.845.066-1.261.225-1.407.172-.158.62-.218 1.717-.218zM-1247.829-1948.946h.588v-1.658h2.2c.435 0 .693 0 .772-.007.582-.013.773-.066 1.01-.27.239-.199.331-.516.331-1.11 0-.602-.106-.932-.357-1.123-.27-.205-.27-.205-1.757-.238h-2.787zm.588-2.173v-1.718h2.2c1.103.02 1.169.033 1.347.166.132.099.165.244.165.7 0 .416-.046.581-.178.693-.179.146-.264.159-1.335.159zM-1237.823-1953.352v4.406h.588v-3.858h.258l2.483 3.858h.476l2.457-3.858h.244v3.858h.588v-4.406h-1.182l-2.345 3.739-2.391-3.739zM-1225.378-1948.946h4.32v-.515h-3.732v-1.513h3.566v-.515h-3.566v-1.348h3.725v-.515h-4.313zM-1215.953-1953.352v4.406h.588v-3.858h.132l3.838 3.858h.997v-4.406h-.587v3.864h-.14l-3.85-3.864zM-1205.374-1953.352v.515h2.213v3.89h.588v-3.89h2.2v-.515z"/></g></g><text y="128.366" x="-43.405" style="line-height:1.25;-inkscape-font-specification:'Microgramma D Extended'" font-weight="400" font-size="6.605" font-family="Microgramma D Extended" letter-spacing="4.691" word-spacing=".018" stroke-width=".265" transform="translate(-1519.326 -2322.888)"><tspan style="-inkscape-font-specification:'Microgramma D Extended'" y="128.366" x="-43.405">WEB DEVELOPMENT</tspan></text><text style="line-height:1.25;-inkscape-font-specification:'Microgramma D Extended Medium'" x="-51.584" y="235.323" font-weight="500" font-size="6.605" font-family="Microgramma D Extended" letter-spacing="5.821" word-spacing=".018" stroke-width=".265" transform="translate(-1519.326 -2322.888)"><tspan x="-51.584" y="235.323" style="-inkscape-font-specification:'Microgramma D Extended Medium'">WEB DEVELOPMENT</tspan></text><path style="line-height:1.25;-inkscape-font-specification:'Microgramma D Extended Bold'" d="M-1731.461-2174.42c-22.145 0-29.572.476-34.221 2.874-3.31-1.942-4.706-1.945-24.575-1.945h-45.615v60.963h18.86v-14.698h26.663c7.803 0 9.197.186 10.497 1.673 1.487 1.579 1.858 3.809 1.858 10.776v2.249h78.245c2.067-.664 3.582-1.545 5.076-2.713l6.039 4.366 7.153-13.192-7.99-4.088c.372-3.066.558-8.082.558-13.935 0-18.209-1.3-24.34-6.131-28.057-4.738-3.623-10.498-4.273-36.417-4.273zm0 16.072c17.28 0 19.323.279 21.46 2.787 1.672 2.044 2.23 5.574 2.23 14.771 0 .372 0 1.023-.093 1.952l-19.231-12.17-7.525 13.098 19.974 10.591c-3.252.558-6.69.65-15.98.65-16.35 0-19.23-.278-21.739-2.229-2.136-1.672-2.787-4.366-2.787-11.984 0-7.804.372-11.427 1.487-13.564 1.95-3.623 3.623-3.902 22.204-3.902zm-85.551.372h26.57c8.547.093 8.826.092 10.126.65 1.951.836 2.694 2.601 2.694 6.782 0 3.902-.557 5.76-2.044 6.689-1.3.929-1.3.929-10.776 1.115h-26.57z" font-weight="700" font-size="192" font-family="Microgramma D Extended" letter-spacing="-42.34" word-spacing=".11"/><text y="219.958" x="-316.46" style="line-height:1.25;-inkscape-font-specification:'Microgramma D Extended'" font-weight="400" font-size="6.605" font-family="Microgramma D Extended" letter-spacing="4.691" word-spacing=".018" stroke-width=".265" transform="translate(-1519.326 -2322.888)"><tspan style="-inkscape-font-specification:'Microgramma D Extended'" y="219.958" x="-316.46">WEB DEVELOPMENT</tspan></text><path d="M-2202.294-2716.79a111.406 111.406 0 0 0-111.406 111.406 111.406 111.406 0 0 0 111.406 111.406 111.406 111.406 0 0 0 111.406-111.406 111.406 111.406 0 0 0-111.406-111.406zm28.346 78.167c26.998 0 32.997.677 37.932 4.451 5.032 3.87 6.387 10.257 6.387 29.223 0 6.096-.194 11.322-.58 14.515l8.321 4.258-7.45 13.74-6.29-4.548c-5.322 4.161-10.838 4.839-38.997 4.839-14.675 0-23.044-.243-28.437-1.101v.134h-19.353v-3.388c0-7.257-.387-9.58-1.936-11.225-1.354-1.548-2.806-1.741-10.934-1.741h-27.772v16.354h-19.644v-64.544h47.513c20.695 0 22.149.003 25.596 2.026 4.842-2.498 12.578-2.993 35.644-2.993zm0 16.74c-19.353 0-21.095.29-23.127 4.064-1.161 2.226-1.548 6-1.548 14.128 0 7.935.677 10.741 2.903 12.483 2.613 2.032 5.612 2.322 22.643 2.322 9.676 0 13.257-.096 16.644-.677l-20.805-11.031 7.838-13.644 20.03 12.676c.097-.968.097-1.645.097-2.032 0-9.58-.58-13.257-2.322-15.386-2.226-2.612-4.355-2.903-22.353-2.903zm-89.109.387v15.87h27.675c9.87-.194 9.87-.194 11.225-1.162 1.548-.967 2.129-2.902 2.129-6.966 0-4.355-.774-6.193-2.807-7.064-1.354-.581-1.644-.581-10.547-.678z" opacity=".57" fill="#0000d4"/><path d="M-1954.94-2713.23a111.406 111.406 0 0 0-111.405 111.405 111.406 111.406 0 0 0 111.405 111.406 111.406 111.406 0 0 0 111.406-111.406 111.406 111.406 0 0 0-111.406-111.406zm28.346 78.166c26.998 0 32.998.677 37.933 4.451 5.032 3.87 6.387 10.257 6.387 29.223 0 6.096-.194 11.322-.581 14.515l8.322 4.258-7.451 13.74-6.29-4.548c-5.322 4.161-10.838 4.839-38.997 4.839-14.674 0-23.044-.243-28.436-1.1v.133h-19.353v-3.388c0-7.257-.388-9.58-1.936-11.224-1.355-1.549-2.806-1.742-10.935-1.742h-27.771v16.354h-19.644v-64.544h47.512c20.695 0 22.15.003 25.596 2.026 4.843-2.497 12.579-2.993 35.644-2.993zm0 16.74c-19.353 0-21.094.29-23.126 4.064-1.162 2.226-1.549 6-1.549 14.128 0 7.935.678 10.741 2.903 12.483 2.613 2.032 5.613 2.322 22.643 2.322 9.677 0 13.258-.096 16.644-.677l-20.804-11.031 7.838-13.644 20.03 12.676c.097-.968.097-1.645.097-2.032 0-9.58-.581-13.257-2.323-15.386-2.225-2.612-4.354-2.903-22.353-2.903zm-89.108.387v15.87h27.675c9.87-.193 9.87-.194 11.225-1.162 1.548-.967 2.129-2.902 2.129-6.966 0-4.355-.775-6.193-2.807-7.064-1.355-.58-1.645-.581-10.547-.678z" fill="#806600"/><path d="M-1648.626-2759.196a111.406 111.406 0 0 0-111.406 111.405 111.406 111.406 0 0 0 111.406 111.406 111.406 111.406 0 0 0 111.406-111.406 111.406 111.406 0 0 0-111.406-111.405zm28.346 78.166c26.998 0 32.997.678 37.932 4.451 5.032 3.871 6.387 10.257 6.387 29.224 0 6.096-.194 11.322-.58 14.515l8.321 4.257-7.45 13.741-6.29-4.548c-5.322 4.16-10.838 4.838-38.997 4.838-14.675 0-23.044-.243-28.437-1.1v.133h-19.353v-3.387c0-7.258-.387-9.58-1.936-11.225-1.354-1.548-2.806-1.742-10.934-1.742h-27.772v16.354h-19.644v-64.543h47.513c20.695 0 22.149.003 25.596 2.025 4.842-2.497 12.578-2.993 35.644-2.993zm0 16.74c-19.353 0-21.095.29-23.127 4.065-1.161 2.225-1.548 6-1.548 14.127 0 7.935.677 10.741 2.903 12.483 2.613 2.032 5.612 2.323 22.643 2.323 9.676 0 13.257-.097 16.644-.677l-20.805-11.032 7.838-13.644 20.03 12.676c.097-.967.097-1.645.097-2.032 0-9.58-.58-13.256-2.322-15.385-2.226-2.613-4.355-2.904-22.353-2.904zm-89.109.387v15.87h27.675c9.87-.193 9.87-.193 11.225-1.161 1.548-.968 2.129-2.903 2.129-6.967 0-4.354-.774-6.193-2.806-7.064-1.355-.58-1.645-.58-10.548-.678z" fill="#165016"/><path d="M-2083.066-2476.553a111.406 111.406 0 0 0-111.406 111.405 111.406 111.406 0 0 0 111.406 111.406 111.406 111.406 0 0 0 111.406-111.406 111.406 111.406 0 0 0-111.406-111.405zm28.346 78.166c26.998 0 32.998.678 37.933 4.451 5.031 3.871 6.387 10.257 6.387 29.224 0 6.096-.194 11.322-.581 14.515l8.322 4.257-7.451 13.741-6.29-4.548c-5.322 4.16-10.838 4.838-38.997 4.838-14.674 0-23.044-.243-28.436-1.1v.133h-19.354v-3.387c0-7.258-.387-9.58-1.935-11.225-1.355-1.548-2.807-1.742-10.935-1.742h-27.771v16.354h-19.644v-64.543h47.512c20.695 0 22.15.003 25.596 2.025 4.843-2.497 12.579-2.993 35.644-2.993zm0 16.74c-19.353 0-21.094.29-23.126 4.065-1.162 2.225-1.549 6-1.549 14.127 0 7.935.678 10.741 2.903 12.483 2.613 2.032 5.612 2.323 22.643 2.323 9.677 0 13.257-.097 16.644-.677l-20.804-11.032 7.838-13.644 20.03 12.676c.097-.967.097-1.645.097-2.032 0-9.58-.581-13.256-2.323-15.385-2.225-2.613-4.354-2.904-22.353-2.904zm-89.108.387v15.87h27.675c9.87-.193 9.87-.193 11.225-1.161 1.548-.968 2.128-2.903 2.128-6.967 0-4.354-.774-6.193-2.806-7.064-1.355-.58-1.645-.58-10.547-.678z" fill="#0a4"/><path d="M-2099.971-2950.798a111.406 111.406 0 0 0-111.406 111.406 111.406 111.406 0 0 0 111.406 111.406 111.406 111.406 0 0 0 111.406-111.406 111.406 111.406 0 0 0-111.406-111.406zm28.346 78.166c26.998 0 32.997.678 37.932 4.452 5.032 3.87 6.387 10.257 6.387 29.223 0 6.096-.194 11.322-.58 14.515l8.321 4.258-7.45 13.74-6.29-4.548c-5.323 4.161-10.838 4.839-38.997 4.839-14.675 0-23.045-.243-28.437-1.101v.134h-19.353v-3.388c0-7.257-.387-9.58-1.936-11.225-1.354-1.548-2.806-1.741-10.934-1.741h-27.772v16.354h-19.644v-64.544h47.512c20.696 0 22.15.003 25.597 2.026 4.842-2.498 12.578-2.993 35.644-2.993zm0 16.74c-19.353 0-21.095.291-23.127 4.065-1.161 2.226-1.549 6-1.549 14.128 0 7.935.678 10.74 2.904 12.483 2.613 2.032 5.612 2.322 22.643 2.322 9.676 0 13.257-.096 16.644-.677l-20.805-11.031 7.838-13.644 20.03 12.676c.097-.968.097-1.645.097-2.032 0-9.58-.58-13.257-2.322-15.386-2.226-2.612-4.355-2.903-22.353-2.903zm-89.109.388v15.87h27.675c9.87-.194 9.87-.194 11.225-1.162 1.548-.967 2.129-2.902 2.129-6.966 0-4.355-.775-6.194-2.807-7.064-1.354-.581-1.644-.581-10.547-.678z" fill="#00aad4"/><path d="M-1835.711-2480.113a111.406 111.406 0 0 0-111.406 111.406 111.406 111.406 0 0 0 111.406 111.406 111.406 111.406 0 0 0 111.406-111.406 111.406 111.406 0 0 0-111.406-111.406zm28.346 78.167c26.998 0 32.997.678 37.932 4.451 5.032 3.871 6.387 10.257 6.387 29.224 0 6.096-.194 11.321-.58 14.515l8.321 4.257-7.45 13.741-6.29-4.548c-5.322 4.16-10.838 4.838-38.997 4.838-14.675 0-23.044-.243-28.437-1.1v.133h-19.353v-3.387c0-7.258-.387-9.58-1.936-11.225-1.354-1.548-2.806-1.742-10.934-1.742h-27.772v16.354h-19.644v-64.543h47.513c20.695 0 22.149.003 25.596 2.025 4.842-2.497 12.578-2.993 35.644-2.993zm0 16.74c-19.353 0-21.095.29-23.127 4.065-1.161 2.225-1.548 6-1.548 14.127 0 7.935.677 10.741 2.903 12.483 2.613 2.032 5.612 2.323 22.643 2.323 9.676 0 13.257-.097 16.644-.677l-20.805-11.032 7.838-13.644 20.03 12.676c.097-.967.097-1.645.097-2.032 0-9.58-.58-13.256-2.322-15.385-2.226-2.613-4.355-2.904-22.353-2.904zm-89.109.387v15.87h27.675c9.87-.193 9.87-.193 11.225-1.161 1.548-.968 2.129-2.903 2.129-6.967 0-4.354-.774-6.193-2.806-7.064-1.355-.58-1.645-.58-10.548-.678z" fill="#165044"/><path d="M-1818.806-2953.467a111.406 111.406 0 0 0-111.405 111.405 111.406 111.406 0 0 0 111.405 111.406 111.406 111.406 0 0 0 111.406-111.406 111.406 111.406 0 0 0-111.406-111.405zm28.346 78.166c26.998 0 32.998.678 37.933 4.452 5.032 3.87 6.387 10.257 6.387 29.223 0 6.096-.194 11.322-.581 14.515l8.322 4.258-7.451 13.74-6.29-4.548c-5.322 4.16-10.838 4.838-38.997 4.838-14.674 0-23.044-.242-28.436-1.1v.133h-19.354v-3.387c0-7.258-.387-9.58-1.935-11.225-1.355-1.548-2.806-1.742-10.935-1.742h-27.771v16.354h-19.644v-64.543h47.512c20.695 0 22.15.003 25.596 2.026 4.843-2.498 12.579-2.994 35.644-2.994zm0 16.74c-19.353 0-21.094.291-23.126 4.065-1.162 2.226-1.549 6-1.549 14.128 0 7.934.678 10.74 2.903 12.482 2.613 2.033 5.613 2.323 22.643 2.323 9.677 0 13.258-.096 16.644-.677l-20.804-11.032 7.838-13.644 20.03 12.676c.097-.967.097-1.644.097-2.031 0-9.58-.581-13.257-2.323-15.386-2.225-2.613-4.354-2.903-22.353-2.903zm-89.108.388v15.87h27.675c9.87-.194 9.87-.194 11.225-1.162 1.548-.968 2.128-2.902 2.128-6.967 0-4.354-.774-6.193-2.806-7.064-1.355-.58-1.645-.58-10.547-.677z" fill="#374548"/><path d="M-1496.555-2987.736a111.406 111.406 0 0 0-87.106 131.282 111.406 111.406 0 0 0 131.282 87.107 111.406 111.406 0 0 0 87.107-131.283 111.406 111.406 0 0 0-131.283-87.106zm43.281 70.995c26.462-5.353 32.477-5.878 38.062-3.158 5.7 2.796 8.294 8.787 12.054 27.377 1.209 5.975 2.055 11.135 2.309 14.342l9 2.523-4.578 14.945-7.066-3.21c-4.392 5.133-9.664 6.89-37.264 12.473-14.383 2.91-22.635 4.331-28.09 4.56l.026.13-18.969 3.838-.671-3.32c-1.44-7.114-2.28-9.313-4.123-10.619-1.635-1.249-3.096-1.15-11.063.461l-27.22 5.506 3.242 16.03-19.254 3.894-12.796-63.262 46.569-9.42c20.284-4.103 21.71-4.388 25.49-3.09 4.25-3.407 11.735-5.427 34.342-10zm3.32 16.408c-18.97 3.837-20.619 4.467-21.862 8.569-.697 2.411-.329 6.187 1.283 14.154 1.573 7.777 2.794 10.393 5.32 11.66 2.964 1.473 5.962 1.163 22.654-2.214 9.485-1.918 12.975-2.723 16.18-3.963l-22.58-6.688 4.978-14.927 22.146 8.453a19.06 19.06 0 0 0-.308-2.01c-1.9-9.39-3.198-12.88-5.327-14.62-2.7-2.12-4.843-1.983-22.485 1.586zm-87.264 18.046l3.147 15.555 27.126-5.487c9.635-2.146 9.635-2.147 10.771-3.364 1.326-1.255 1.511-3.267.706-7.25-.864-4.268-1.987-5.917-4.152-6.368-1.443-.3-1.727-.243-10.472 1.427zM-1436.207-2558.857a111.406 111.406 0 0 0-111.406 111.406 111.406 111.406 0 0 0 111.406 111.406 111.406 111.406 0 0 0 111.406-111.406 111.406 111.406 0 0 0-111.406-111.406zm28.346 78.167c26.998 0 32.997.677 37.932 4.451 5.032 3.87 6.387 10.257 6.387 29.223 0 6.097-.193 11.322-.58 14.516l8.322 4.257-7.451 13.74-6.29-4.547c-5.322 4.16-10.838 4.838-38.997 4.838-14.674 0-23.044-.243-28.437-1.1v.133h-19.353v-3.387c0-7.258-.387-9.58-1.935-11.225-1.355-1.549-2.807-1.742-10.935-1.742h-27.771v16.354h-19.644v-64.543h47.512c20.695 0 22.149.003 25.596 2.025 4.843-2.497 12.579-2.993 35.644-2.993zm0 16.74c-19.353 0-21.094.29-23.127 4.065-1.16 2.225-1.548 5.999-1.548 14.127 0 7.935.678 10.741 2.903 12.483 2.613 2.032 5.612 2.323 22.643 2.323 9.677 0 13.257-.097 16.644-.677l-20.805-11.032 7.839-13.644 20.03 12.676c.097-.968.097-1.645.097-2.032 0-9.58-.581-13.257-2.323-15.385-2.226-2.613-4.354-2.904-22.353-2.904zm-89.108.387v15.87h27.675c9.87-.193 9.87-.194 11.224-1.161 1.549-.968 2.13-2.903 2.13-6.967 0-4.354-.775-6.193-2.807-7.064-1.355-.58-1.645-.581-10.547-.678z" fill="#003380"/><circle r="111.406" cy="-448.722" cx="526.775" fill="#003380" transform="translate(-1526.166 -2322.888)"/><path d="M-967.452-2429.05a111.406 111.406 0 0 1-111.406 111.406 111.406 111.406 0 0 1-111.406-111.406 111.406 111.406 0 0 1 111.406-111.406 111.406 111.406 0 0 1 111.406 111.406z" fill="#003380"/><g aria-label="RQ" style="line-height:1.25;-inkscape-font-specification:'Microgramma D Extended Bold'" font-weight="700" font-size="192" font-family="Microgramma D Extended" letter-spacing="-42.34" word-spacing=".11" fill="#fff" stroke-width=".547"><path d="M-1156.053-2398.068h18.859v-15.7h26.663c7.803 0 9.197.186 10.497 1.672 1.487 1.58 1.859 3.81 1.859 10.777v3.251h18.58v-5.76c.372-14.306-1.3-17.093-10.87-18.208 3.716-.558 5.482-1.208 7.247-2.601 3.344-2.509 4.273-6.04 4.273-15.236 0-10.777-1.393-14.865-6.131-17.745-3.995-2.415-3.995-2.415-25.363-2.415h-45.614zm18.859-31.215v-15.235h26.57c8.547.092 8.825.092 10.126.65 1.95.836 2.694 2.601 2.694 6.782 0 3.902-.557 5.76-2.044 6.689-1.3.929-1.3.929-10.776 1.114z"/><path d="M-1001.662-2410.61l-7.99-4.087c.372-3.066.557-8.082.557-13.935 0-18.209-1.3-24.34-6.131-28.057-4.738-3.623-10.498-4.273-36.418-4.273s-31.68.65-36.417 4.273c-4.738 3.624-6.132 9.848-6.132 27.592 0 17.837 1.394 24.062 6.132 27.685 4.738 3.53 10.59 4.273 35.767 4.273 27.035 0 32.33-.65 37.44-4.645l6.038 4.367zm-45.615-26.94l-7.525 13.098 19.974 10.591c-3.252.558-6.69.65-15.98.65-16.35 0-19.23-.278-21.739-2.23-2.136-1.671-2.787-4.366-2.787-11.984 0-7.803.372-11.426 1.487-13.563 1.95-3.623 3.623-3.902 22.203-3.902 17.28 0 19.324.279 21.46 2.787 1.673 2.044 2.23 5.574 2.23 14.771 0 .372 0 1.022-.093 1.951z"/></g><path d="M-993.692-2429.05a50.688 50.688 0 0 1-50.687 50.687 50.688 50.688 0 0 1-50.688-50.687 50.688 50.688 0 0 1 50.688-50.688 50.688 50.688 0 0 1 50.687 50.688z" opacity=".171" fill="#fff"/><g fill="#fff" transform="translate(-1519.326 -2322.888)"><circle r="50.688" cy="-448.722" cx="561.253" opacity=".171"/><circle cx="478.616" cy="-448.722" r="50.688" opacity=".171"/></g><path d="M-619.56-2638.13a111.406 111.406 0 0 0-111.405 111.405 111.406 111.406 0 0 0 111.406 111.406 111.406 111.406 0 0 0 111.406-111.406 111.406 111.406 0 0 0-111.406-111.406zm28.347 78.166c26.998 0 32.997.677 37.932 4.451 5.032 3.87 6.387 10.257 6.387 29.223 0 6.097-.193 11.322-.58 14.516l8.322 4.257-7.452 13.74-6.29-4.547c-5.321 4.16-10.837 4.838-38.996 4.838-14.675 0-23.044-.243-28.437-1.1v.133h-19.353v-3.387c0-7.258-.387-9.58-1.935-11.225-1.355-1.549-2.807-1.742-10.935-1.742h-27.772v16.354h-19.643v-64.543h47.512c20.695 0 22.149.003 25.596 2.025 4.843-2.497 12.579-2.993 35.644-2.993zm0 16.74c-19.353 0-21.095.29-23.127 4.065-1.16 2.225-1.548 5.999-1.548 14.127 0 7.935.678 10.741 2.903 12.483 2.613 2.032 5.612 2.323 22.643 2.323 9.677 0 13.257-.097 16.644-.677l-20.805-11.032 7.838-13.644 20.03 12.676c.097-.968.097-1.645.097-2.032 0-9.58-.58-13.257-2.322-15.385-2.226-2.613-4.354-2.904-22.353-2.904zm-89.109.387v15.87h27.676c9.87-.193 9.87-.194 11.224-1.161 1.549-.968 2.13-2.903 2.13-6.967 0-4.354-.775-6.193-2.807-7.064-1.355-.58-1.645-.581-10.547-.678z" fill="#8c4b1a"/><path opacity=".171" fill="#fff" d="M-316.979-3448.398h653.067v105.7h-653.067z"/><path d="M-581.81-3347.764a111.406 111.406 0 0 0-111.405 111.405 111.406 111.406 0 0 0 111.405 111.406 111.406 111.406 0 0 0 111.406-111.406 111.406 111.406 0 0 0-111.406-111.405zm28.347 78.166c26.997 0 32.997.678 37.932 4.452 5.032 3.87 6.387 10.257 6.387 29.223 0 6.096-.194 11.322-.581 14.515l8.322 4.258-7.451 13.74-6.29-4.548c-5.322 4.16-10.838 4.838-38.997 4.838-14.674 0-23.044-.243-28.436-1.1v.133h-19.353v-3.387c0-7.258-.388-9.58-1.936-11.225-1.355-1.548-2.806-1.742-10.935-1.742h-27.771v16.354h-19.644v-64.543h47.512c20.696 0 22.15.003 25.597 2.025 4.842-2.497 12.578-2.993 35.644-2.993zm0 16.74c-19.354 0-21.095.291-23.127 4.065-1.161 2.226-1.549 6-1.549 14.128 0 7.934.678 10.74 2.904 12.482 2.612 2.032 5.612 2.323 22.643 2.323 9.676 0 13.257-.097 16.644-.677l-20.805-11.032 7.838-13.644 20.03 12.676c.097-.967.097-1.644.097-2.032 0-9.58-.58-13.256-2.322-15.385-2.226-2.613-4.355-2.903-22.353-2.903zm-89.11.388v15.87h27.676c9.87-.194 9.87-.194 11.225-1.162 1.548-.968 2.129-2.903 2.129-6.967 0-4.354-.775-6.193-2.807-7.064-1.355-.58-1.644-.58-10.547-.677z" fill="#003380"/><text y="-813.689" x="1141.463" style="line-height:1.25;-inkscape-font-specification:'Microgramma D Extended'" font-weight="400" font-size="46.039" font-family="Microgramma D Extended" letter-spacing="1.679" word-spacing=".127" stroke-width=".265" transform="translate(-1586.016 -2431.103)"><tspan style="-inkscape-font-specification:'Microgramma D Extended'" y="-813.689" x="1141.463">RAFAEL</tspan></text><text style="line-height:1.25;-inkscape-font-specification:'Microgramma D Extended'" x="1139.866" y="-766.574" font-weight="400" font-size="46.039" font-family="Microgramma D Extended" letter-spacing="1.679" word-spacing=".127" stroke-width=".265" transform="translate(-1586.016 -2431.103)"><tspan x="1139.866" y="-766.574" style="-inkscape-font-specification:'Microgramma D Extended Bold'" font-weight="700">QUINTANILHA</tspan></text><path d="M-581.81-3347.764a111.406 111.406 0 0 0-111.405 111.405 111.406 111.406 0 0 0 111.405 111.406 111.406 111.406 0 0 0 111.406-111.406 111.406 111.406 0 0 0-111.406-111.405zm28.347 78.166c26.997 0 32.997.678 37.932 4.452 5.032 3.87 6.387 10.257 6.387 29.223 0 6.096-.194 11.322-.581 14.515l8.322 4.258-7.451 13.74-6.29-4.548c-5.322 4.16-10.838 4.838-38.997 4.838-14.674 0-23.044-.243-28.436-1.1v.133h-19.353v-3.387c0-7.258-.388-9.58-1.936-11.225-1.355-1.548-2.806-1.742-10.935-1.742h-27.771v16.354h-19.644v-64.543h47.512c20.696 0 22.15.003 25.597 2.025 4.842-2.497 12.578-2.993 35.644-2.993zm0 16.74c-19.354 0-21.095.291-23.127 4.065-1.161 2.226-1.549 6-1.549 14.128 0 7.934.678 10.74 2.904 12.482 2.612 2.032 5.612 2.323 22.643 2.323 9.676 0 13.257-.097 16.644-.677l-20.805-11.032 7.838-13.644 20.03 12.676c.097-.967.097-1.644.097-2.032 0-9.58-.58-13.256-2.322-15.385-2.226-2.613-4.355-2.903-22.353-2.903zm-89.11.388v15.87h27.676c9.87-.194 9.87-.194 11.225-1.162 1.548-.968 2.129-2.903 2.129-6.967 0-4.354-.775-6.193-2.807-7.064-1.355-.58-1.644-.58-10.547-.677z" fill="#003380"/><text style="line-height:1.25;-inkscape-font-specification:'Microgramma D Extended'" x="1141.463" y="-813.689" font-weight="400" font-size="46.039" font-family="Microgramma D Extended" letter-spacing="1.679" word-spacing=".127" stroke-width=".265" transform="translate(-1586.016 -2431.103)"><tspan x="1141.463" y="-813.689" style="-inkscape-font-specification:'Microgramma D Extended'">RAFAEL</tspan></text><text y="-766.574" x="1139.866" style="line-height:1.25;-inkscape-font-specification:'Microgramma D Extended'" font-weight="400" font-size="46.039" font-family="Microgramma D Extended" letter-spacing="1.679" word-spacing=".127" fill="#003380" stroke-width=".265" transform="translate(-1586.016 -2431.103)"><tspan style="-inkscape-font-specification:'Microgramma D Extended Bold'" y="-766.574" x="1139.866" font-weight="700">QUINTANILHA</tspan></text><g><path d="M-231.413-2643.074h724.915v286.896h-724.915z" fill="#fff"/><path d="M-107.211-2612.92a111.406 111.406 0 0 0-111.406 111.406 111.406 111.406 0 0 0 111.406 111.406A111.406 111.406 0 0 0 4.195-2501.514a111.406 111.406 0 0 0-111.406-111.406zm28.346 78.167c26.998 0 32.997.678 37.932 4.451 5.032 3.871 6.387 10.257 6.387 29.224 0 6.096-.193 11.321-.58 14.515l8.322 4.257-7.452 13.741-6.29-4.548c-5.321 4.16-10.837 4.838-38.996 4.838-14.675 0-23.044-.243-28.437-1.1v.133h-19.353v-3.387c0-7.258-.387-9.58-1.935-11.225-1.355-1.548-2.807-1.742-10.935-1.742h-27.772v16.354h-19.643v-64.543h47.512c20.695 0 22.149.003 25.596 2.025 4.843-2.497 12.579-2.993 35.644-2.993zm0 16.74c-19.353 0-21.095.29-23.127 4.065-1.16 2.225-1.548 6-1.548 14.127 0 7.935.678 10.741 2.903 12.483 2.613 2.032 5.612 2.323 22.643 2.323 9.677 0 13.257-.097 16.644-.677l-20.805-11.032 7.839-13.644 20.03 12.676c.097-.967.097-1.645.097-2.032 0-9.58-.581-13.256-2.323-15.385-2.225-2.613-4.354-2.904-22.353-2.904zm-89.109.387v15.87h27.676c9.87-.193 9.87-.193 11.224-1.161 1.549-.968 2.13-2.903 2.13-6.967 0-4.354-.775-6.193-2.807-7.064-1.355-.58-1.645-.58-10.547-.678z" fill="#003380"/><g style="line-height:1.25;-inkscape-font-specification:'Microgramma D Extended'" aria-label="RAFAEL" font-weight="400" font-size="46.039" font-family="Microgramma D Extended" letter-spacing="1.679" word-spacing=".127" stroke-width=".265"><path style="-inkscape-font-specification:'Microgramma D Extended'" d="M32.347-2509.947h4.098v-11.832H51.5c6.63.046 6.63.046 8.056.276 1.934.276 3.039 1.427 3.27 3.407.183 1.197.183 1.243.183 5.202v2.947h4.098v-4.374c0-5.248-.184-6.17-1.381-7.412-.783-.829-1.658-1.29-3.131-1.566 4.051-.828 5.064-2.44 5.064-8.102 0-2.533-.276-4.052-.967-5.48-.966-1.887-2.808-3.084-5.294-3.406-2.118-.276-2.164-.276-9.898-.368H32.347zm4.098-15.423v-11.694H51.5c7.412 0 9.253.184 10.496 1.105.921.644 1.474 2.348 1.474 4.512 0 1.565-.276 3.314-.645 4.005-.829 1.565-2.716 2.072-7.642 2.072H51.5zM107.119-2509.947h4.558l-17.357-30.708h-6.538l-17.403 30.708h4.65l3.637-6.492h24.816zm-5.571-10.083H80.646l9.668-17.034h1.658zM115.195-2509.947h4.098v-13.766h23.618v-3.591h-23.618v-9.76h24.723v-3.591h-28.82zM179.536-2509.947h4.558l-17.357-30.708h-6.538l-17.402 30.708h4.65l3.637-6.492h24.815zm-5.57-10.083h-20.903l9.669-17.034h1.657zM187.612-2509.947h30.11v-3.591H191.71v-10.543h24.861v-3.591H191.71v-9.392h25.966v-3.591h-30.064zM222.292-2540.655v30.708h28.315v-3.591H226.39v-27.117z"/></g><g style="line-height:1.25;-inkscape-font-specification:'Microgramma D Extended'" aria-label="QUINTANILHA" font-weight="700" font-size="46.039" font-family="Microgramma D Extended" letter-spacing="1.679" word-spacing=".127" stroke-width=".265"><path style="-inkscape-font-specification:'Microgramma D Extended Bold'" d="M75.823-2469.048l-3.96-2.025c.184-1.52.276-4.006.276-6.906 0-9.024-.644-12.063-3.038-13.904-2.348-1.796-5.203-2.118-18.048-2.118-12.845 0-15.699.322-18.047 2.118-2.348 1.795-3.039 4.88-3.039 13.673 0 8.84.691 11.925 3.039 13.72 2.348 1.75 5.249 2.118 17.725 2.118 13.398 0 16.022-.322 18.554-2.302l2.993 2.164zm-22.606-13.351l-3.729 6.491 9.899 5.249c-1.612.276-3.315.322-7.92.322-8.102 0-9.53-.138-10.772-1.105-1.06-.828-1.382-2.164-1.382-5.939 0-3.867.185-5.663.737-6.722.967-1.795 1.796-1.933 11.003-1.933 8.564 0 9.577.138 10.636 1.381.828 1.013 1.104 2.762 1.104 7.32 0 .184 0 .507-.046.967zM77.877-2493.54v14.133c.046 4.973.046 4.973.092 5.986.23 4.511.736 6.399 2.256 7.964 2.301 2.44 5.985 3.085 17.725 3.085 7.136 0 10.22-.184 12.983-.737 3.499-.736 5.847-3.176 6.353-6.675.276-2.164.322-2.67.46-9.623v-14.134h-9.345v14.134c0 .645-.046 2.118-.092 3.177-.138 2.9-.369 3.73-1.105 4.512-1.013 1.105-2.947 1.381-9.392 1.381-7.965 0-9.76-.506-10.267-2.946-.23-1.243-.23-1.29-.322-6.124v-14.134zM123.621-2493.54v30.708h9.806v-30.709zM139.418-2493.54v30.708h9.53l-.23-22.928h1.012l16.16 22.928h16.252v-30.709h-9.53l.23 22.882h-.967l-16.067-22.882zM185.961-2493.54v7.826h13.674v22.882h9.806v-22.882h13.674v-7.827zM256.092-2462.832h10.635l-16.068-30.709h-14.548l-16.252 30.709h10.68l2.625-5.203h20.303zm-5.893-11.925h-13.72l5.939-11.648h1.842zM269.804-2493.54v30.708h9.53l-.23-22.928h1.013l16.16 22.928h16.252v-30.709h-9.53l.23 22.882h-.967l-16.068-22.882zM318.512-2493.54v30.708h9.806v-30.709zM334.309-2493.54v30.708h31.629v-7.827h-21.823v-22.882zM369.798-2493.54v30.708h9.806v-11.096h21.132v11.096h9.807v-30.709h-9.807v11.004h-21.132v-11.004zM449.814-2462.832h10.635l-16.068-30.709h-14.548l-16.252 30.709h10.68l2.625-5.203h20.303zm-5.893-11.925H430.2l5.939-11.648h1.842z"/></g><path d="M-107.211-2612.92a111.406 111.406 0 0 0-111.406 111.406 111.406 111.406 0 0 0 111.406 111.406A111.406 111.406 0 0 0 4.195-2501.514a111.406 111.406 0 0 0-111.406-111.406zm28.346 78.167c26.998 0 32.997.678 37.932 4.451 5.032 3.871 6.387 10.257 6.387 29.224 0 6.096-.193 11.321-.58 14.515l8.322 4.257-7.452 13.741-6.29-4.548c-5.321 4.16-10.837 4.838-38.996 4.838-14.675 0-23.044-.243-28.437-1.1v.133h-19.353v-3.387c0-7.258-.387-9.58-1.935-11.225-1.355-1.548-2.807-1.742-10.935-1.742h-27.772v16.354h-19.643v-64.543h47.512c20.695 0 22.149.003 25.596 2.025 4.843-2.497 12.579-2.993 35.644-2.993zm0 16.74c-19.353 0-21.095.29-23.127 4.065-1.16 2.225-1.548 6-1.548 14.127 0 7.935.678 10.741 2.903 12.483 2.613 2.032 5.612 2.323 22.643 2.323 9.677 0 13.257-.097 16.644-.677l-20.805-11.032 7.839-13.644 20.03 12.676c.097-.967.097-1.645.097-2.032 0-9.58-.581-13.256-2.323-15.385-2.225-2.613-4.354-2.904-22.353-2.904zm-89.109.387v15.87h27.676c9.87-.193 9.87-.193 11.224-1.161 1.549-.968 2.13-2.903 2.13-6.967 0-4.354-.775-6.193-2.807-7.064-1.355-.58-1.645-.58-10.547-.678z" fill="#003380"/><g style="line-height:1.25;-inkscape-font-specification:'Microgramma D Extended'" aria-label="RAFAEL" font-weight="400" font-size="46.039" font-family="Microgramma D Extended" letter-spacing="1.679" word-spacing=".127" stroke-width=".265"><path style="-inkscape-font-specification:'Microgramma D Extended'" d="M32.347-2509.947h4.098v-11.832H51.5c6.63.046 6.63.046 8.056.276 1.934.276 3.039 1.427 3.27 3.407.183 1.197.183 1.243.183 5.202v2.947h4.098v-4.374c0-5.248-.184-6.17-1.381-7.412-.783-.829-1.658-1.29-3.131-1.566 4.051-.828 5.064-2.44 5.064-8.102 0-2.533-.276-4.052-.967-5.48-.966-1.887-2.808-3.084-5.294-3.406-2.118-.276-2.164-.276-9.898-.368H32.347zm4.098-15.423v-11.694H51.5c7.412 0 9.253.184 10.496 1.105.921.644 1.474 2.348 1.474 4.512 0 1.565-.276 3.314-.645 4.005-.829 1.565-2.716 2.072-7.642 2.072H51.5zM107.119-2509.947h4.558l-17.357-30.708h-6.538l-17.403 30.708h4.65l3.637-6.492h24.816zm-5.571-10.083H80.646l9.668-17.034h1.658zM115.195-2509.947h4.098v-13.766h23.618v-3.591h-23.618v-9.76h24.723v-3.591h-28.82zM179.536-2509.947h4.558l-17.357-30.708h-6.538l-17.402 30.708h4.65l3.637-6.492h24.815zm-5.57-10.083h-20.903l9.669-17.034h1.657zM187.612-2509.947h30.11v-3.591H191.71v-10.543h24.861v-3.591H191.71v-9.392h25.966v-3.591h-30.064zM222.292-2540.655v30.708h28.315v-3.591H226.39v-27.117z"/></g><g style="line-height:1.25;-inkscape-font-specification:'Microgramma D Extended'" aria-label="QUINTANILHA" font-weight="700" font-size="46.039" font-family="Microgramma D Extended" letter-spacing="1.679" word-spacing=".127" fill="#003380" stroke-width=".265"><path style="-inkscape-font-specification:'Microgramma D Extended Bold'" d="M75.823-2469.048l-3.96-2.025c.184-1.52.276-4.006.276-6.906 0-9.024-.644-12.063-3.038-13.904-2.348-1.796-5.203-2.118-18.048-2.118-12.845 0-15.699.322-18.047 2.118-2.348 1.795-3.039 4.88-3.039 13.673 0 8.84.691 11.925 3.039 13.72 2.348 1.75 5.249 2.118 17.725 2.118 13.398 0 16.022-.322 18.554-2.302l2.993 2.164zm-22.606-13.351l-3.729 6.491 9.899 5.249c-1.612.276-3.315.322-7.92.322-8.102 0-9.53-.138-10.772-1.105-1.06-.828-1.382-2.164-1.382-5.939 0-3.867.185-5.663.737-6.722.967-1.795 1.796-1.933 11.003-1.933 8.564 0 9.577.138 10.636 1.381.828 1.013 1.104 2.762 1.104 7.32 0 .184 0 .507-.046.967zM77.877-2493.54v14.133c.046 4.973.046 4.973.092 5.986.23 4.511.736 6.399 2.256 7.964 2.301 2.44 5.985 3.085 17.725 3.085 7.136 0 10.22-.184 12.983-.737 3.499-.736 5.847-3.176 6.353-6.675.276-2.164.322-2.67.46-9.623v-14.134h-9.345v14.134c0 .645-.046 2.118-.092 3.177-.138 2.9-.369 3.73-1.105 4.512-1.013 1.105-2.947 1.381-9.392 1.381-7.965 0-9.76-.506-10.267-2.946-.23-1.243-.23-1.29-.322-6.124v-14.134zM123.621-2493.54v30.708h9.806v-30.709zM139.418-2493.54v30.708h9.53l-.23-22.928h1.012l16.16 22.928h16.252v-30.709h-9.53l.23 22.882h-.967l-16.067-22.882zM185.961-2493.54v7.826h13.674v22.882h9.806v-22.882h13.674v-7.827zM256.092-2462.832h10.635l-16.068-30.709h-14.548l-16.252 30.709h10.68l2.625-5.203h20.303zm-5.893-11.925h-13.72l5.939-11.648h1.842zM269.804-2493.54v30.708h9.53l-.23-22.928h1.013l16.16 22.928h16.252v-30.709h-9.53l.23 22.882h-.967l-16.068-22.882zM318.512-2493.54v30.708h9.806v-30.709zM334.309-2493.54v30.708h31.629v-7.827h-21.823v-22.882zM369.798-2493.54v30.708h9.806v-11.096h21.132v11.096h9.807v-30.709h-9.807v11.004h-21.132v-11.004zM449.814-2462.832h10.635l-16.068-30.709h-14.548l-16.252 30.709h10.68l2.625-5.203h20.303zm-5.893-11.925H430.2l5.939-11.648h1.842z"/></g><g><path d="M-231.413-2643.074h724.915v286.896h-724.915z" fill="#fff"/><path d="M-107.211-2612.92a111.406 111.406 0 0 0-111.406 111.406 111.406 111.406 0 0 0 111.406 111.406A111.406 111.406 0 0 0 4.195-2501.514a111.406 111.406 0 0 0-111.406-111.406zm28.346 78.167c26.998 0 32.997.678 37.932 4.451 5.032 3.871 6.387 10.257 6.387 29.224 0 6.096-.193 11.321-.58 14.515l8.322 4.257-7.452 13.741-6.29-4.548c-5.321 4.16-10.837 4.838-38.996 4.838-14.675 0-23.044-.243-28.437-1.1v.133h-19.353v-3.387c0-7.258-.387-9.58-1.935-11.225-1.355-1.548-2.807-1.742-10.935-1.742h-27.772v16.354h-19.643v-64.543h47.512c20.695 0 22.149.003 25.596 2.025 4.843-2.497 12.579-2.993 35.644-2.993zm0 16.74c-19.353 0-21.095.29-23.127 4.065-1.16 2.225-1.548 6-1.548 14.127 0 7.935.678 10.741 2.903 12.483 2.613 2.032 5.612 2.323 22.643 2.323 9.677 0 13.257-.097 16.644-.677l-20.805-11.032 7.839-13.644 20.03 12.676c.097-.967.097-1.645.097-2.032 0-9.58-.581-13.256-2.323-15.385-2.225-2.613-4.354-2.904-22.353-2.904zm-89.109.387v15.87h27.676c9.87-.193 9.87-.193 11.224-1.161 1.549-.968 2.13-2.903 2.13-6.967 0-4.354-.775-6.193-2.807-7.064-1.355-.58-1.645-.58-10.547-.678z" fill="#003380"/><g style="line-height:1.25;-inkscape-font-specification:'Microgramma D Extended'" aria-label="RAFAEL" font-weight="400" font-size="46.039" font-family="Microgramma D Extended" letter-spacing="1.679" word-spacing=".127" stroke-width=".265"><path style="-inkscape-font-specification:'Microgramma D Extended'" d="M32.347-2509.947h4.098v-11.832H51.5c6.63.046 6.63.046 8.056.276 1.934.276 3.039 1.427 3.27 3.407.183 1.197.183 1.243.183 5.202v2.947h4.098v-4.374c0-5.248-.184-6.17-1.381-7.412-.783-.829-1.658-1.29-3.131-1.566 4.051-.828 5.064-2.44 5.064-8.102 0-2.533-.276-4.052-.967-5.48-.966-1.887-2.808-3.084-5.294-3.406-2.118-.276-2.164-.276-9.898-.368H32.347zm4.098-15.423v-11.694H51.5c7.412 0 9.253.184 10.496 1.105.921.644 1.474 2.348 1.474 4.512 0 1.565-.276 3.314-.645 4.005-.829 1.565-2.716 2.072-7.642 2.072H51.5zM107.119-2509.947h4.558l-17.357-30.708h-6.538l-17.403 30.708h4.65l3.637-6.492h24.816zm-5.571-10.083H80.646l9.668-17.034h1.658zM115.195-2509.947h4.098v-13.766h23.618v-3.591h-23.618v-9.76h24.723v-3.591h-28.82zM179.536-2509.947h4.558l-17.357-30.708h-6.538l-17.402 30.708h4.65l3.637-6.492h24.815zm-5.57-10.083h-20.903l9.669-17.034h1.657zM187.612-2509.947h30.11v-3.591H191.71v-10.543h24.861v-3.591H191.71v-9.392h25.966v-3.591h-30.064zM222.292-2540.655v30.708h28.315v-3.591H226.39v-27.117z"/></g><g style="line-height:1.25;-inkscape-font-specification:'Microgramma D Extended'" aria-label="QUINTANILHA" font-weight="700" font-size="46.039" font-family="Microgramma D Extended" letter-spacing="1.679" word-spacing=".127" stroke-width=".265"><path style="-inkscape-font-specification:'Microgramma D Extended Bold'" d="M75.823-2469.048l-3.96-2.025c.184-1.52.276-4.006.276-6.906 0-9.024-.644-12.063-3.038-13.904-2.348-1.796-5.203-2.118-18.048-2.118-12.845 0-15.699.322-18.047 2.118-2.348 1.795-3.039 4.88-3.039 13.673 0 8.84.691 11.925 3.039 13.72 2.348 1.75 5.249 2.118 17.725 2.118 13.398 0 16.022-.322 18.554-2.302l2.993 2.164zm-22.606-13.351l-3.729 6.491 9.899 5.249c-1.612.276-3.315.322-7.92.322-8.102 0-9.53-.138-10.772-1.105-1.06-.828-1.382-2.164-1.382-5.939 0-3.867.185-5.663.737-6.722.967-1.795 1.796-1.933 11.003-1.933 8.564 0 9.577.138 10.636 1.381.828 1.013 1.104 2.762 1.104 7.32 0 .184 0 .507-.046.967zM77.877-2493.54v14.133c.046 4.973.046 4.973.092 5.986.23 4.511.736 6.399 2.256 7.964 2.301 2.44 5.985 3.085 17.725 3.085 7.136 0 10.22-.184 12.983-.737 3.499-.736 5.847-3.176 6.353-6.675.276-2.164.322-2.67.46-9.623v-14.134h-9.345v14.134c0 .645-.046 2.118-.092 3.177-.138 2.9-.369 3.73-1.105 4.512-1.013 1.105-2.947 1.381-9.392 1.381-7.965 0-9.76-.506-10.267-2.946-.23-1.243-.23-1.29-.322-6.124v-14.134zM123.621-2493.54v30.708h9.806v-30.709zM139.418-2493.54v30.708h9.53l-.23-22.928h1.012l16.16 22.928h16.252v-30.709h-9.53l.23 22.882h-.967l-16.067-22.882zM185.961-2493.54v7.826h13.674v22.882h9.806v-22.882h13.674v-7.827zM256.092-2462.832h10.635l-16.068-30.709h-14.548l-16.252 30.709h10.68l2.625-5.203h20.303zm-5.893-11.925h-13.72l5.939-11.648h1.842zM269.804-2493.54v30.708h9.53l-.23-22.928h1.013l16.16 22.928h16.252v-30.709h-9.53l.23 22.882h-.967l-16.068-22.882zM318.512-2493.54v30.708h9.806v-30.709zM334.309-2493.54v30.708h31.629v-7.827h-21.823v-22.882zM369.798-2493.54v30.708h9.806v-11.096h21.132v11.096h9.807v-30.709h-9.807v11.004h-21.132v-11.004zM449.814-2462.832h10.635l-16.068-30.709h-14.548l-16.252 30.709h10.68l2.625-5.203h20.303zm-5.893-11.925H430.2l5.939-11.648h1.842z"/></g><path d="M-107.211-2612.92a111.406 111.406 0 0 0-111.406 111.406 111.406 111.406 0 0 0 111.406 111.406A111.406 111.406 0 0 0 4.195-2501.514a111.406 111.406 0 0 0-111.406-111.406zm28.346 78.167c26.998 0 32.997.678 37.932 4.451 5.032 3.871 6.387 10.257 6.387 29.224 0 6.096-.193 11.321-.58 14.515l8.322 4.257-7.452 13.741-6.29-4.548c-5.321 4.16-10.837 4.838-38.996 4.838-14.675 0-23.044-.243-28.437-1.1v.133h-19.353v-3.387c0-7.258-.387-9.58-1.935-11.225-1.355-1.548-2.807-1.742-10.935-1.742h-27.772v16.354h-19.643v-64.543h47.512c20.695 0 22.149.003 25.596 2.025 4.843-2.497 12.579-2.993 35.644-2.993zm0 16.74c-19.353 0-21.095.29-23.127 4.065-1.16 2.225-1.548 6-1.548 14.127 0 7.935.678 10.741 2.903 12.483 2.613 2.032 5.612 2.323 22.643 2.323 9.677 0 13.257-.097 16.644-.677l-20.805-11.032 7.839-13.644 20.03 12.676c.097-.967.097-1.645.097-2.032 0-9.58-.581-13.256-2.323-15.385-2.225-2.613-4.354-2.904-22.353-2.904zm-89.109.387v15.87h27.676c9.87-.193 9.87-.193 11.224-1.161 1.549-.968 2.13-2.903 2.13-6.967 0-4.354-.775-6.193-2.807-7.064-1.355-.58-1.645-.58-10.547-.678z" fill="#003380"/><g style="line-height:1.25;-inkscape-font-specification:'Microgramma D Extended'" aria-label="RAFAEL" font-weight="400" font-size="46.039" font-family="Microgramma D Extended" letter-spacing="1.679" word-spacing=".127" stroke-width=".265"><path style="-inkscape-font-specification:'Microgramma D Extended'" d="M32.347-2509.947h4.098v-11.832H51.5c6.63.046 6.63.046 8.056.276 1.934.276 3.039 1.427 3.27 3.407.183 1.197.183 1.243.183 5.202v2.947h4.098v-4.374c0-5.248-.184-6.17-1.381-7.412-.783-.829-1.658-1.29-3.131-1.566 4.051-.828 5.064-2.44 5.064-8.102 0-2.533-.276-4.052-.967-5.48-.966-1.887-2.808-3.084-5.294-3.406-2.118-.276-2.164-.276-9.898-.368H32.347zm4.098-15.423v-11.694H51.5c7.412 0 9.253.184 10.496 1.105.921.644 1.474 2.348 1.474 4.512 0 1.565-.276 3.314-.645 4.005-.829 1.565-2.716 2.072-7.642 2.072H51.5zM107.119-2509.947h4.558l-17.357-30.708h-6.538l-17.403 30.708h4.65l3.637-6.492h24.816zm-5.571-10.083H80.646l9.668-17.034h1.658zM115.195-2509.947h4.098v-13.766h23.618v-3.591h-23.618v-9.76h24.723v-3.591h-28.82zM179.536-2509.947h4.558l-17.357-30.708h-6.538l-17.402 30.708h4.65l3.637-6.492h24.815zm-5.57-10.083h-20.903l9.669-17.034h1.657zM187.612-2509.947h30.11v-3.591H191.71v-10.543h24.861v-3.591H191.71v-9.392h25.966v-3.591h-30.064zM222.292-2540.655v30.708h28.315v-3.591H226.39v-27.117z"/></g><g style="line-height:1.25;-inkscape-font-specification:'Microgramma D Extended'" aria-label="QUINTANILHA" font-weight="700" font-size="46.039" font-family="Microgramma D Extended" letter-spacing="1.679" word-spacing=".127" fill="#003380" stroke-width=".265"><path style="-inkscape-font-specification:'Microgramma D Extended Bold'" d="M75.823-2469.048l-3.96-2.025c.184-1.52.276-4.006.276-6.906 0-9.024-.644-12.063-3.038-13.904-2.348-1.796-5.203-2.118-18.048-2.118-12.845 0-15.699.322-18.047 2.118-2.348 1.795-3.039 4.88-3.039 13.673 0 8.84.691 11.925 3.039 13.72 2.348 1.75 5.249 2.118 17.725 2.118 13.398 0 16.022-.322 18.554-2.302l2.993 2.164zm-22.606-13.351l-3.729 6.491 9.899 5.249c-1.612.276-3.315.322-7.92.322-8.102 0-9.53-.138-10.772-1.105-1.06-.828-1.382-2.164-1.382-5.939 0-3.867.185-5.663.737-6.722.967-1.795 1.796-1.933 11.003-1.933 8.564 0 9.577.138 10.636 1.381.828 1.013 1.104 2.762 1.104 7.32 0 .184 0 .507-.046.967zM77.877-2493.54v14.133c.046 4.973.046 4.973.092 5.986.23 4.511.736 6.399 2.256 7.964 2.301 2.44 5.985 3.085 17.725 3.085 7.136 0 10.22-.184 12.983-.737 3.499-.736 5.847-3.176 6.353-6.675.276-2.164.322-2.67.46-9.623v-14.134h-9.345v14.134c0 .645-.046 2.118-.092 3.177-.138 2.9-.369 3.73-1.105 4.512-1.013 1.105-2.947 1.381-9.392 1.381-7.965 0-9.76-.506-10.267-2.946-.23-1.243-.23-1.29-.322-6.124v-14.134zM123.621-2493.54v30.708h9.806v-30.709zM139.418-2493.54v30.708h9.53l-.23-22.928h1.012l16.16 22.928h16.252v-30.709h-9.53l.23 22.882h-.967l-16.067-22.882zM185.961-2493.54v7.826h13.674v22.882h9.806v-22.882h13.674v-7.827zM256.092-2462.832h10.635l-16.068-30.709h-14.548l-16.252 30.709h10.68l2.625-5.203h20.303zm-5.893-11.925h-13.72l5.939-11.648h1.842zM269.804-2493.54v30.708h9.53l-.23-22.928h1.013l16.16 22.928h16.252v-30.709h-9.53l.23 22.882h-.967l-16.068-22.882zM318.512-2493.54v30.708h9.806v-30.709zM334.309-2493.54v30.708h31.629v-7.827h-21.823v-22.882zM369.798-2493.54v30.708h9.806v-11.096h21.132v11.096h9.807v-30.709h-9.807v11.004h-21.132v-11.004zM449.814-2462.832h10.635l-16.068-30.709h-14.548l-16.252 30.709h10.68l2.625-5.203h20.303zm-5.893-11.925H430.2l5.939-11.648h1.842z"/></g></g></g><g stroke-width="5.819"><path d="M759.734-3197.62a19.144 19.144 0 0 0-19.144 19.144 19.144 19.144 0 0 0 19.144 19.144 19.144 19.144 0 0 0 19.144-19.144 19.144 19.144 0 0 0-19.144-19.144zm4.871 13.432c4.64 0 5.67.117 6.518.765.865.665 1.098 1.763 1.098 5.022 0 1.047-.033 1.945-.1 2.494l1.43.732-1.28 2.361-1.08-.781c-.915.715-1.863.831-6.702.831-2.522 0-3.96-.042-4.887-.19v.024h-3.326v-.582c0-1.247-.066-1.647-.332-1.93-.233-.265-.482-.299-1.88-.299h-4.772v2.81h-3.375v-11.09h8.164c3.557 0 3.807 0 4.399.348.832-.43 2.161-.515 6.125-.515zm0 2.877c-3.326 0-3.625.05-3.974.698-.2.383-.266 1.031-.266 2.428 0 1.364.116 1.846.499 2.145.449.35.964.4 3.89.4 1.664 0 2.279-.017 2.86-.117l-3.574-1.896 1.347-2.344 3.442 2.178c.016-.166.016-.283.016-.35 0-1.646-.1-2.277-.399-2.643-.382-.45-.748-.5-3.84-.5zm-15.313.066v2.728h4.756c1.696-.034 1.696-.034 1.93-.2.265-.166.365-.499.365-1.197 0-.749-.133-1.065-.482-1.214-.233-.1-.283-.1-1.813-.117z" fill="#003380"/><g aria-label="RAFAEL" style="line-height:1.25;-inkscape-font-specification:'Microgramma D Extended'" font-weight="400" font-size="46.039" font-family="Microgramma D Extended" letter-spacing="1.679" word-spacing=".127" stroke-width="1.54"><path d="M783.716-3179.925h.704v-2.033h2.587c1.14.007 1.14.007 1.385.047.332.048.522.245.562.586.031.205.031.213.031.894v.506h.704v-.752c0-.902-.031-1.06-.237-1.273-.135-.143-.285-.222-.538-.27.696-.142.87-.419.87-1.392 0-.435-.047-.696-.166-.941-.166-.325-.483-.53-.91-.586-.364-.047-.372-.047-1.7-.063h-3.292zm.704-2.65v-2.01h2.587c1.274 0 1.59.032 1.804.19.158.11.253.403.253.775 0 .27-.047.57-.11.688-.143.27-.467.356-1.314.356h-.633zM796.565-3179.925h.783l-2.982-5.277h-1.124l-2.99 5.277h.799l.625-1.116h4.264zm-.957-1.733h-3.592l1.661-2.927h.285zM797.953-3179.925h.704v-2.366h4.059v-.617h-4.059v-1.677h4.249v-.617h-4.953zM809.01-3179.925h.783l-2.983-5.277h-1.123l-2.99 5.277h.798l.625-1.116h4.264zm-.958-1.733h-3.592l1.662-2.927h.285zM810.397-3179.925h5.174v-.617h-4.47v-1.812h4.273v-.617H811.1v-1.614h4.463v-.617h-5.167zM816.357-3185.202v5.277h4.865v-.617h-4.161v-4.66z" style="-inkscape-font-specification:'Microgramma D Extended'"/></g><g aria-label="QUINTANILHA" style="line-height:1.25;-inkscape-font-specification:'Microgramma D Extended'" font-weight="700" font-size="46.039" font-family="Microgramma D Extended" letter-spacing="1.679" word-spacing=".127" stroke-width="1.54"><path d="M791.187-3172.897l-.68-.348c.031-.261.047-.688.047-1.187 0-1.55-.11-2.073-.522-2.389-.404-.309-.894-.364-3.101-.364-2.208 0-2.698.055-3.102.364-.403.309-.522.839-.522 2.35 0 1.519.119 2.049.522 2.357.404.301.902.364 3.046.364 2.303 0 2.753-.055 3.189-.395l.514.372zm-3.885-2.294l-.64 1.115 1.7.902c-.276.048-.569.056-1.36.056-1.393 0-1.638-.024-1.851-.19-.182-.143-.238-.372-.238-1.02 0-.665.032-.974.127-1.156.166-.308.308-.332 1.89-.332 1.472 0 1.646.024 1.828.237.143.174.19.475.19 1.258 0 .032 0 .087-.008.166zM791.54-3177.106v2.429c.008.854.008.854.016 1.029.04.775.126 1.1.387 1.368.396.42 1.029.53 3.046.53 1.227 0 1.757-.031 2.231-.126.602-.127 1.005-.546 1.092-1.147.048-.372.056-.46.08-1.654v-2.429h-1.607v2.429c0 .11-.008.364-.015.546-.024.498-.064.64-.19.775-.174.19-.507.238-1.614.238-1.369 0-1.678-.087-1.765-.507-.04-.213-.04-.221-.055-1.052v-2.429zM799.4-3177.106v5.277h1.686v-5.277zM802.115-3177.106v5.277h1.638l-.04-3.94h.175l2.777 3.94h2.792v-5.277h-1.637l.04 3.932h-.167l-2.761-3.932zM810.114-3177.106v1.345h2.35v3.932h1.685v-3.932h2.35v-1.345zM822.165-3171.829h1.828l-2.762-5.277h-2.5l-2.792 5.277h1.835l.451-.894h3.49zm-1.013-2.049h-2.357l1.02-2.002h.317zM824.521-3177.106v5.277h1.638l-.04-3.94h.175l2.777 3.94h2.792v-5.277h-1.637l.04 3.932h-.167l-2.761-3.932zM832.892-3177.106v5.277h1.685v-5.277zM835.606-3177.106v5.277h5.435v-1.345h-3.75v-3.932zM841.705-3177.106v5.277h1.685v-1.906h3.631v1.906h1.685v-5.277h-1.685v1.891h-3.631v-1.89zM855.455-3171.829h1.827l-2.76-5.277h-2.5l-2.794 5.277h1.836l.45-.894h3.49zm-1.013-2.049h-2.358l1.021-2.002h.317z" style="-inkscape-font-specification:'Microgramma D Extended Bold'"/></g><path d="M759.734-3197.62a19.144 19.144 0 0 0-19.144 19.144 19.144 19.144 0 0 0 19.144 19.144 19.144 19.144 0 0 0 19.144-19.144 19.144 19.144 0 0 0-19.144-19.144zm4.871 13.432c4.64 0 5.67.117 6.518.765.865.665 1.098 1.763 1.098 5.022 0 1.047-.033 1.945-.1 2.494l1.43.732-1.28 2.361-1.08-.781c-.915.715-1.863.831-6.702.831-2.522 0-3.96-.042-4.887-.19v.024h-3.326v-.582c0-1.247-.066-1.647-.332-1.93-.233-.265-.482-.299-1.88-.299h-4.772v2.81h-3.375v-11.09h8.164c3.557 0 3.807 0 4.399.348.832-.43 2.161-.515 6.125-.515zm0 2.877c-3.326 0-3.625.05-3.974.698-.2.383-.266 1.031-.266 2.428 0 1.364.116 1.846.499 2.145.449.35.964.4 3.89.4 1.664 0 2.279-.017 2.86-.117l-3.574-1.896 1.347-2.344 3.442 2.178c.016-.166.016-.283.016-.35 0-1.646-.1-2.277-.399-2.643-.382-.45-.748-.5-3.84-.5zm-15.313.066v2.728h4.756c1.696-.034 1.696-.034 1.93-.2.265-.166.365-.499.365-1.197 0-.749-.133-1.065-.482-1.214-.233-.1-.283-.1-1.813-.117z" fill="#003380"/><g aria-label="RAFAEL" style="line-height:1.25;-inkscape-font-specification:'Microgramma D Extended'" font-weight="400" font-size="46.039" font-family="Microgramma D Extended" letter-spacing="1.679" word-spacing=".127" stroke-width="1.54"><path d="M783.716-3179.925h.704v-2.033h2.587c1.14.007 1.14.007 1.385.047.332.048.522.245.562.586.031.205.031.213.031.894v.506h.704v-.752c0-.902-.031-1.06-.237-1.273-.135-.143-.285-.222-.538-.27.696-.142.87-.419.87-1.392 0-.435-.047-.696-.166-.941-.166-.325-.483-.53-.91-.586-.364-.047-.372-.047-1.7-.063h-3.292zm.704-2.65v-2.01h2.587c1.274 0 1.59.032 1.804.19.158.11.253.403.253.775 0 .27-.047.57-.11.688-.143.27-.467.356-1.314.356h-.633zM796.565-3179.925h.783l-2.982-5.277h-1.124l-2.99 5.277h.799l.625-1.116h4.264zm-.957-1.733h-3.592l1.661-2.927h.285zM797.953-3179.925h.704v-2.366h4.059v-.617h-4.059v-1.677h4.249v-.617h-4.953zM809.01-3179.925h.783l-2.983-5.277h-1.123l-2.99 5.277h.798l.625-1.116h4.264zm-.958-1.733h-3.592l1.662-2.927h.285zM810.397-3179.925h5.174v-.617h-4.47v-1.812h4.273v-.617H811.1v-1.614h4.463v-.617h-5.167zM816.357-3185.202v5.277h4.865v-.617h-4.161v-4.66z" style="-inkscape-font-specification:'Microgramma D Extended'"/></g><g aria-label="QUINTANILHA" style="line-height:1.25;-inkscape-font-specification:'Microgramma D Extended'" font-weight="700" font-size="46.039" font-family="Microgramma D Extended" letter-spacing="1.679" word-spacing=".127" fill="#003380" stroke-width="1.54"><path d="M791.187-3172.897l-.68-.348c.031-.261.047-.688.047-1.187 0-1.55-.11-2.073-.522-2.389-.404-.309-.894-.364-3.101-.364-2.208 0-2.698.055-3.102.364-.403.309-.522.839-.522 2.35 0 1.519.119 2.049.522 2.357.404.301.902.364 3.046.364 2.303 0 2.753-.055 3.189-.395l.514.372zm-3.885-2.294l-.64 1.115 1.7.902c-.276.048-.569.056-1.36.056-1.393 0-1.638-.024-1.851-.19-.182-.143-.238-.372-.238-1.02 0-.665.032-.974.127-1.156.166-.308.308-.332 1.89-.332 1.472 0 1.646.024 1.828.237.143.174.19.475.19 1.258 0 .032 0 .087-.008.166zM791.54-3177.106v2.429c.008.854.008.854.016 1.029.04.775.126 1.1.387 1.368.396.42 1.029.53 3.046.53 1.227 0 1.757-.031 2.231-.126.602-.127 1.005-.546 1.092-1.147.048-.372.056-.46.08-1.654v-2.429h-1.607v2.429c0 .11-.008.364-.015.546-.024.498-.064.64-.19.775-.174.19-.507.238-1.614.238-1.369 0-1.678-.087-1.765-.507-.04-.213-.04-.221-.055-1.052v-2.429zM799.4-3177.106v5.277h1.686v-5.277zM802.115-3177.106v5.277h1.638l-.04-3.94h.175l2.777 3.94h2.792v-5.277h-1.637l.04 3.932h-.167l-2.761-3.932zM810.114-3177.106v1.345h2.35v3.932h1.685v-3.932h2.35v-1.345zM822.165-3171.829h1.828l-2.762-5.277h-2.5l-2.792 5.277h1.835l.451-.894h3.49zm-1.013-2.049h-2.357l1.02-2.002h.317zM824.521-3177.106v5.277h1.638l-.04-3.94h.175l2.777 3.94h2.792v-5.277h-1.637l.04 3.932h-.167l-2.761-3.932zM832.892-3177.106v5.277h1.685v-5.277zM835.606-3177.106v5.277h5.435v-1.345h-3.75v-3.932zM841.705-3177.106v5.277h1.685v-1.906h3.631v1.906h1.685v-5.277h-1.685v1.891h-3.631v-1.89zM855.455-3171.829h1.827l-2.76-5.277h-2.5l-2.794 5.277h1.836l.45-.894h3.49zm-1.013-2.049h-2.358l1.021-2.002h.317z" style="-inkscape-font-specification:'Microgramma D Extended Bold'"/></g></g><path d="M-262.87-2114.581h724.914v286.896H-262.87z"/><g stroke-width="1.645"><path d="M-514.537-1945.49a67.733 67.733 0 0 0-67.733 67.733 67.733 67.733 0 0 0 67.733 67.733 67.733 67.733 0 0 0 67.733-67.733 67.733 67.733 0 0 0-67.733-67.733zm17.234 47.524c16.414 0 20.062.412 23.062 2.706 3.06 2.354 3.883 6.237 3.883 17.768 0 3.706-.117 6.883-.353 8.825l5.06 2.588-4.53 8.355-3.824-2.766c-3.236 2.53-6.59 2.942-23.71 2.942-8.922 0-14.01-.148-17.289-.67v.082h-11.766v-2.06c0-4.412-.236-5.824-1.177-6.824-.824-.941-1.706-1.06-6.648-1.06h-16.885v9.944h-11.943v-39.242h28.887c12.582 0 13.466.002 15.562 1.232 2.944-1.519 7.647-1.82 21.671-1.82zm0 10.178c-11.767 0-12.825.177-14.06 2.471-.707 1.353-.942 3.648-.942 8.59 0 4.824.412 6.53 1.765 7.589 1.588 1.235 3.412 1.412 13.766 1.412 5.884 0 8.06-.059 10.12-.412l-12.65-6.707 4.766-8.295 12.178 7.707c.06-.589.06-1 .06-1.236 0-5.824-.354-8.06-1.413-9.354-1.353-1.588-2.647-1.765-13.59-1.765zm-54.177.235v9.649h16.826c6.001-.118 6.001-.118 6.825-.706.941-.589 1.294-1.765 1.294-4.236 0-2.647-.47-3.765-1.706-4.295-.824-.353-1-.353-6.413-.412z" fill="#003380"/></g><g><path d="M-361.908-1093.525h135.467v135.466h-135.467z" fill="#fff"/></g><g><path d="M67.806 461.329h135.466v135.466H67.806z" fill="#fff"/><path d="M135.539 462.916a66.146 66.146 0 0 0-66.146 66.146 66.146 66.146 0 0 0 66.146 66.146 66.146 66.146 0 0 0 66.146-66.146 66.146 66.146 0 0 0-66.146-66.146zm16.83 46.41c16.03 0 19.592.403 22.522 2.644 2.988 2.298 3.792 6.09 3.792 17.35 0 3.62-.115 6.723-.345 8.619l4.941 2.528-4.424 8.158-3.734-2.7c-3.16 2.47-6.435 2.872-23.154 2.872-8.713 0-13.682-.144-16.884-.653v.079h-11.49v-2.011c0-4.31-.23-5.688-1.15-6.665-.804-.92-1.666-1.034-6.492-1.034H99.462v9.71H87.8v-38.322h28.21c12.287 0 13.15.002 15.197 1.203 2.875-1.483 7.468-1.777 21.163-1.777zm0 9.94c-11.49 0-12.524.172-13.731 2.413-.69 1.322-.92 3.562-.92 8.388 0 4.712.403 6.378 1.724 7.412 1.552 1.206 3.332 1.379 13.444 1.379 5.746 0 7.872-.057 9.883-.402l-12.353-6.55 4.654-8.1 11.892 7.525c.058-.574.058-.976.058-1.206 0-5.688-.345-7.871-1.379-9.135-1.321-1.551-2.585-1.724-13.272-1.724zm-52.907.23v9.422h16.432c5.86-.114 5.86-.115 6.664-.69.92-.574 1.264-1.723 1.264-4.136 0-2.585-.46-3.677-1.666-4.194-.804-.345-.976-.345-6.262-.402z" fill="#003380" stroke-width="1.684"/></g><g><path d="M0 0h135.467v135.467H0z" fill="#003380"/><path d="M12.896 39.79H118.14v57.406H12.896z" fill="#fff"/><path d="M67.733 1.588A66.146 66.146 0 0 0 1.588 67.733a66.146 66.146 0 0 0 66.145 66.146 66.146 66.146 0 0 0 66.146-66.146A66.146 66.146 0 0 0 67.733 1.588zm16.83 46.41c16.03 0 19.592.402 22.522 2.643 2.988 2.298 3.793 6.09 3.793 17.35 0 3.62-.116 6.723-.345 8.62l4.94 2.527-4.423 8.158-3.735-2.7c-3.16 2.47-6.434 2.873-23.153 2.873-8.713 0-13.683-.145-16.884-.654v.08H55.787v-2.012c0-4.31-.23-5.688-1.15-6.665-.804-.919-1.666-1.034-6.492-1.034H31.656v9.71H19.993V48.572h28.21c12.287 0 13.15 0 15.197 1.203 2.876-1.483 7.469-1.777 21.164-1.777zm0 9.94c-11.49 0-12.524.172-13.73 2.413-.69 1.321-.92 3.562-.92 8.388 0 4.71.402 6.377 1.724 7.411 1.55 1.207 3.332 1.38 13.444 1.38 5.745 0 7.87-.058 9.882-.403l-12.353-6.55 4.654-8.1 11.893 7.526c.058-.575.058-.977.058-1.207 0-5.688-.345-7.87-1.38-9.135-1.32-1.551-2.585-1.724-13.271-1.724zm-52.907.23v9.422h16.432c5.86-.115 5.86-.115 6.665-.69.919-.574 1.264-1.723 1.264-4.136 0-2.586-.46-3.677-1.667-4.195-.804-.344-.976-.344-6.262-.402z" fill="#003380"/></g></svg>