<?xml version="1.0" encoding="UTF-8" standalone="no"?>
<!-- Generator: Adobe Illustrator 17.0.0, SVG Export Plug-In . SVG Version: 6.00 Build 0)  -->

<svg
   version="1.1"
   id="Layer_1"
   x="0px"
   y="0px"
   width="512"
   height="512"
   viewBox="0 0 512 512"
   enable-background="new 0 0 500 500"
   xml:space="preserve"
   ><metadata
   id="metadata28"></metadata><defs
   id="defs26" /><sodipodi:namedview
   pagecolor="#ffffff"
   bordercolor="#666666"
   borderopacity="1"
   objecttolerance="10"
   gridtolerance="10"
   guidetolerance="10"
   id="namedview24"
   showgrid="false" />
<g
   id="g21"
   transform="matrix(1.9013767,0,0,1.9013767,-220.24733,-219.06087)"
   style="stroke-width:0.52593464">
	<g
   id="g15"
   style="stroke-width:0.52593464">
		<g
   id="g13"
   style="stroke-width:0.52593464">
			<polygon
   points="381.621,159.648 381.621,189.321 351.948,159.648 "
   id="polygon2"
   style="fill:#49ce8b;stroke-width:0.52593464" />
			<path
   d="m 381.1,171.677 -2.091,-2.158 -6.947,-7.217 -0.135,-0.203 -2.091,-2.091 -8.903,8.566 h -0.068 l -13.962,13.49 -8.701,8.431 v -0.068 l -9.578,9.173 -15.648,15.109 -56.118,54.027 -42.898,-43.909 -69.675,68.056 c -5.801,-13.153 -9.106,-27.654 -9.106,-43.1 0,-29.543 11.939,-56.253 31.364,-75.678 19.358,-19.425 46.001,-31.364 75.746,-31.364 22.528,0 43.437,6.947 60.637,18.886 0.539,0.405 1.079,0.742 1.619,1.146 1.214,0.877 2.428,1.821 3.574,2.698 v -0.809 c 0,-1.416 0.337,-2.698 0.945,-3.845 0.202,-3.979 2.293,-8.027 6.408,-9.51 -0.27,-0.203 -0.607,-0.472 -0.877,-0.607 -0.809,-0.674 -1.551,-1.282 -2.293,-1.821 h -0.068 c -9.915,-6.947 -20.909,-12.411 -32.645,-16.12 -11.736,-3.777 -24.282,-5.801 -37.3,-5.801 -67.922,0 -122.96,54.971 -122.96,122.825 0,19.763 4.654,38.379 12.95,54.836 l -0.068,0.068 1.012,1.956 c 1.686,3.237 3.508,6.34 5.464,9.375 l 2.023,3.035 0.068,-0.068 c 1.147,1.686 2.226,3.305 3.508,4.924 0.135,0.337 0.405,0.607 0.607,0.877 1.754,2.226 3.507,4.452 5.531,6.543 0.135,0.202 0.27,0.337 0.405,0.54 10.185,11.399 22.461,20.909 36.288,27.857 16.593,8.296 35.276,13.018 55.173,13.018 67.854,0 122.826,-55.039 122.826,-122.96 0,-6.273 -0.472,-12.41 -1.417,-18.414 0,0 0,0 0,-0.068 -0.135,-0.742 -0.202,-1.416 -0.405,-2.159 -0.071,-0.48 -0.186,-0.942 -0.266,-1.421 -1.361,3.6 -4.542,6.546 -9.417,6.546 -2.404,0 -4.293,-0.709 -5.7,-1.85 0.108,0.55 0.22,1.1 0.275,1.65 0.742,5.126 1.146,10.387 1.146,15.715 -0.067,29.61 -11.938,56.388 -31.431,75.746 -9.645,9.713 -21.179,17.537 -33.927,22.933 -12.815,5.463 -26.912,8.431 -41.684,8.431 -29.745,0 -56.388,-11.938 -75.746,-31.364 -1.551,-1.484 -3.035,-3.035 -4.384,-4.654 -1.956,-2.091 -3.71,-4.317 -5.396,-6.61 l -0.068,-0.067 v -0.068 c -0.539,-0.675 -1.146,-1.484 -1.753,-2.294 l -0.068,-0.068 c -0.54,-0.742 -1.012,-1.484 -1.619,-2.36 h -0.068 v -0.068 c -0.337,-0.405 -0.607,-0.944 -0.944,-1.484 l 0.54,-0.472 60.974,-59.49 42.696,43.775 64.616,-62.121 11.804,-11.399 20.505,-19.763 19.021,-18.279 z"
   id="path4"
   style="fill:#49ce8b;stroke-width:0.52593464" />
			<linearGradient
   id="SVGID_1_"
   gradientUnits="userSpaceOnUse"
   x1="145.11681"
   y1="306.8602"
   x2="153.8139"
   y2="324.89871">
				<stop
   offset="0"
   style="stop-color:#000000"
   id="stop6" />
				<stop
   offset="1"
   style="stop-color:#21EFF9;stop-opacity:0"
   id="stop8" />
			</linearGradient>
			<path
   d="m 162.159,320.875 -11.331,10.994 c -0.135,-0.203 -0.27,-0.338 -0.405,-0.54 -2.091,-2.563 -4.182,-4.924 -6.138,-7.419 -1.282,-1.552 -2.496,-3.17 -3.575,-4.856 l 0.068,-0.068 11.467,-11.129 c 0.337,0.539 0.607,1.079 0.944,1.484 v 0.068 h 0.068 c 0.607,0.877 1.079,1.619 1.619,2.36 l 0.068,0.068 c 0.607,0.809 1.214,1.619 1.753,2.294 v 0.068 l 0.068,0.067 c 1.685,2.292 3.438,4.518 5.394,6.609 z"
   id="path11"
   style="fill:url(#SVGID_1_);stroke-width:0.52593464" />
		</g>
	</g>
	<path
   d="m 317.057,147.193 c -8.265,0 -14.966,6.7 -14.966,14.965 0,8.265 6.7,14.965 14.966,14.965 8.265,0 14.965,-6.701 14.965,-14.965 0,-8.265 -6.7,-14.965 -14.965,-14.965 z m 0,21.499 c -3.609,0 -6.534,-2.925 -6.534,-6.534 0,-3.609 2.925,-6.534 6.534,-6.534 3.609,0 6.534,2.925 6.534,6.534 0,3.609 -2.925,6.534 -6.534,6.534 z"
   id="path17"
   style="fill:#49ce8b;stroke-width:0.52593464" />
	<path
   d="m 354.997,210.427 c -8.265,0 -14.965,6.7 -14.965,14.965 0,8.265 6.7,14.965 14.965,14.965 8.265,0 14.965,-6.701 14.965,-14.965 0,-8.266 -6.699,-14.965 -14.965,-14.965 z m 0,21.499 c -3.609,0 -6.534,-2.925 -6.534,-6.534 0,-3.609 2.925,-6.534 6.534,-6.534 3.609,0 6.534,2.925 6.534,6.534 0,3.609 -2.925,6.534 -6.534,6.534 z"
   id="path19"
   style="fill:#49ce8b;stroke-width:0.52593464" />
</g>
</svg>