<svg xmlns="http://www.w3.org/2000/svg" viewBox="0 0 135.467 135.467" height="512" width="512"><text y="128.366" x="-43.405" style="line-height:1.25;-inkscape-font-specification:'Microgramma D Extended'" font-weight="400" font-size="6.605" font-family="Microgramma D Extended" letter-spacing="4.691" word-spacing=".018" stroke-width=".265" transform="translate(-1587.131 -2784.216)"><tspan style="-inkscape-font-specification:'Microgramma D Extended'" y="128.366" x="-43.405">WEB DEVELOPMENT</tspan></text><g font-family="Microgramma D Extended"><g aria-label="RQ" style="line-height:1.25;-inkscape-font-specification:'Microgramma D Extended Bold'" font-weight="700" font-size="192" letter-spacing="-42.34" word-spacing=".11" stroke-width=".547"><path d="M-1415.744-2420.71h18.859v-15.7h26.663c7.804 0 9.197.186 10.498 1.673 1.486 1.58 1.858 3.809 1.858 10.776v3.252h18.58v-5.76c.372-14.307-1.3-17.094-10.87-18.209 3.717-.557 5.482-1.207 7.247-2.601 3.344-2.508 4.273-6.039 4.273-15.236 0-10.777-1.393-14.864-6.131-17.744-3.995-2.416-3.995-2.416-25.362-2.416h-45.615zm18.859-31.214v-15.236h26.57c8.547.093 8.826.093 10.126.65 1.951.836 2.694 2.602 2.694 6.782 0 3.902-.557 5.76-2.043 6.69-1.301.928-1.301.928-10.777 1.114z"/><path d="M-1261.353-2433.25l-7.99-4.089c.372-3.065.558-8.082.558-13.935 0-18.209-1.3-24.34-6.132-28.056-4.738-3.623-10.498-4.274-36.417-4.274-25.92 0-31.68.65-36.418 4.274-4.738 3.623-6.131 9.847-6.131 27.592 0 17.837 1.393 24.061 6.131 27.684 4.738 3.53 10.59 4.274 35.767 4.274 27.035 0 32.33-.65 37.44-4.645l6.038 4.366zm-45.615-26.942l-7.525 13.099 19.974 10.59c-3.252.558-6.69.65-15.98.65-16.35 0-19.23-.278-21.738-2.229-2.137-1.672-2.787-4.366-2.787-11.984 0-7.804.371-11.427 1.486-13.564 1.951-3.623 3.623-3.902 22.204-3.902 17.28 0 19.323.28 21.46 2.787 1.672 2.044 2.23 5.575 2.23 14.772 0 .371 0 1.022-.093 1.95z"/></g><g aria-label="WEB DEVELOPMENT" style="line-height:1.25;-inkscape-font-specification:'Microgramma D Extended'" font-weight="400" font-size="6.605" letter-spacing="4.691" word-spacing=".018" stroke-width=".265"><path d="M-1415.744-2414.68l2.021 4.405h1.004l1.671-3.765 1.599 3.765h.997l2.074-4.406h-.64l-1.83 3.91h-.179l-1.658-3.91h-.733l-1.724 3.91h-.185l-1.783-3.91zM-1401.439-2410.275h4.32v-.515h-3.732v-1.513h3.567v-.515h-3.567v-1.347h3.726v-.516h-4.314zM-1392.013-2410.275h2.92c1.202 0 1.664-.08 1.915-.343.165-.172.244-.456.244-.905 0-.694-.191-.978-.713-1.064.41-.152.542-.39.542-.964 0-.29-.033-.45-.126-.614-.152-.284-.456-.456-.858-.49-.199-.012-.199-.012-1.004-.025h-2.92zm.588-2.51v-1.38h2.332c1.037.02 1.07.026 1.215.138.112.086.172.284.172.549 0 .297-.073.475-.232.574-.158.1-.35.12-1.155.12zm0 1.995v-1.48h2.332c1.189.02 1.189.02 1.367.146.132.092.191.284.191.588 0 .66-.178.746-1.558.746zM-1375.324-2410.275h3.085c1.242 0 1.579-.066 1.896-.363.33-.31.469-.865.469-1.843 0-1.037-.093-1.466-.383-1.777-.33-.35-.668-.422-2.028-.422h-3.039zm.588-.515v-3.375h2.438c.495 0 .686 0 .805.013.403.026.608.106.753.277.172.218.265.687.265 1.368 0 1.07-.192 1.545-.668 1.658-.244.059-.27.059-1.122.059zM-1364.62-2410.275h4.319v-.515h-3.732v-1.513h3.567v-.515h-3.567v-1.347h3.725v-.516h-4.313zM-1355.611-2414.68l2.483 4.405h.905l2.431-4.406h-.654l-2.127 3.865h-.211l-2.18-3.865zM-1344.853-2410.275h4.32v-.515h-3.733v-1.513h3.567v-.515h-3.567v-1.347h3.726v-.516h-4.313zM-1335.428-2414.68v4.405h4.062v-.515h-3.474v-3.89zM-1323.524-2414.694c-.383 0-1.143.02-1.407.033-.601.04-.826.1-1.05.264-.324.251-.43.72-.43 1.903 0 .713.027 1.123.1 1.413.079.357.363.634.72.714.33.072 1.083.105 2.259.105 1.347 0 1.836-.086 2.093-.356.245-.265.337-.76.337-1.843 0-.337-.02-.78-.046-1.004-.046-.47-.125-.694-.31-.872-.284-.284-.76-.357-2.266-.357zm-.343.529c1.129 0 1.466.013 1.803.066.297.046.456.178.495.43.04.197.066.726.066 1.221 0 .41-.033.885-.072 1.123-.053.264-.192.403-.45.45-.297.052-.905.085-1.552.085-.284 0-1.024-.02-1.261-.033-.49-.033-.668-.08-.786-.205-.14-.152-.185-.535-.185-1.512 0-.846.066-1.262.224-1.407.172-.159.621-.218 1.718-.218zM-1315.635-2410.275h.588v-1.658h2.2c.436 0 .693 0 .773-.007.58-.013.772-.066 1.01-.27.238-.199.33-.516.33-1.11 0-.601-.105-.932-.356-1.123-.271-.205-.271-.205-1.757-.238h-2.788zm.588-2.173v-1.717h2.2c1.103.02 1.169.033 1.347.165.132.099.165.244.165.7 0 .416-.046.581-.178.694-.178.145-.264.158-1.334.158zM-1305.628-2414.68v4.405h.587v-3.857h.258l2.484 3.857h.475l2.457-3.857h.245v3.857h.588v-4.406h-1.183l-2.345 3.74-2.39-3.74zM-1293.184-2410.275h4.32v-.515h-3.732v-1.513h3.567v-.515h-3.567v-1.347h3.725v-.516h-4.313zM-1283.758-2414.68v4.405h.588v-3.857h.132l3.837 3.857h.998v-4.406h-.588v3.865h-.139l-3.85-3.865zM-1273.18-2414.68v.515h2.214v3.89h.587v-3.89h2.2v-.515z" style="-inkscape-font-specification:'Microgramma D Extended'"/></g></g><text style="line-height:1.25;-inkscape-font-specification:'Microgramma D Extended'" x="-43.405" y="128.366" font-weight="400" font-size="6.605" font-family="Microgramma D Extended" letter-spacing="4.691" word-spacing=".018" stroke-width=".265" transform="translate(-1587.131 -2784.216)"><tspan x="-43.405" y="128.366" style="-inkscape-font-specification:'Microgramma D Extended'">WEB DEVELOPMENT</tspan></text><text y="235.323" x="-51.584" style="line-height:1.25;-inkscape-font-specification:'Microgramma D Extended Medium'" font-weight="500" font-size="6.605" font-family="Microgramma D Extended" letter-spacing="5.821" word-spacing=".018" stroke-width=".265" transform="translate(-1587.131 -2784.216)"><tspan style="-inkscape-font-specification:'Microgramma D Extended Medium'" y="235.323" x="-51.584">WEB DEVELOPMENT</tspan></text><path d="M-1799.267-2635.749c-22.144 0-29.572.477-34.22 2.874-3.31-1.942-4.707-1.945-24.576-1.945h-45.614v60.963h18.859v-14.697h26.663c7.804 0 9.197.185 10.497 1.672 1.487 1.58 1.859 3.809 1.859 10.777v2.248h78.245c2.066-.664 3.581-1.544 5.076-2.713l6.038 4.366 7.154-13.192-7.99-4.087c.372-3.066.558-8.083.558-13.936 0-18.208-1.3-24.34-6.132-28.056-4.738-3.623-10.498-4.274-36.417-4.274zm0 16.073c17.28 0 19.323.278 21.46 2.786 1.672 2.044 2.23 5.574 2.23 14.772 0 .371 0 1.022-.093 1.95l-19.231-12.17-7.525 13.1 19.974 10.59c-3.252.558-6.689.65-15.98.65-16.35 0-19.23-.278-21.738-2.229-2.137-1.672-2.787-4.366-2.787-11.984 0-7.804.371-11.427 1.486-13.564 1.95-3.623 3.623-3.901 22.204-3.901zm-85.551.371h26.57c8.547.093 8.826.093 10.126.65 1.951.836 2.694 2.602 2.694 6.782 0 3.902-.557 5.76-2.043 6.69-1.301.928-1.301.928-10.777 1.114h-26.57z" style="line-height:1.25;-inkscape-font-specification:'Microgramma D Extended Bold'" font-weight="700" font-size="192" font-family="Microgramma D Extended" letter-spacing="-42.34" word-spacing=".11"/><text style="line-height:1.25;-inkscape-font-specification:'Microgramma D Extended'" x="-316.46" y="219.958" font-weight="400" font-size="6.605" font-family="Microgramma D Extended" letter-spacing="4.691" word-spacing=".018" stroke-width=".265" transform="translate(-1587.131 -2784.216)"><tspan x="-316.46" y="219.958" style="-inkscape-font-specification:'Microgramma D Extended'">WEB DEVELOPMENT</tspan></text><path d="M-2270.1-3178.119a111.406 111.406 0 0 0-111.406 111.406 111.406 111.406 0 0 0 111.406 111.406 111.406 111.406 0 0 0 111.406-111.406 111.406 111.406 0 0 0-111.406-111.406zm28.346 78.167c26.998 0 32.997.677 37.932 4.451 5.032 3.87 6.387 10.257 6.387 29.223 0 6.097-.193 11.322-.58 14.516l8.322 4.257-7.451 13.741-6.29-4.548c-5.322 4.16-10.838 4.838-38.997 4.838-14.675 0-23.044-.243-28.437-1.1v.133h-19.353v-3.387c0-7.258-.387-9.58-1.935-11.225-1.355-1.548-2.807-1.742-10.935-1.742h-27.772v16.354h-19.643v-64.543h47.512c20.695 0 22.149.003 25.596 2.025 4.843-2.497 12.579-2.993 35.644-2.993zm0 16.74c-19.353 0-21.095.29-23.127 4.065-1.16 2.225-1.548 5.999-1.548 14.127 0 7.935.678 10.741 2.903 12.483 2.613 2.032 5.612 2.323 22.643 2.323 9.677 0 13.257-.097 16.644-.677l-20.805-11.032 7.839-13.644 20.03 12.676c.097-.968.097-1.645.097-2.032 0-9.58-.581-13.257-2.323-15.385-2.226-2.613-4.354-2.904-22.353-2.904zm-89.109.387v15.87h27.676c9.87-.193 9.87-.194 11.224-1.161 1.549-.968 2.13-2.903 2.13-6.967 0-4.354-.775-6.193-2.807-7.064-1.355-.58-1.645-.581-10.547-.678z" opacity=".57" fill="#0000d4"/><path d="M-2022.746-3174.56a111.406 111.406 0 0 0-111.405 111.406 111.406 111.406 0 0 0 111.405 111.406 111.406 111.406 0 0 0 111.407-111.406 111.406 111.406 0 0 0-111.407-111.406zm28.347 78.167c26.998 0 32.997.677 37.932 4.451 5.032 3.871 6.387 10.257 6.387 29.223 0 6.097-.194 11.322-.58 14.516l8.321 4.257-7.45 13.741-6.29-4.548c-5.323 4.16-10.838 4.838-38.997 4.838-14.675 0-23.045-.243-28.437-1.1v.133h-19.353v-3.387c0-7.258-.387-9.58-1.936-11.225-1.354-1.548-2.806-1.742-10.934-1.742h-27.772v16.354h-19.644v-64.543h47.512c20.696 0 22.15.003 25.597 2.025 4.842-2.497 12.578-2.993 35.644-2.993zm0 16.74c-19.353 0-21.095.29-23.127 4.065-1.161 2.225-1.549 6-1.549 14.127 0 7.935.678 10.741 2.904 12.483 2.612 2.032 5.612 2.323 22.643 2.323 9.676 0 13.257-.097 16.644-.677l-20.805-11.032 7.838-13.644 20.03 12.676c.097-.967.097-1.645.097-2.032 0-9.58-.58-13.256-2.322-15.385-2.226-2.613-4.355-2.904-22.353-2.904zm-89.109.387v15.87h27.675c9.87-.193 9.87-.194 11.225-1.161 1.548-.968 2.129-2.903 2.129-6.967 0-4.354-.775-6.193-2.807-7.064-1.354-.58-1.644-.58-10.547-.678z" fill="#806600"/><path d="M-1716.432-3220.525a111.406 111.406 0 0 0-111.406 111.405 111.406 111.406 0 0 0 111.406 111.407 111.406 111.406 0 0 0 111.406-111.407 111.406 111.406 0 0 0-111.406-111.405zm28.346 78.166c26.998 0 32.997.678 37.932 4.452 5.032 3.87 6.387 10.257 6.387 29.223 0 6.096-.193 11.322-.58 14.515l8.322 4.258-7.451 13.74-6.29-4.548c-5.322 4.161-10.838 4.839-38.997 4.839-14.675 0-23.044-.243-28.437-1.101v.133h-19.353v-3.387c0-7.257-.387-9.58-1.935-11.225-1.355-1.548-2.807-1.742-10.935-1.742h-27.771v16.354h-19.644v-64.543h47.512c20.695 0 22.149.003 25.596 2.026 4.843-2.498 12.579-2.994 35.644-2.994zm0 16.74c-19.353 0-21.095.291-23.127 4.065-1.16 2.226-1.548 6-1.548 14.128 0 7.935.678 10.74 2.903 12.483 2.613 2.032 5.612 2.322 22.643 2.322 9.677 0 13.257-.096 16.644-.677l-20.805-11.032 7.839-13.643 20.03 12.676c.097-.968.097-1.645.097-2.032 0-9.58-.581-13.257-2.323-15.386-2.226-2.613-4.354-2.903-22.353-2.903zm-89.109.388v15.87h27.676c9.87-.194 9.87-.194 11.224-1.162 1.549-.967 2.13-2.902 2.13-6.966 0-4.355-.775-6.194-2.807-7.065-1.355-.58-1.645-.58-10.547-.677z" fill="#165016"/><path d="M-2150.872-2937.882a111.406 111.406 0 0 0-111.405 111.405 111.406 111.406 0 0 0 111.405 111.407 111.406 111.406 0 0 0 111.407-111.407 111.406 111.406 0 0 0-111.407-111.405zm28.347 78.166c26.997 0 32.997.678 37.932 4.452 5.032 3.87 6.387 10.257 6.387 29.223 0 6.096-.194 11.322-.58 14.515l8.321 4.258-7.451 13.74-6.29-4.548c-5.322 4.161-10.837 4.839-38.996 4.839-14.675 0-23.045-.243-28.437-1.101v.133h-19.353v-3.387c0-7.257-.388-9.58-1.936-11.225-1.355-1.548-2.806-1.742-10.935-1.742h-27.771v16.354h-19.644v-64.543h47.512c20.696 0 22.15.003 25.597 2.026 4.842-2.498 12.578-2.994 35.644-2.994zm0 16.74c-19.354 0-21.095.291-23.127 4.065-1.161 2.226-1.549 6-1.549 14.128 0 7.935.678 10.74 2.904 12.483 2.612 2.032 5.612 2.322 22.643 2.322 9.676 0 13.257-.096 16.644-.677l-20.805-11.032 7.838-13.643 20.03 12.676c.097-.968.097-1.645.097-2.032 0-9.58-.58-13.257-2.323-15.386-2.225-2.613-4.354-2.903-22.352-2.903zm-89.11.388v15.87h27.676c9.87-.194 9.87-.194 11.225-1.162 1.548-.967 2.129-2.902 2.129-6.966 0-4.355-.775-6.194-2.807-7.065-1.354-.58-1.644-.58-10.547-.677z" fill="#0a4"/><path d="M-2167.777-3412.127a111.406 111.406 0 0 0-111.406 111.406 111.406 111.406 0 0 0 111.406 111.406 111.406 111.406 0 0 0 111.406-111.406 111.406 111.406 0 0 0-111.406-111.406zm28.346 78.167c26.998 0 32.997.677 37.932 4.451 5.032 3.87 6.387 10.257 6.387 29.223 0 6.097-.193 11.322-.58 14.516l8.322 4.257-7.452 13.74-6.29-4.547c-5.321 4.16-10.837 4.838-38.996 4.838-14.675 0-23.044-.243-28.437-1.1v.133h-19.353v-3.387c0-7.258-.387-9.58-1.935-11.225-1.355-1.549-2.807-1.742-10.935-1.742h-27.772v16.354h-19.643v-64.543h47.512c20.695 0 22.149.003 25.596 2.025 4.843-2.497 12.579-2.993 35.644-2.993zm0 16.74c-19.353 0-21.095.29-23.127 4.065-1.16 2.225-1.548 5.999-1.548 14.127 0 7.935.678 10.741 2.903 12.483 2.613 2.032 5.612 2.323 22.643 2.323 9.677 0 13.257-.097 16.644-.678l-20.805-11.031 7.838-13.644 20.03 12.676c.097-.968.097-1.645.097-2.032 0-9.58-.58-13.257-2.322-15.385-2.226-2.613-4.354-2.904-22.353-2.904zm-89.109.387v15.87h27.676c9.87-.193 9.87-.194 11.224-1.161 1.549-.968 2.13-2.903 2.13-6.967 0-4.355-.775-6.193-2.807-7.064-1.355-.58-1.645-.581-10.547-.678z" fill="#00aad4"/><path d="M-1903.517-2941.441a111.406 111.406 0 0 0-111.406 111.405 111.406 111.406 0 0 0 111.406 111.407 111.406 111.406 0 0 0 111.406-111.407 111.406 111.406 0 0 0-111.406-111.405zm28.346 78.166c26.998 0 32.997.678 37.932 4.452 5.032 3.87 6.387 10.257 6.387 29.223 0 6.096-.193 11.322-.58 14.515l8.322 4.258-7.451 13.74-6.29-4.548c-5.322 4.161-10.838 4.838-38.997 4.838-14.675 0-23.044-.242-28.437-1.1v.133h-19.353v-3.387c0-7.257-.387-9.58-1.935-11.225-1.355-1.548-2.807-1.742-10.935-1.742h-27.771v16.354h-19.644v-64.543h47.512c20.695 0 22.149.003 25.596 2.026 4.843-2.498 12.579-2.994 35.644-2.994zm0 16.74c-19.353 0-21.094.291-23.127 4.065-1.16 2.226-1.548 6-1.548 14.128 0 7.935.678 10.74 2.903 12.482 2.613 2.033 5.612 2.323 22.643 2.323 9.677 0 13.257-.096 16.644-.677l-20.805-11.032 7.839-13.643 20.03 12.676c.097-.968.097-1.645.097-2.032 0-9.58-.581-13.257-2.323-15.386-2.226-2.613-4.354-2.903-22.353-2.903zm-89.108.388v15.87h27.675c9.87-.194 9.87-.194 11.224-1.162 1.549-.968 2.13-2.902 2.13-6.967 0-4.354-.775-6.193-2.807-7.064-1.355-.58-1.645-.58-10.547-.677z" fill="#165044"/><path d="M-1886.612-3414.796a111.406 111.406 0 0 0-111.405 111.406 111.406 111.406 0 0 0 111.405 111.406 111.406 111.406 0 0 0 111.407-111.406 111.406 111.406 0 0 0-111.407-111.406zm28.347 78.166c26.998 0 32.997.678 37.932 4.452 5.032 3.87 6.387 10.257 6.387 29.223 0 6.096-.194 11.322-.58 14.515l8.321 4.258-7.45 13.74-6.29-4.548c-5.323 4.161-10.838 4.839-38.997 4.839-14.675 0-23.045-.243-28.437-1.101v.134h-19.353v-3.388c0-7.257-.388-9.58-1.936-11.225-1.354-1.548-2.806-1.741-10.934-1.741h-27.772v16.354h-19.644v-64.544h47.512c20.696 0 22.15.003 25.597 2.026 4.842-2.498 12.578-2.993 35.644-2.993zm0 16.74c-19.353 0-21.095.291-23.127 4.065-1.161 2.226-1.549 6-1.549 14.128 0 7.935.678 10.74 2.904 12.483 2.612 2.032 5.612 2.322 22.643 2.322 9.676 0 13.257-.096 16.644-.677l-20.805-11.031 7.838-13.644 20.03 12.676c.097-.968.097-1.645.097-2.032 0-9.58-.58-13.257-2.322-15.386-2.226-2.612-4.355-2.903-22.353-2.903zm-89.109.388v15.87h27.675c9.87-.194 9.87-.194 11.225-1.162 1.548-.967 2.129-2.902 2.129-6.966 0-4.355-.775-6.194-2.807-7.064-1.354-.581-1.644-.581-10.547-.678z" fill="#374548"/><path d="M-1564.36-3449.065a111.406 111.406 0 0 0-87.107 131.282 111.406 111.406 0 0 0 131.282 87.107 111.406 111.406 0 0 0 87.107-131.283 111.406 111.406 0 0 0-131.283-87.106zm43.28 70.995c26.463-5.353 32.477-5.878 38.063-3.158 5.699 2.797 8.293 8.787 12.054 27.377 1.208 5.975 2.055 11.136 2.308 14.342l9.001 2.523-4.579 14.946-7.066-3.211c-4.392 5.133-9.664 6.89-37.264 12.474-14.383 2.91-22.635 4.33-28.09 4.559l.026.13-18.969 3.838-.671-3.32c-1.439-7.114-2.28-9.313-4.123-10.618-1.635-1.25-3.096-1.151-11.063.46l-27.22 5.506 3.243 16.03-19.254 3.894-12.797-63.262 46.569-9.42c20.284-4.103 21.71-4.388 25.49-3.09 4.251-3.407 11.735-5.427 34.343-10zm3.32 16.408c-18.97 3.837-20.619 4.467-21.862 8.569-.697 2.412-.328 6.187 1.283 14.154 1.573 7.778 2.794 10.394 5.32 11.66 2.964 1.473 5.962 1.163 22.655-2.213 9.484-1.919 12.975-2.723 16.18-3.964l-22.58-6.688 4.978-14.927 22.145 8.453a19.06 19.06 0 0 0-.308-2.01c-1.899-9.39-3.197-12.879-5.327-14.62-2.699-2.12-4.843-1.982-22.484 1.586zm-87.263 18.046l3.146 15.555 27.126-5.487c9.636-2.146 9.636-2.146 10.772-3.364 1.325-1.255 1.51-3.266.705-7.25-.863-4.268-1.987-5.917-4.151-6.367-1.443-.3-1.728-.244-10.473 1.426zM-1504.013-3020.185a111.406 111.406 0 0 0-111.405 111.405 111.406 111.406 0 0 0 111.405 111.406 111.406 111.406 0 0 0 111.406-111.406 111.406 111.406 0 0 0-111.406-111.405zm28.347 78.166c26.997 0 32.997.678 37.932 4.452 5.032 3.87 6.387 10.257 6.387 29.223 0 6.096-.194 11.322-.581 14.515l8.322 4.258-7.451 13.74-6.29-4.548c-5.322 4.16-10.838 4.838-38.997 4.838-14.674 0-23.044-.243-28.436-1.1v.133h-19.353v-3.387c0-7.258-.388-9.58-1.936-11.225-1.355-1.548-2.806-1.742-10.935-1.742h-27.771v16.354h-19.644v-64.543h47.512c20.695 0 22.15.003 25.597 2.025 4.842-2.497 12.578-2.993 35.644-2.993zm0 16.74c-19.354 0-21.095.291-23.127 4.065-1.161 2.226-1.549 6-1.549 14.128 0 7.934.678 10.74 2.904 12.482 2.612 2.032 5.612 2.323 22.642 2.323 9.677 0 13.258-.097 16.645-.677l-20.805-11.032 7.838-13.644 20.03 12.676c.097-.967.097-1.644.097-2.032 0-9.58-.58-13.256-2.323-15.385-2.225-2.613-4.354-2.903-22.352-2.903zm-89.11.387v15.87h27.676c9.87-.193 9.87-.193 11.225-1.161 1.548-.968 2.129-2.903 2.129-6.967 0-4.354-.775-6.193-2.807-7.064-1.355-.58-1.645-.58-10.547-.678z" fill="#003380"/><circle cx="526.775" cy="-448.722" r="111.406" fill="#003380" transform="translate(-1593.971 -2784.216)"/><path d="M-1035.258-2890.379a111.406 111.406 0 0 1-111.406 111.406 111.406 111.406 0 0 1-111.405-111.406 111.406 111.406 0 0 1 111.405-111.406 111.406 111.406 0 0 1 111.406 111.406z" fill="#003380"/><g style="line-height:1.25;-inkscape-font-specification:'Microgramma D Extended Bold'" aria-label="RQ" font-weight="700" font-size="192" font-family="Microgramma D Extended" letter-spacing="-42.34" word-spacing=".11" fill="#fff" stroke-width=".547"><path d="M-1223.86-2859.396h18.86v-15.7h26.663c7.804 0 9.197.185 10.498 1.672 1.486 1.579 1.858 3.809 1.858 10.776v3.252h18.58v-5.76c.372-14.307-1.3-17.094-10.87-18.209 3.717-.557 5.482-1.208 7.247-2.601 3.345-2.509 4.274-6.039 4.274-15.236 0-10.777-1.394-14.864-6.132-17.744-3.995-2.416-3.995-2.416-25.362-2.416h-45.615zm18.86-31.215v-15.236h26.57c8.547.093 8.826.093 10.126.65 1.951.836 2.694 2.601 2.694 6.782 0 3.902-.557 5.76-2.043 6.689-1.301.929-1.301.929-10.777 1.115z"/><path d="M-1069.468-2871.938l-7.99-4.088c.372-3.065.558-8.082.558-13.935 0-18.209-1.3-24.34-6.132-28.056-4.738-3.624-10.498-4.274-36.417-4.274-25.92 0-31.68.65-36.418 4.274-4.738 3.623-6.131 9.847-6.131 27.592 0 17.837 1.393 24.061 6.131 27.684 4.738 3.53 10.591 4.274 35.767 4.274 27.035 0 32.33-.65 37.44-4.645l6.038 4.366zm-45.615-26.942l-7.525 13.1 19.974 10.59c-3.252.558-6.689.65-15.98.65-16.35 0-19.23-.278-21.738-2.229-2.137-1.672-2.787-4.366-2.787-11.984 0-7.804.371-11.427 1.486-13.564 1.951-3.623 3.623-3.902 22.204-3.902 17.28 0 19.323.279 21.46 2.787 1.672 2.044 2.23 5.574 2.23 14.772 0 .371 0 1.022-.093 1.95z"/></g><path d="M-1061.497-2890.379a50.688 50.688 0 0 1-50.688 50.688 50.688 50.688 0 0 1-50.688-50.688 50.688 50.688 0 0 1 50.688-50.688 50.688 50.688 0 0 1 50.688 50.688z" opacity=".171" fill="#fff"/><g fill="#fff" transform="translate(-1587.131 -2784.216)"><circle cx="561.253" cy="-448.722" r="50.688" opacity=".171"/><circle r="50.688" cy="-448.722" cx="478.616" opacity=".171"/></g><path d="M-687.365-3099.46a111.406 111.406 0 0 0-111.405 111.406 111.406 111.406 0 0 0 111.405 111.406 111.406 111.406 0 0 0 111.406-111.406 111.406 111.406 0 0 0-111.406-111.405zm28.346 78.167c26.998 0 32.998.678 37.933 4.452 5.031 3.87 6.387 10.257 6.387 29.223 0 6.096-.194 11.322-.581 14.515l8.322 4.258-7.451 13.74-6.29-4.548c-5.322 4.16-10.838 4.838-38.997 4.838-14.674 0-23.044-.243-28.436-1.1v.133h-19.354v-3.387c0-7.258-.387-9.58-1.935-11.225-1.355-1.548-2.806-1.742-10.935-1.742h-27.771v16.354h-19.644v-64.543h47.512c20.695 0 22.15.003 25.596 2.025 4.843-2.497 12.579-2.993 35.644-2.993zm0 16.74c-19.353 0-21.094.291-23.126 4.065-1.162 2.226-1.549 6-1.549 14.128 0 7.934.678 10.74 2.903 12.482 2.613 2.032 5.613 2.323 22.643 2.323 9.677 0 13.258-.097 16.644-.677l-20.804-11.032 7.838-13.644 20.03 12.676c.097-.967.097-1.644.097-2.032 0-9.58-.581-13.256-2.323-15.385-2.225-2.613-4.354-2.903-22.353-2.903zm-89.108.388v15.87h27.675c9.87-.194 9.87-.194 11.225-1.162 1.548-.968 2.128-2.903 2.128-6.967 0-4.354-.774-6.193-2.806-7.064-1.355-.58-1.645-.58-10.547-.677z" fill="#8c4b1a"/><path opacity=".171" fill="#fff" d="M-384.784-3909.726h653.067v105.699h-653.067z"/><path d="M-649.615-3809.093a111.406 111.406 0 0 0-111.406 111.406 111.406 111.406 0 0 0 111.406 111.406 111.406 111.406 0 0 0 111.406-111.406 111.406 111.406 0 0 0-111.406-111.406zm28.346 78.166c26.998 0 32.997.678 37.932 4.452 5.032 3.87 6.387 10.257 6.387 29.223 0 6.096-.194 11.322-.58 14.515l8.321 4.258-7.45 13.74-6.29-4.548c-5.322 4.161-10.838 4.839-38.997 4.839-14.675 0-23.044-.243-28.437-1.101v.133h-19.353v-3.387c0-7.257-.387-9.58-1.936-11.225-1.354-1.548-2.806-1.741-10.934-1.741h-27.772v16.353h-19.644v-64.543h47.513c20.695 0 22.149.003 25.596 2.026 4.842-2.498 12.578-2.994 35.644-2.994zm0 16.74c-19.353 0-21.095.291-23.127 4.065-1.161 2.226-1.548 6-1.548 14.128 0 7.935.677 10.74 2.903 12.483 2.613 2.032 5.612 2.322 22.643 2.322 9.676 0 13.257-.096 16.644-.677l-20.805-11.031 7.838-13.644 20.03 12.676c.097-.968.097-1.645.097-2.032 0-9.58-.58-13.257-2.322-15.386-2.226-2.613-4.354-2.903-22.353-2.903zm-89.109.388v15.87h27.675c9.87-.194 9.87-.194 11.225-1.162 1.548-.967 2.129-2.902 2.129-6.966 0-4.355-.774-6.194-2.806-7.065-1.355-.58-1.645-.58-10.548-.677z" fill="#003380"/><text style="line-height:1.25;-inkscape-font-specification:'Microgramma D Extended'" x="1141.463" y="-813.689" font-weight="400" font-size="46.039" font-family="Microgramma D Extended" letter-spacing="1.679" word-spacing=".127" stroke-width=".265" transform="translate(-1653.822 -2892.432)"><tspan x="1141.463" y="-813.689" style="-inkscape-font-specification:'Microgramma D Extended'">RAFAEL</tspan></text><text y="-766.574" x="1139.866" style="line-height:1.25;-inkscape-font-specification:'Microgramma D Extended'" font-weight="400" font-size="46.039" font-family="Microgramma D Extended" letter-spacing="1.679" word-spacing=".127" stroke-width=".265" transform="translate(-1653.822 -2892.432)"><tspan style="-inkscape-font-specification:'Microgramma D Extended Bold'" y="-766.574" x="1139.866" font-weight="700">QUINTANILHA</tspan></text><path d="M-649.615-3809.093a111.406 111.406 0 0 0-111.406 111.406 111.406 111.406 0 0 0 111.406 111.406 111.406 111.406 0 0 0 111.406-111.406 111.406 111.406 0 0 0-111.406-111.406zm28.346 78.166c26.998 0 32.997.678 37.932 4.452 5.032 3.87 6.387 10.257 6.387 29.223 0 6.096-.194 11.322-.58 14.515l8.321 4.258-7.45 13.74-6.29-4.548c-5.322 4.161-10.838 4.839-38.997 4.839-14.675 0-23.044-.243-28.437-1.101v.133h-19.353v-3.387c0-7.257-.387-9.58-1.936-11.225-1.354-1.548-2.806-1.741-10.934-1.741h-27.772v16.353h-19.644v-64.543h47.513c20.695 0 22.149.003 25.596 2.026 4.842-2.498 12.578-2.994 35.644-2.994zm0 16.74c-19.353 0-21.095.291-23.127 4.065-1.161 2.226-1.548 6-1.548 14.128 0 7.935.677 10.74 2.903 12.483 2.613 2.032 5.612 2.322 22.643 2.322 9.676 0 13.257-.096 16.644-.677l-20.805-11.031 7.838-13.644 20.03 12.676c.097-.968.097-1.645.097-2.032 0-9.58-.58-13.257-2.322-15.386-2.226-2.613-4.354-2.903-22.353-2.903zm-89.109.388v15.87h27.675c9.87-.194 9.87-.194 11.225-1.162 1.548-.967 2.129-2.902 2.129-6.966 0-4.355-.774-6.194-2.806-7.065-1.355-.58-1.645-.58-10.548-.677z" fill="#003380"/><text y="-813.689" x="1141.463" style="line-height:1.25;-inkscape-font-specification:'Microgramma D Extended'" font-weight="400" font-size="46.039" font-family="Microgramma D Extended" letter-spacing="1.679" word-spacing=".127" stroke-width=".265" transform="translate(-1653.822 -2892.432)"><tspan style="-inkscape-font-specification:'Microgramma D Extended'" y="-813.689" x="1141.463">RAFAEL</tspan></text><text style="line-height:1.25;-inkscape-font-specification:'Microgramma D Extended'" x="1139.866" y="-766.574" font-weight="400" font-size="46.039" font-family="Microgramma D Extended" letter-spacing="1.679" word-spacing=".127" fill="#003380" stroke-width=".265" transform="translate(-1653.822 -2892.432)"><tspan x="1139.866" y="-766.574" style="-inkscape-font-specification:'Microgramma D Extended Bold'" font-weight="700">QUINTANILHA</tspan></text><g><path d="M-299.218-3104.403h724.915v286.896h-724.915z" fill="#fff"/><path d="M-175.017-3074.248a111.406 111.406 0 0 0-111.405 111.405 111.406 111.406 0 0 0 111.405 111.407A111.406 111.406 0 0 0-63.61-2962.843a111.406 111.406 0 0 0-111.406-111.405zm28.347 78.166c26.997 0 32.997.678 37.932 4.452 5.032 3.87 6.387 10.257 6.387 29.223 0 6.096-.194 11.322-.581 14.515l8.322 4.258-7.451 13.74-6.29-4.548c-5.322 4.161-10.838 4.838-38.997 4.838-14.674 0-23.044-.242-28.436-1.1v.133h-19.353v-3.387c0-7.257-.388-9.58-1.936-11.225-1.355-1.548-2.806-1.742-10.935-1.742h-27.771v16.354h-19.644v-64.543h47.512c20.695 0 22.15.003 25.596 2.026 4.843-2.498 12.579-2.994 35.645-2.994zm0 16.74c-19.354 0-21.095.291-23.127 4.065-1.161 2.226-1.549 6-1.549 14.128 0 7.935.678 10.74 2.903 12.483 2.613 2.032 5.613 2.322 22.643 2.322 9.677 0 13.258-.096 16.644-.677l-20.804-11.032 7.838-13.643 20.03 12.676c.097-.968.097-1.645.097-2.032 0-9.58-.58-13.257-2.323-15.386-2.225-2.613-4.354-2.903-22.352-2.903zm-89.11.388v15.87h27.676c9.87-.194 9.87-.194 11.225-1.162 1.548-.968 2.129-2.902 2.129-6.967 0-4.354-.775-6.193-2.807-7.064-1.355-.58-1.645-.58-10.547-.677z" fill="#003380"/><g aria-label="RAFAEL" style="line-height:1.25;-inkscape-font-specification:'Microgramma D Extended'" font-weight="400" font-size="46.039" font-family="Microgramma D Extended" letter-spacing="1.679" word-spacing=".127" stroke-width=".265"><path d="M-35.459-2971.276h4.098v-11.832h15.055c6.63.046 6.63.046 8.057.276 1.933.277 3.038 1.428 3.268 3.407.185 1.197.185 1.243.185 5.203v2.946H-.7v-4.374c0-5.248-.184-6.169-1.381-7.412-.783-.829-1.657-1.289-3.13-1.565 4.05-.829 5.064-2.44 5.064-8.103 0-2.532-.277-4.052-.967-5.479-.967-1.887-2.809-3.084-5.295-3.407-2.118-.276-2.164-.276-9.898-.368H-35.46zm4.098-15.423v-11.694h15.055c7.412 0 9.254.184 10.497 1.105.92.645 1.473 2.348 1.473 4.512 0 1.565-.276 3.315-.645 4.005-.828 1.566-2.716 2.072-7.642 2.072h-3.683zM39.313-2971.276h4.558l-17.357-30.708h-6.537l-17.403 30.708h4.65l3.637-6.491h24.815zm-5.57-10.082H12.84l9.669-17.035h1.657zM47.39-2971.276h4.097v-13.766h23.618v-3.59H51.487v-9.761H76.21v-3.591H47.39zM111.73-2971.276h4.558l-17.357-30.708h-6.537l-17.403 30.708h4.65l3.637-6.491h24.815zm-5.57-10.082H85.258l9.668-17.035h1.657zM119.807-2971.276h30.11v-3.59h-26.013v-10.544h24.861V-2989h-24.86v-9.392h25.965v-3.591h-30.063zM154.487-3001.984v30.708H182.8v-3.59h-24.217v-27.118z" style="-inkscape-font-specification:'Microgramma D Extended'"/></g><g aria-label="QUINTANILHA" style="line-height:1.25;-inkscape-font-specification:'Microgramma D Extended'" font-weight="700" font-size="46.039" font-family="Microgramma D Extended" letter-spacing="1.679" word-spacing=".127" stroke-width=".265"><path d="M8.017-2930.376l-3.96-2.026c.185-1.52.277-4.006.277-6.906 0-9.024-.645-12.062-3.039-13.904-2.348-1.795-5.202-2.118-18.047-2.118s-15.7.323-18.048 2.118c-2.348 1.796-3.038 4.88-3.038 13.674 0 8.84.69 11.924 3.038 13.72 2.348 1.749 5.249 2.117 17.725 2.117 13.398 0 16.022-.322 18.554-2.302l2.993 2.164zm-22.605-13.352l-3.73 6.492 9.899 5.248c-1.612.276-3.315.323-7.919.323-8.103 0-9.53-.139-10.773-1.105-1.06-.83-1.381-2.164-1.381-5.94 0-3.867.184-5.662.736-6.721.967-1.796 1.796-1.934 11.004-1.934 8.563 0 9.576.138 10.635 1.381.829 1.013 1.105 2.763 1.105 7.32 0 .185 0 .507-.046.967zM10.07-2954.87v14.135c.047 4.972.047 4.972.093 5.985.23 4.512.737 6.4 2.256 7.965 2.302 2.44 5.985 3.084 17.725 3.084 7.136 0 10.22-.184 12.983-.736 3.499-.737 5.847-3.177 6.354-6.676.276-2.164.322-2.67.46-9.622v-14.134h-9.346v14.134c0 .644-.046 2.118-.092 3.176-.138 2.901-.368 3.73-1.105 4.512-1.013 1.105-2.947 1.382-9.392 1.382-7.965 0-9.76-.507-10.267-2.947-.23-1.243-.23-1.29-.322-6.123v-14.134zM55.815-2954.87v30.709h9.807v-30.708zM71.612-2954.87v30.709h9.53l-.23-22.928h1.013l16.16 22.928h16.252v-30.708h-9.53l.23 22.881h-.967l-16.068-22.881zM118.156-2954.87v7.827h13.673v22.882h9.807v-22.882h13.673v-7.826zM188.286-2924.161h10.635l-16.068-30.708h-14.548l-16.252 30.708h10.681l2.624-5.203h20.304zm-5.893-11.924h-13.72l5.94-11.648h1.84zM201.999-2954.87v30.709h9.53l-.23-22.928h1.012l16.16 22.928h16.252v-30.708h-9.53l.23 22.881h-.967l-16.067-22.881zM250.706-2954.87v30.709h9.807v-30.708zM266.503-2954.87v30.709h31.629v-7.827h-21.823v-22.881zM301.992-2954.87v30.709h9.807v-11.096h21.132v11.096h9.806v-30.708h-9.806v11.003h-21.132v-11.003zM382.008-2924.161h10.635l-16.068-30.708h-14.548l-16.252 30.708h10.681l2.624-5.203h20.304zm-5.893-11.924h-13.72l5.94-11.648h1.84z" style="-inkscape-font-specification:'Microgramma D Extended Bold'"/></g><path d="M-175.017-3074.248a111.406 111.406 0 0 0-111.405 111.405 111.406 111.406 0 0 0 111.405 111.407A111.406 111.406 0 0 0-63.61-2962.843a111.406 111.406 0 0 0-111.406-111.405zm28.347 78.166c26.997 0 32.997.678 37.932 4.452 5.032 3.87 6.387 10.257 6.387 29.223 0 6.096-.194 11.322-.581 14.515l8.322 4.258-7.451 13.74-6.29-4.548c-5.322 4.161-10.838 4.838-38.997 4.838-14.674 0-23.044-.242-28.436-1.1v.133h-19.353v-3.387c0-7.257-.388-9.58-1.936-11.225-1.355-1.548-2.806-1.742-10.935-1.742h-27.771v16.354h-19.644v-64.543h47.512c20.695 0 22.15.003 25.596 2.026 4.843-2.498 12.579-2.994 35.645-2.994zm0 16.74c-19.354 0-21.095.291-23.127 4.065-1.161 2.226-1.549 6-1.549 14.128 0 7.935.678 10.74 2.903 12.483 2.613 2.032 5.613 2.322 22.643 2.322 9.677 0 13.258-.096 16.644-.677l-20.804-11.032 7.838-13.643 20.03 12.676c.097-.968.097-1.645.097-2.032 0-9.58-.58-13.257-2.323-15.386-2.225-2.613-4.354-2.903-22.352-2.903zm-89.11.388v15.87h27.676c9.87-.194 9.87-.194 11.225-1.162 1.548-.968 2.129-2.902 2.129-6.967 0-4.354-.775-6.193-2.807-7.064-1.355-.58-1.645-.58-10.547-.677z" fill="#003380"/><g aria-label="RAFAEL" style="line-height:1.25;-inkscape-font-specification:'Microgramma D Extended'" font-weight="400" font-size="46.039" font-family="Microgramma D Extended" letter-spacing="1.679" word-spacing=".127" stroke-width=".265"><path d="M-35.459-2971.276h4.098v-11.832h15.055c6.63.046 6.63.046 8.057.276 1.933.277 3.038 1.428 3.268 3.407.185 1.197.185 1.243.185 5.203v2.946H-.7v-4.374c0-5.248-.184-6.169-1.381-7.412-.783-.829-1.657-1.289-3.13-1.565 4.05-.829 5.064-2.44 5.064-8.103 0-2.532-.277-4.052-.967-5.479-.967-1.887-2.809-3.084-5.295-3.407-2.118-.276-2.164-.276-9.898-.368H-35.46zm4.098-15.423v-11.694h15.055c7.412 0 9.254.184 10.497 1.105.92.645 1.473 2.348 1.473 4.512 0 1.565-.276 3.315-.645 4.005-.828 1.566-2.716 2.072-7.642 2.072h-3.683zM39.313-2971.276h4.558l-17.357-30.708h-6.537l-17.403 30.708h4.65l3.637-6.491h24.815zm-5.57-10.082H12.84l9.669-17.035h1.657zM47.39-2971.276h4.097v-13.766h23.618v-3.59H51.487v-9.761H76.21v-3.591H47.39zM111.73-2971.276h4.558l-17.357-30.708h-6.537l-17.403 30.708h4.65l3.637-6.491h24.815zm-5.57-10.082H85.258l9.668-17.035h1.657zM119.807-2971.276h30.11v-3.59h-26.013v-10.544h24.861V-2989h-24.86v-9.392h25.965v-3.591h-30.063zM154.487-3001.984v30.708H182.8v-3.59h-24.217v-27.118z" style="-inkscape-font-specification:'Microgramma D Extended'"/></g><g aria-label="QUINTANILHA" style="line-height:1.25;-inkscape-font-specification:'Microgramma D Extended'" font-weight="700" font-size="46.039" font-family="Microgramma D Extended" letter-spacing="1.679" word-spacing=".127" fill="#003380" stroke-width=".265"><path d="M8.017-2930.376l-3.96-2.026c.185-1.52.277-4.006.277-6.906 0-9.024-.645-12.062-3.039-13.904-2.348-1.795-5.202-2.118-18.047-2.118s-15.7.323-18.048 2.118c-2.348 1.796-3.038 4.88-3.038 13.674 0 8.84.69 11.924 3.038 13.72 2.348 1.749 5.249 2.117 17.725 2.117 13.398 0 16.022-.322 18.554-2.302l2.993 2.164zm-22.605-13.352l-3.73 6.492 9.899 5.248c-1.612.276-3.315.323-7.919.323-8.103 0-9.53-.139-10.773-1.105-1.06-.83-1.381-2.164-1.381-5.94 0-3.867.184-5.662.736-6.721.967-1.796 1.796-1.934 11.004-1.934 8.563 0 9.576.138 10.635 1.381.829 1.013 1.105 2.763 1.105 7.32 0 .185 0 .507-.046.967zM10.07-2954.87v14.135c.047 4.972.047 4.972.093 5.985.23 4.512.737 6.4 2.256 7.965 2.302 2.44 5.985 3.084 17.725 3.084 7.136 0 10.22-.184 12.983-.736 3.499-.737 5.847-3.177 6.354-6.676.276-2.164.322-2.67.46-9.622v-14.134h-9.346v14.134c0 .644-.046 2.118-.092 3.176-.138 2.901-.368 3.73-1.105 4.512-1.013 1.105-2.947 1.382-9.392 1.382-7.965 0-9.76-.507-10.267-2.947-.23-1.243-.23-1.29-.322-6.123v-14.134zM55.815-2954.87v30.709h9.807v-30.708zM71.612-2954.87v30.709h9.53l-.23-22.928h1.013l16.16 22.928h16.252v-30.708h-9.53l.23 22.881h-.967l-16.068-22.881zM118.156-2954.87v7.827h13.673v22.882h9.807v-22.882h13.673v-7.826zM188.286-2924.161h10.635l-16.068-30.708h-14.548l-16.252 30.708h10.681l2.624-5.203h20.304zm-5.893-11.924h-13.72l5.94-11.648h1.84zM201.999-2954.87v30.709h9.53l-.23-22.928h1.012l16.16 22.928h16.252v-30.708h-9.53l.23 22.881h-.967l-16.067-22.881zM250.706-2954.87v30.709h9.807v-30.708zM266.503-2954.87v30.709h31.629v-7.827h-21.823v-22.881zM301.992-2954.87v30.709h9.807v-11.096h21.132v11.096h9.806v-30.708h-9.806v11.003h-21.132v-11.003zM382.008-2924.161h10.635l-16.068-30.708h-14.548l-16.252 30.708h10.681l2.624-5.203h20.304zm-5.893-11.924h-13.72l5.94-11.648h1.84z" style="-inkscape-font-specification:'Microgramma D Extended Bold'"/></g><g><path d="M-299.218-3104.403h724.915v286.896h-724.915z" fill="#fff"/><path d="M-175.017-3074.248a111.406 111.406 0 0 0-111.405 111.405 111.406 111.406 0 0 0 111.405 111.407A111.406 111.406 0 0 0-63.61-2962.843a111.406 111.406 0 0 0-111.406-111.405zm28.347 78.166c26.997 0 32.997.678 37.932 4.452 5.032 3.87 6.387 10.257 6.387 29.223 0 6.096-.194 11.322-.581 14.515l8.322 4.258-7.451 13.74-6.29-4.548c-5.322 4.161-10.838 4.838-38.997 4.838-14.674 0-23.044-.242-28.436-1.1v.133h-19.353v-3.387c0-7.257-.388-9.58-1.936-11.225-1.355-1.548-2.806-1.742-10.935-1.742h-27.771v16.354h-19.644v-64.543h47.512c20.695 0 22.15.003 25.596 2.026 4.843-2.498 12.579-2.994 35.645-2.994zm0 16.74c-19.354 0-21.095.291-23.127 4.065-1.161 2.226-1.549 6-1.549 14.128 0 7.935.678 10.74 2.903 12.483 2.613 2.032 5.613 2.322 22.643 2.322 9.677 0 13.258-.096 16.644-.677l-20.804-11.032 7.838-13.643 20.03 12.676c.097-.968.097-1.645.097-2.032 0-9.58-.58-13.257-2.323-15.386-2.225-2.613-4.354-2.903-22.352-2.903zm-89.11.388v15.87h27.676c9.87-.194 9.87-.194 11.225-1.162 1.548-.968 2.129-2.902 2.129-6.967 0-4.354-.775-6.193-2.807-7.064-1.355-.58-1.645-.58-10.547-.677z" fill="#003380"/><g aria-label="RAFAEL" style="line-height:1.25;-inkscape-font-specification:'Microgramma D Extended'" font-weight="400" font-size="46.039" font-family="Microgramma D Extended" letter-spacing="1.679" word-spacing=".127" stroke-width=".265"><path d="M-35.459-2971.276h4.098v-11.832h15.055c6.63.046 6.63.046 8.057.276 1.933.277 3.038 1.428 3.268 3.407.185 1.197.185 1.243.185 5.203v2.946H-.7v-4.374c0-5.248-.184-6.169-1.381-7.412-.783-.829-1.657-1.289-3.13-1.565 4.05-.829 5.064-2.44 5.064-8.103 0-2.532-.277-4.052-.967-5.479-.967-1.887-2.809-3.084-5.295-3.407-2.118-.276-2.164-.276-9.898-.368H-35.46zm4.098-15.423v-11.694h15.055c7.412 0 9.254.184 10.497 1.105.92.645 1.473 2.348 1.473 4.512 0 1.565-.276 3.315-.645 4.005-.828 1.566-2.716 2.072-7.642 2.072h-3.683zM39.313-2971.276h4.558l-17.357-30.708h-6.537l-17.403 30.708h4.65l3.637-6.491h24.815zm-5.57-10.082H12.84l9.669-17.035h1.657zM47.39-2971.276h4.097v-13.766h23.618v-3.59H51.487v-9.761H76.21v-3.591H47.39zM111.73-2971.276h4.558l-17.357-30.708h-6.537l-17.403 30.708h4.65l3.637-6.491h24.815zm-5.57-10.082H85.258l9.668-17.035h1.657zM119.807-2971.276h30.11v-3.59h-26.013v-10.544h24.861V-2989h-24.86v-9.392h25.965v-3.591h-30.063zM154.487-3001.984v30.708H182.8v-3.59h-24.217v-27.118z" style="-inkscape-font-specification:'Microgramma D Extended'"/></g><g aria-label="QUINTANILHA" style="line-height:1.25;-inkscape-font-specification:'Microgramma D Extended'" font-weight="700" font-size="46.039" font-family="Microgramma D Extended" letter-spacing="1.679" word-spacing=".127" stroke-width=".265"><path d="M8.017-2930.376l-3.96-2.026c.185-1.52.277-4.006.277-6.906 0-9.024-.645-12.062-3.039-13.904-2.348-1.795-5.202-2.118-18.047-2.118s-15.7.323-18.048 2.118c-2.348 1.796-3.038 4.88-3.038 13.674 0 8.84.69 11.924 3.038 13.72 2.348 1.749 5.249 2.117 17.725 2.117 13.398 0 16.022-.322 18.554-2.302l2.993 2.164zm-22.605-13.352l-3.73 6.492 9.899 5.248c-1.612.276-3.315.323-7.919.323-8.103 0-9.53-.139-10.773-1.105-1.06-.83-1.381-2.164-1.381-5.94 0-3.867.184-5.662.736-6.721.967-1.796 1.796-1.934 11.004-1.934 8.563 0 9.576.138 10.635 1.381.829 1.013 1.105 2.763 1.105 7.32 0 .185 0 .507-.046.967zM10.07-2954.87v14.135c.047 4.972.047 4.972.093 5.985.23 4.512.737 6.4 2.256 7.965 2.302 2.44 5.985 3.084 17.725 3.084 7.136 0 10.22-.184 12.983-.736 3.499-.737 5.847-3.177 6.354-6.676.276-2.164.322-2.67.46-9.622v-14.134h-9.346v14.134c0 .644-.046 2.118-.092 3.176-.138 2.901-.368 3.73-1.105 4.512-1.013 1.105-2.947 1.382-9.392 1.382-7.965 0-9.76-.507-10.267-2.947-.23-1.243-.23-1.29-.322-6.123v-14.134zM55.815-2954.87v30.709h9.807v-30.708zM71.612-2954.87v30.709h9.53l-.23-22.928h1.013l16.16 22.928h16.252v-30.708h-9.53l.23 22.881h-.967l-16.068-22.881zM118.156-2954.87v7.827h13.673v22.882h9.807v-22.882h13.673v-7.826zM188.286-2924.161h10.635l-16.068-30.708h-14.548l-16.252 30.708h10.681l2.624-5.203h20.304zm-5.893-11.924h-13.72l5.94-11.648h1.84zM201.999-2954.87v30.709h9.53l-.23-22.928h1.012l16.16 22.928h16.252v-30.708h-9.53l.23 22.881h-.967l-16.067-22.881zM250.706-2954.87v30.709h9.807v-30.708zM266.503-2954.87v30.709h31.629v-7.827h-21.823v-22.881zM301.992-2954.87v30.709h9.807v-11.096h21.132v11.096h9.806v-30.708h-9.806v11.003h-21.132v-11.003zM382.008-2924.161h10.635l-16.068-30.708h-14.548l-16.252 30.708h10.681l2.624-5.203h20.304zm-5.893-11.924h-13.72l5.94-11.648h1.84z" style="-inkscape-font-specification:'Microgramma D Extended Bold'"/></g><path d="M-175.017-3074.248a111.406 111.406 0 0 0-111.405 111.405 111.406 111.406 0 0 0 111.405 111.407A111.406 111.406 0 0 0-63.61-2962.843a111.406 111.406 0 0 0-111.406-111.405zm28.347 78.166c26.997 0 32.997.678 37.932 4.452 5.032 3.87 6.387 10.257 6.387 29.223 0 6.096-.194 11.322-.581 14.515l8.322 4.258-7.451 13.74-6.29-4.548c-5.322 4.161-10.838 4.838-38.997 4.838-14.674 0-23.044-.242-28.436-1.1v.133h-19.353v-3.387c0-7.257-.388-9.58-1.936-11.225-1.355-1.548-2.806-1.742-10.935-1.742h-27.771v16.354h-19.644v-64.543h47.512c20.695 0 22.15.003 25.596 2.026 4.843-2.498 12.579-2.994 35.645-2.994zm0 16.74c-19.354 0-21.095.291-23.127 4.065-1.161 2.226-1.549 6-1.549 14.128 0 7.935.678 10.74 2.903 12.483 2.613 2.032 5.613 2.322 22.643 2.322 9.677 0 13.258-.096 16.644-.677l-20.804-11.032 7.838-13.643 20.03 12.676c.097-.968.097-1.645.097-2.032 0-9.58-.58-13.257-2.323-15.386-2.225-2.613-4.354-2.903-22.352-2.903zm-89.11.388v15.87h27.676c9.87-.194 9.87-.194 11.225-1.162 1.548-.968 2.129-2.902 2.129-6.967 0-4.354-.775-6.193-2.807-7.064-1.355-.58-1.645-.58-10.547-.677z" fill="#003380"/><g aria-label="RAFAEL" style="line-height:1.25;-inkscape-font-specification:'Microgramma D Extended'" font-weight="400" font-size="46.039" font-family="Microgramma D Extended" letter-spacing="1.679" word-spacing=".127" stroke-width=".265"><path d="M-35.459-2971.276h4.098v-11.832h15.055c6.63.046 6.63.046 8.057.276 1.933.277 3.038 1.428 3.268 3.407.185 1.197.185 1.243.185 5.203v2.946H-.7v-4.374c0-5.248-.184-6.169-1.381-7.412-.783-.829-1.657-1.289-3.13-1.565 4.05-.829 5.064-2.44 5.064-8.103 0-2.532-.277-4.052-.967-5.479-.967-1.887-2.809-3.084-5.295-3.407-2.118-.276-2.164-.276-9.898-.368H-35.46zm4.098-15.423v-11.694h15.055c7.412 0 9.254.184 10.497 1.105.92.645 1.473 2.348 1.473 4.512 0 1.565-.276 3.315-.645 4.005-.828 1.566-2.716 2.072-7.642 2.072h-3.683zM39.313-2971.276h4.558l-17.357-30.708h-6.537l-17.403 30.708h4.65l3.637-6.491h24.815zm-5.57-10.082H12.84l9.669-17.035h1.657zM47.39-2971.276h4.097v-13.766h23.618v-3.59H51.487v-9.761H76.21v-3.591H47.39zM111.73-2971.276h4.558l-17.357-30.708h-6.537l-17.403 30.708h4.65l3.637-6.491h24.815zm-5.57-10.082H85.258l9.668-17.035h1.657zM119.807-2971.276h30.11v-3.59h-26.013v-10.544h24.861V-2989h-24.86v-9.392h25.965v-3.591h-30.063zM154.487-3001.984v30.708H182.8v-3.59h-24.217v-27.118z" style="-inkscape-font-specification:'Microgramma D Extended'"/></g><g aria-label="QUINTANILHA" style="line-height:1.25;-inkscape-font-specification:'Microgramma D Extended'" font-weight="700" font-size="46.039" font-family="Microgramma D Extended" letter-spacing="1.679" word-spacing=".127" fill="#003380" stroke-width=".265"><path d="M8.017-2930.376l-3.96-2.026c.185-1.52.277-4.006.277-6.906 0-9.024-.645-12.062-3.039-13.904-2.348-1.795-5.202-2.118-18.047-2.118s-15.7.323-18.048 2.118c-2.348 1.796-3.038 4.88-3.038 13.674 0 8.84.69 11.924 3.038 13.72 2.348 1.749 5.249 2.117 17.725 2.117 13.398 0 16.022-.322 18.554-2.302l2.993 2.164zm-22.605-13.352l-3.73 6.492 9.899 5.248c-1.612.276-3.315.323-7.919.323-8.103 0-9.53-.139-10.773-1.105-1.06-.83-1.381-2.164-1.381-5.94 0-3.867.184-5.662.736-6.721.967-1.796 1.796-1.934 11.004-1.934 8.563 0 9.576.138 10.635 1.381.829 1.013 1.105 2.763 1.105 7.32 0 .185 0 .507-.046.967zM10.07-2954.87v14.135c.047 4.972.047 4.972.093 5.985.23 4.512.737 6.4 2.256 7.965 2.302 2.44 5.985 3.084 17.725 3.084 7.136 0 10.22-.184 12.983-.736 3.499-.737 5.847-3.177 6.354-6.676.276-2.164.322-2.67.46-9.622v-14.134h-9.346v14.134c0 .644-.046 2.118-.092 3.176-.138 2.901-.368 3.73-1.105 4.512-1.013 1.105-2.947 1.382-9.392 1.382-7.965 0-9.76-.507-10.267-2.947-.23-1.243-.23-1.29-.322-6.123v-14.134zM55.815-2954.87v30.709h9.807v-30.708zM71.612-2954.87v30.709h9.53l-.23-22.928h1.013l16.16 22.928h16.252v-30.708h-9.53l.23 22.881h-.967l-16.068-22.881zM118.156-2954.87v7.827h13.673v22.882h9.807v-22.882h13.673v-7.826zM188.286-2924.161h10.635l-16.068-30.708h-14.548l-16.252 30.708h10.681l2.624-5.203h20.304zm-5.893-11.924h-13.72l5.94-11.648h1.84zM201.999-2954.87v30.709h9.53l-.23-22.928h1.012l16.16 22.928h16.252v-30.708h-9.53l.23 22.881h-.967l-16.067-22.881zM250.706-2954.87v30.709h9.807v-30.708zM266.503-2954.87v30.709h31.629v-7.827h-21.823v-22.881zM301.992-2954.87v30.709h9.807v-11.096h21.132v11.096h9.806v-30.708h-9.806v11.003h-21.132v-11.003zM382.008-2924.161h10.635l-16.068-30.708h-14.548l-16.252 30.708h10.681l2.624-5.203h20.304zm-5.893-11.924h-13.72l5.94-11.648h1.84z" style="-inkscape-font-specification:'Microgramma D Extended Bold'"/></g></g></g><g stroke-width="5.819"><path d="M691.928-3658.949a19.144 19.144 0 0 0-19.144 19.144 19.144 19.144 0 0 0 19.144 19.145 19.144 19.144 0 0 0 19.145-19.145 19.144 19.144 0 0 0-19.145-19.144zm4.871 13.432c4.64 0 5.67.117 6.519.765.864.666 1.097 1.763 1.097 5.022 0 1.048-.033 1.946-.1 2.495l1.43.731-1.28 2.361-1.08-.781c-.915.715-1.863.831-6.702.831-2.522 0-3.96-.041-4.887-.189v.023h-3.325v-.582c0-1.247-.067-1.646-.333-1.929-.233-.266-.482-.3-1.879-.3h-4.772v2.811h-3.376v-11.091h8.165c3.556 0 3.806 0 4.398.348.832-.43 2.162-.515 6.125-.515zm0 2.877c-3.325 0-3.625.05-3.974.699-.2.382-.266 1.03-.266 2.427 0 1.364.117 1.846.499 2.145.449.35.964.4 3.891.4 1.663 0 2.278-.017 2.86-.117l-3.575-1.896 1.347-2.344 3.442 2.178c.017-.166.017-.282.017-.349 0-1.646-.1-2.278-.4-2.644-.382-.449-.748-.499-3.84-.499zm-15.312.067v2.727h4.755c1.697-.033 1.697-.034 1.93-.2.265-.166.365-.499.365-1.197 0-.748-.133-1.064-.482-1.214-.233-.1-.283-.1-1.813-.116z" fill="#003380"/><g style="line-height:1.25;-inkscape-font-specification:'Microgramma D Extended'" aria-label="RAFAEL" font-weight="400" font-size="46.039" font-family="Microgramma D Extended" letter-spacing="1.679" word-spacing=".127" stroke-width="1.54"><path style="-inkscape-font-specification:'Microgramma D Extended'" d="M715.91-3641.254h.705v-2.033h2.587c1.139.008 1.139.008 1.384.047.332.048.522.246.562.586.031.206.031.213.031.894v.506h.705v-.751c0-.902-.032-1.06-.238-1.274-.134-.143-.285-.222-.538-.27.696-.142.87-.419.87-1.392 0-.435-.047-.696-.166-.941-.166-.324-.482-.53-.91-.586-.363-.047-.371-.047-1.7-.063h-3.292zm.705-2.65v-2.01h2.587c1.273 0 1.59.032 1.803.19.159.11.254.404.254.775 0 .27-.048.57-.111.689-.143.269-.467.356-1.313.356h-.633zM728.76-3641.254h.783l-2.983-5.277h-1.123l-2.991 5.277h.799l.625-1.115h4.264zm-.958-1.732h-3.592l1.662-2.928h.284zM730.147-3641.254h.704v-2.365h4.059v-.617h-4.059v-1.678h4.249v-.617h-4.953zM741.204-3641.254h.783l-2.983-5.277h-1.123l-2.99 5.277h.798l.625-1.115h4.265zm-.958-1.732h-3.591l1.661-2.928h.285zM742.592-3641.254h5.174v-.617h-4.47v-1.812h4.272v-.617h-4.272v-1.614h4.462v-.617h-5.166zM748.551-3646.53v5.276h4.866v-.617h-4.162v-4.66z"/></g><g style="line-height:1.25;-inkscape-font-specification:'Microgramma D Extended'" aria-label="QUINTANILHA" font-weight="700" font-size="46.039" font-family="Microgramma D Extended" letter-spacing="1.679" word-spacing=".127" stroke-width="1.54"><path style="-inkscape-font-specification:'Microgramma D Extended Bold'" d="M723.381-3634.226l-.68-.348c.032-.26.047-.688.047-1.186 0-1.551-.11-2.073-.522-2.39-.403-.308-.894-.364-3.101-.364s-2.698.056-3.101.364c-.404.309-.523.839-.523 2.35 0 1.52.12 2.05.523 2.358.403.3.902.364 3.046.364 2.302 0 2.753-.056 3.188-.396l.514.372zm-3.884-2.294l-.641 1.116 1.7.902c-.276.047-.569.055-1.36.055-1.392 0-1.638-.024-1.851-.19-.182-.142-.238-.372-.238-1.02 0-.665.032-.974.127-1.156.166-.308.309-.332 1.89-.332 1.472 0 1.647.024 1.829.237.142.174.19.475.19 1.258 0 .032 0 .087-.009.167zM723.734-3638.434v2.428c.008.855.008.855.016 1.029.04.775.127 1.1.388 1.369.395.419 1.028.53 3.046.53 1.226 0 1.756-.032 2.23-.127.602-.127 1.006-.546 1.093-1.147.047-.372.055-.459.079-1.654v-2.428h-1.606v2.428c0 .111-.008.364-.016.546-.024.499-.063.641-.19.776-.174.19-.506.237-1.614.237-1.369 0-1.677-.087-1.764-.506-.04-.214-.04-.222-.056-1.053v-2.428zM731.595-3638.434v5.277h1.685v-5.277zM734.31-3638.434v5.277h1.637l-.04-3.94h.175l2.777 3.94h2.793v-5.277h-1.638l.04 3.932h-.167l-2.76-3.932zM742.308-3638.434v1.344h2.35v3.933h1.685v-3.933h2.35v-1.344zM754.36-3633.157h1.827l-2.761-5.277h-2.5l-2.793 5.277h1.835l.451-.895h3.49zm-1.013-2.05h-2.358l1.02-2.001h.317zM756.716-3638.434v5.277h1.637l-.04-3.94h.175l2.777 3.94h2.793v-5.277h-1.638l.04 3.932h-.167l-2.76-3.932zM765.086-3638.434v5.277h1.685v-5.277zM767.8-3638.434v5.277h5.436v-1.345h-3.75v-3.932zM773.899-3638.434v5.277h1.685v-1.907h3.632v1.907h1.685v-5.277h-1.685v1.89h-3.632v-1.89zM787.65-3633.157h1.827l-2.761-5.277h-2.5l-2.793 5.277h1.835l.451-.895h3.49zm-1.014-2.05h-2.357l1.02-2.001h.317z"/></g><path d="M691.928-3658.949a19.144 19.144 0 0 0-19.144 19.144 19.144 19.144 0 0 0 19.144 19.145 19.144 19.144 0 0 0 19.145-19.145 19.144 19.144 0 0 0-19.145-19.144zm4.871 13.432c4.64 0 5.67.117 6.519.765.864.666 1.097 1.763 1.097 5.022 0 1.048-.033 1.946-.1 2.495l1.43.731-1.28 2.361-1.08-.781c-.915.715-1.863.831-6.702.831-2.522 0-3.96-.041-4.887-.189v.023h-3.325v-.582c0-1.247-.067-1.646-.333-1.929-.233-.266-.482-.3-1.879-.3h-4.772v2.811h-3.376v-11.091h8.165c3.556 0 3.806 0 4.398.348.832-.43 2.162-.515 6.125-.515zm0 2.877c-3.325 0-3.625.05-3.974.699-.2.382-.266 1.03-.266 2.427 0 1.364.117 1.846.499 2.145.449.35.964.4 3.891.4 1.663 0 2.278-.017 2.86-.117l-3.575-1.896 1.347-2.344 3.442 2.178c.017-.166.017-.282.017-.349 0-1.646-.1-2.278-.4-2.644-.382-.449-.748-.499-3.84-.499zm-15.312.067v2.727h4.755c1.697-.033 1.697-.034 1.93-.2.265-.166.365-.499.365-1.197 0-.748-.133-1.064-.482-1.214-.233-.1-.283-.1-1.813-.116z" fill="#003380"/><g style="line-height:1.25;-inkscape-font-specification:'Microgramma D Extended'" aria-label="RAFAEL" font-weight="400" font-size="46.039" font-family="Microgramma D Extended" letter-spacing="1.679" word-spacing=".127" stroke-width="1.54"><path style="-inkscape-font-specification:'Microgramma D Extended'" d="M715.91-3641.254h.705v-2.033h2.587c1.139.008 1.139.008 1.384.047.332.048.522.246.562.586.031.206.031.213.031.894v.506h.705v-.751c0-.902-.032-1.06-.238-1.274-.134-.143-.285-.222-.538-.27.696-.142.87-.419.87-1.392 0-.435-.047-.696-.166-.941-.166-.324-.482-.53-.91-.586-.363-.047-.371-.047-1.7-.063h-3.292zm.705-2.65v-2.01h2.587c1.273 0 1.59.032 1.803.19.159.11.254.404.254.775 0 .27-.048.57-.111.689-.143.269-.467.356-1.313.356h-.633zM728.76-3641.254h.783l-2.983-5.277h-1.123l-2.991 5.277h.799l.625-1.115h4.264zm-.958-1.732h-3.592l1.662-2.928h.284zM730.147-3641.254h.704v-2.365h4.059v-.617h-4.059v-1.678h4.249v-.617h-4.953zM741.204-3641.254h.783l-2.983-5.277h-1.123l-2.99 5.277h.798l.625-1.115h4.265zm-.958-1.732h-3.591l1.661-2.928h.285zM742.592-3641.254h5.174v-.617h-4.47v-1.812h4.272v-.617h-4.272v-1.614h4.462v-.617h-5.166zM748.551-3646.53v5.276h4.866v-.617h-4.162v-4.66z"/></g><g style="line-height:1.25;-inkscape-font-specification:'Microgramma D Extended'" aria-label="QUINTANILHA" font-weight="700" font-size="46.039" font-family="Microgramma D Extended" letter-spacing="1.679" word-spacing=".127" fill="#003380" stroke-width="1.54"><path style="-inkscape-font-specification:'Microgramma D Extended Bold'" d="M723.381-3634.226l-.68-.348c.032-.26.047-.688.047-1.186 0-1.551-.11-2.073-.522-2.39-.403-.308-.894-.364-3.101-.364s-2.698.056-3.101.364c-.404.309-.523.839-.523 2.35 0 1.52.12 2.05.523 2.358.403.3.902.364 3.046.364 2.302 0 2.753-.056 3.188-.396l.514.372zm-3.884-2.294l-.641 1.116 1.7.902c-.276.047-.569.055-1.36.055-1.392 0-1.638-.024-1.851-.19-.182-.142-.238-.372-.238-1.02 0-.665.032-.974.127-1.156.166-.308.309-.332 1.89-.332 1.472 0 1.647.024 1.829.237.142.174.19.475.19 1.258 0 .032 0 .087-.009.167zM723.734-3638.434v2.428c.008.855.008.855.016 1.029.04.775.127 1.1.388 1.369.395.419 1.028.53 3.046.53 1.226 0 1.756-.032 2.23-.127.602-.127 1.006-.546 1.093-1.147.047-.372.055-.459.079-1.654v-2.428h-1.606v2.428c0 .111-.008.364-.016.546-.024.499-.063.641-.19.776-.174.19-.506.237-1.614.237-1.369 0-1.677-.087-1.764-.506-.04-.214-.04-.222-.056-1.053v-2.428zM731.595-3638.434v5.277h1.685v-5.277zM734.31-3638.434v5.277h1.637l-.04-3.94h.175l2.777 3.94h2.793v-5.277h-1.638l.04 3.932h-.167l-2.76-3.932zM742.308-3638.434v1.344h2.35v3.933h1.685v-3.933h2.35v-1.344zM754.36-3633.157h1.827l-2.761-5.277h-2.5l-2.793 5.277h1.835l.451-.895h3.49zm-1.013-2.05h-2.358l1.02-2.001h.317zM756.716-3638.434v5.277h1.637l-.04-3.94h.175l2.777 3.94h2.793v-5.277h-1.638l.04 3.932h-.167l-2.76-3.932zM765.086-3638.434v5.277h1.685v-5.277zM767.8-3638.434v5.277h5.436v-1.345h-3.75v-3.932zM773.899-3638.434v5.277h1.685v-1.907h3.632v1.907h1.685v-5.277h-1.685v1.89h-3.632v-1.89zM787.65-3633.157h1.827l-2.761-5.277h-2.5l-2.793 5.277h1.835l.451-.895h3.49zm-1.014-2.05h-2.357l1.02-2.001h.317z"/></g></g><path d="M-330.676-2575.91h724.915v286.897h-724.915z"/><g stroke-width="1.645"><path d="M-582.343-2406.819a67.733 67.733 0 0 0-67.733 67.733 67.733 67.733 0 0 0 67.733 67.734 67.733 67.733 0 0 0 67.734-67.734 67.733 67.733 0 0 0-67.734-67.733zm17.234 47.524c16.415 0 20.062.412 23.063 2.707 3.059 2.353 3.883 6.236 3.883 17.767 0 3.706-.118 6.884-.353 8.825l5.06 2.589-4.53 8.354-3.825-2.766c-3.236 2.53-6.59 2.942-23.71 2.942-8.921 0-14.01-.147-17.289-.669v.081h-11.766v-2.06c0-4.412-.236-5.824-1.177-6.824-.823-.941-1.706-1.059-6.648-1.059h-16.885v9.943h-11.943v-39.241h28.887c12.582 0 13.466.002 15.562 1.231 2.944-1.518 7.648-1.82 21.671-1.82zm0 10.178c-11.766 0-12.825.177-14.06 2.471-.706 1.353-.942 3.648-.942 8.59 0 4.824.412 6.53 1.765 7.59 1.589 1.235 3.412 1.411 13.767 1.411 5.883 0 8.06-.058 10.12-.411l-12.65-6.708 4.766-8.295 12.178 7.707c.059-.588.059-1 .059-1.235 0-5.825-.353-8.06-1.412-9.355-1.354-1.588-2.648-1.765-13.59-1.765zm-54.177.236v9.648h16.826c6.001-.117 6.001-.118 6.825-.706.941-.588 1.294-1.765 1.294-4.236 0-2.647-.47-3.765-1.706-4.294-.824-.353-1-.354-6.413-.412z" fill="#003380"/></g><g><path d="M-429.714-1554.854h135.467v135.467h-135.467z" fill="#fff"/></g><g><path d="M0 0h135.467v135.467H0z" fill="#fff"/><path d="M67.733 1.588A66.146 66.146 0 0 0 1.588 67.733a66.146 66.146 0 0 0 66.145 66.146 66.146 66.146 0 0 0 66.146-66.146A66.146 66.146 0 0 0 67.733 1.588zm16.83 46.41c16.03 0 19.592.402 22.522 2.643 2.988 2.298 3.792 6.09 3.792 17.35 0 3.62-.115 6.723-.344 8.619l4.94 2.528-4.423 8.158-3.735-2.7c-3.16 2.47-6.434 2.873-23.154 2.873-8.712 0-13.682-.145-16.883-.654v.08H55.787v-2.012c0-4.309-.23-5.688-1.15-6.665-.804-.919-1.666-1.034-6.492-1.034H31.656v9.71H19.993V48.573h28.21c12.287 0 13.15.001 15.197 1.202 2.875-1.483 7.469-1.777 21.164-1.777zm0 9.94c-11.49 0-12.524.172-13.73 2.412-.69 1.322-.92 3.563-.92 8.389 0 4.71.402 6.377 1.724 7.411 1.55 1.207 3.332 1.38 13.444 1.38 5.745 0 7.87-.058 9.882-.403l-12.353-6.55 4.654-8.1 11.893 7.526c.057-.575.057-.977.057-1.207 0-5.688-.345-7.87-1.379-9.135-1.321-1.551-2.585-1.724-13.271-1.724zm-52.907.23v9.422h16.432c5.86-.115 5.86-.115 6.665-.69.919-.574 1.264-1.723 1.264-4.136 0-2.586-.46-3.677-1.667-4.195-.804-.344-.976-.344-6.262-.402z" fill="#003380" stroke-width="1.684"/></g></svg>